C.ufo
<glyph name="numbersign" format="1">
  <advance width="1246"/>
  <unicode hex="0023"/>
  <outline>
    <contour>
      <point x="260" y="0" type="line"/>
      <point x="316" y="0" type="line"/>
      <point x="580" y="1456" type="line"/>
      <point x="524" y="1456" type="line"/>
    </contour>
    <contour>
      <point x="679" y="0" type="line"/>
      <point x="735" y="0" type="line"/>
      <point x="1001" y="1456" type="line"/>
      <point x="945" y="1456" type="line"/>
    </contour>
    <contour>
      <point x="1179" y="986" type="line"/>
      <point x="1179" y="1040" type="line"/>
      <point x="139" y="1040" type="line"/>
      <point x="139" y="986" type="line"/>
    </contour>
    <contour>
      <point x="1104" y="410" type="line"/>
      <point x="1104" y="462" type="line"/>
      <point x="63" y="462" type="line"/>
      <point x="63" y="410" type="line"/>
    </contour>
  </outline>
</glyph>
<glyph name="ampersand" format="1">
  <advance width="1253"/>
  <unicode hex="0026"/>
  <outline>
    <contour>
      <point x="330" y="762" type="line" smooth="yes"/>
      <point x="192" y="646"/>
      <point x="74" y="518"/>
      <point x="74" y="352" type="curve" smooth="yes"/>
      <point x="74" y="124"/>
      <point x="239" y="-21"/>
      <point x="508" y="-21" type="curve" smooth="yes"/>
      <point x="684" y="-21"/>
      <point x="810" y="56"/>
      <point x="919" y="164" type="curve"/>
      <point x="929" y="176"/>
      <point x="942" y="186"/>
      <point x="952" y="199" type="curve" smooth="yes"/>
      <point x="1041" y="311"/>
      <point x="1098" y="450"/>
      <point x="1098" y="632" type="curve"/>
      <point x="1043" y="632" type="line"/>
      <point x="1043" y="274"/>
      <point x="786" y="33"/>
      <point x="508" y="33" type="curve" smooth="yes"/>
      <point x="249" y="33"/>
      <point x="128" y="187"/>
      <point x="128" y="352" type="curve" smooth="yes"/>
      <point x="128" y="440"/>
      <point x="162" y="551"/>
      <point x="361" y="723" type="curve" smooth="yes"/>
      <point x="655" y="958" type="line" smooth="yes"/>
      <point x="733" y="1021"/>
      <point x="802" y="1093"/>
      <point x="802" y="1215" type="curve" smooth="yes"/>
      <point x="802" y="1369"/>
      <point x="707" y="1477"/>
      <point x="526" y="1477" type="curve" smooth="yes"/>
      <point x="341" y="1477"/>
      <point x="221" y="1370"/>
      <point x="221" y="1167" type="curve" smooth="yes"/>
      <point x="221" y="1018"/>
      <point x="300" y="893"/>
      <point x="447" y="725" type="curve" smooth="yes"/>
      <point x="1088" y="0" type="line"/>
      <point x="1155" y="0" type="line"/>
      <point x="428" y="826" type="line" smooth="yes"/>
      <point x="320" y="951"/>
      <point x="276" y="1066"/>
      <point x="276" y="1169" type="curve" smooth="yes"/>
      <point x="276" y="1307"/>
      <point x="360" y="1423"/>
      <point x="526" y="1423" type="curve" smooth="yes"/>
      <point x="673" y="1423"/>
      <point x="746" y="1337"/>
      <point x="746" y="1215" type="curve" smooth="yes"/>
      <point x="746" y="1141"/>
      <point x="713" y="1070"/>
      <point x="630" y="1000" type="curve" smooth="yes"/>
    </contour>
  </outline>
</glyph>
<glyph name="asterisk" format="1">
  <advance width="948"/>
  <unicode hex="002A"/>
  <outline>
    <contour>
      <point x="195" y="693" type="line"/>
      <point x="240" y="661" type="line"/>
      <point x="468" y="986" type="line"/>
      <point x="710" y="664" type="line"/>
      <point x="757" y="697" type="line"/>
      <point x="508" y="1014" type="line"/>
      <point x="868" y="1151" type="line"/>
      <point x="848" y="1204" type="line"/>
      <point x="496" y="1061" type="line"/>
      <point x="503" y="1456" type="line"/>
      <point x="447" y="1456" type="line"/>
      <point x="446" y="1062" type="line"/>
      <point x="84" y="1195" type="line"/>
      <point x="66" y="1141" type="line"/>
      <point x="429" y="1017" type="line"/>
    </contour>
  </outline>
</glyph>
<glyph name="slash" format="1">
  <advance width="776"/>
  <unicode hex="002F"/>
  <outline>
    <contour>
      <point x="667" y="1456" type="line"/>
      <point x="608" y="1456" type="line"/>
      <point x="0" y="-125" type="line"/>
      <point x="59" y="-125" type="line"/>
    </contour>
  </outline>
</glyph>
<glyph name="one" format="1">
  <advance width="821"/>
  <unicode hex="0031"/>
  <outline>
    <contour>
      <point x="455" y="1464" type="line"/>
      <point x="63" y="1380" type="line"/>
      <point x="63" y="1330" type="line"/>
      <point x="401" y="1406" type="line"/>
      <point x="401" y="0" type="line"/>
      <point x="455" y="0" type="line"/>
    </contour>
    <contour>
      <point x="401" y="0" type="line"/>
      <point x="401" y="54" type="line"/>
      <point x="108" y="54" type="line"/>
      <point x="108" y="0" type="line"/>
    </contour>
    <contour>
      <point x="455" y="0" type="line"/>
      <point x="748" y="0" type="line"/>
      <point x="748" y="54" type="line"/>
      <point x="455" y="54" type="line"/>
    </contour>
  </outline>
</glyph>
<glyph name="six" format="1">
  <advance width="1107"/>
  <unicode hex="0036"/>
  <outline>
    <contour>
      <point x="574" y="1477" type="curve" smooth="yes"/>
      <point x="328" y="1477"/>
      <point x="121" y="1290"/>
      <point x="121" y="880" type="curve" smooth="yes"/>
      <point x="121" y="552" type="line" smooth="yes"/>
      <point x="121" y="177"/>
      <point x="307" y="-21"/>
      <point x="555" y="-21" type="curve" smooth="yes"/>
      <point x="809" y="-21"/>
      <point x="986" y="188"/>
      <point x="986" y="460" type="curve" smooth="yes"/>
      <point x="986" y="755"/>
      <point x="833" y="957"/>
      <point x="565" y="957" type="curve" smooth="yes"/>
      <point x="311" y="957"/>
      <point x="143" y="752"/>
      <point x="143" y="558" type="curve"/>
      <point x="176" y="556" type="line"/>
      <point x="176" y="748"/>
      <point x="357" y="903"/>
      <point x="558" y="903" type="curve" smooth="yes"/>
      <point x="809" y="903"/>
      <point x="932" y="720"/>
      <point x="932" y="460" type="curve" smooth="yes"/>
      <point x="932" y="235"/>
      <point x="786" y="32"/>
      <point x="555" y="32" type="curve" smooth="yes"/>
      <point x="333" y="32"/>
      <point x="175" y="215"/>
      <point x="175" y="553" type="curve" smooth="yes"/>
      <point x="175" y="881" type="line" smooth="yes"/>
      <point x="175" y="1268"/>
      <point x="360" y="1423"/>
      <point x="574" y="1423" type="curve" smooth="yes"/>
      <point x="686" y="1423"/>
      <point x="750" y="1408"/>
      <point x="838" y="1356" type="curve"/>
      <point x="859" y="1407" type="line"/>
      <point x="769" y="1460"/>
      <point x="668" y="1477"/>
    </contour>
  </outline>
</glyph>
<glyph name="seven" format="1">
  <advance width="1104"/>
  <unicode hex="0037"/>
  <outline>
    <contour>
      <point x="941" y="1402" type="line"/>
      <point x="652" y="1060"/>
      <point x="451" y="634"/>
      <point x="391" y="91" type="curve" smooth="yes"/>
      <point x="385" y="0" type="line"/>
      <point x="439" y="0" type="line"/>
      <point x="445" y="91" type="line" smooth="yes"/>
      <point x="511" y="702"/>
      <point x="761" y="1117"/>
      <point x="1006" y="1402" type="curve"/>
    </contour>
    <contour>
      <point x="1006" y="1456" type="line"/>
      <point x="76" y="1456" type="line"/>
      <point x="76" y="1402" type="line"/>
      <point x="1006" y="1402" type="line"/>
    </contour>
    <contour>
      <point x="76" y="1456" type="line"/>
      <point x="76" y="1163" type="line"/>
      <point x="130" y="1163" type="line"/>
      <point x="130" y="1456" type="line"/>
    </contour>
  </outline>
</glyph>
<glyph name="nine" format="1">
  <advance width="1125"/>
  <unicode hex="0039"/>
  <outline>
    <contour>
      <point x="501" y="33" type="curve" smooth="yes"/>
      <point x="381" y="33"/>
      <point x="298" y="57"/>
      <point x="204" y="99" type="curve"/>
      <point x="188" y="42" type="line"/>
      <point x="291" y="2"/>
      <point x="395" y="-21"/>
      <point x="501" y="-21" type="curve" smooth="yes"/>
      <point x="775" y="-21"/>
      <point x="962" y="170"/>
      <point x="962" y="580" type="curve" smooth="yes"/>
      <point x="962" y="923" type="line" smooth="yes"/>
      <point x="962" y="1319"/>
      <point x="771" y="1477"/>
      <point x="520" y="1477" type="curve" smooth="yes"/>
      <point x="263" y="1477"/>
      <point x="84" y="1240"/>
      <point x="84" y="958" type="curve" smooth="yes"/>
      <point x="84" y="695"/>
      <point x="256" y="468"/>
      <point x="512" y="468" type="curve" smooth="yes"/>
      <point x="762" y="468"/>
      <point x="952" y="660"/>
      <point x="952" y="927" type="curve"/>
      <point x="920" y="925" type="line"/>
      <point x="920" y="774"/>
      <point x="790" y="521"/>
      <point x="512" y="521" type="curve" smooth="yes"/>
      <point x="281" y="521"/>
      <point x="146" y="734"/>
      <point x="146" y="958" type="curve" smooth="yes"/>
      <point x="146" y="1194"/>
      <point x="292" y="1423"/>
      <point x="524" y="1423" type="curve" smooth="yes"/>
      <point x="738" y="1423"/>
      <point x="900" y="1281"/>
      <point x="900" y="922" type="curve" smooth="yes"/>
      <point x="900" y="578" type="line" smooth="yes"/>
      <point x="900" y="213"/>
      <point x="747" y="33"/>
    </contour>
  </outline>
</glyph>
<glyph name="less" format="1">
  <advance width="1027"/>
  <unicode hex="003C"/>
  <outline>
    <contour>
      <point x="252" y="498" type="line"/>
      <point x="76" y="552" type="line"/>
      <point x="76" y="515" type="line"/>
      <point x="913" y="136" type="line"/>
      <point x="913" y="195" type="line"/>
    </contour>
    <contour>
      <point x="913" y="885" type="line"/>
      <point x="913" y="943" type="line"/>
      <point x="76" y="565" type="line"/>
      <point x="76" y="523" type="line"/>
      <point x="252" y="577" type="line"/>
    </contour>
  </outline>
</glyph>
<glyph name="greater" format="1">
  <advance width="1052"/>
  <unicode hex="003E"/>
  <outline>
    <contour>
      <point x="785" y="582" type="line"/>
      <point x="961" y="528" type="line"/>
      <point x="961" y="566" type="line"/>
      <point x="125" y="944" type="line"/>
      <point x="125" y="886" type="line"/>
    </contour>
    <contour>
      <point x="125" y="196" type="line"/>
      <point x="125" y="137" type="line"/>
      <point x="961" y="516" type="line"/>
      <point x="961" y="557" type="line"/>
      <point x="785" y="503" type="line"/>
    </contour>
  </outline>
</glyph>
<glyph name="B" format="1">
  <advance width="1303"/>
  <unicode hex="0042"/>
  <outline>
    <contour>
      <point x="719" y="719" type="line"/>
      <point x="804" y="749" type="line"/>
      <point x="991" y="768"/>
      <point x="1093" y="903"/>
      <point x="1093" y="1083" type="curve" smooth="yes"/>
      <point x="1093" y="1340"/>
      <point x="911" y="1456"/>
      <point x="617" y="1456" type="curve" smooth="yes"/>
      <point x="234" y="1456" type="line"/>
      <point x="234" y="0" type="line"/>
      <point x="288" y="0" type="line"/>
      <point x="288" y="1402" type="line"/>
      <point x="617" y="1402" type="line" smooth="yes"/>
      <point x="894" y="1402"/>
      <point x="1038" y="1296"/>
      <point x="1038" y="1087" type="curve" smooth="yes"/>
      <point x="1038" y="874"/>
      <point x="901" y="773"/>
      <point x="637" y="773" type="curve" smooth="yes"/>
      <point x="265" y="773" type="line"/>
      <point x="267" y="719" type="line"/>
    </contour>
    <contour>
      <point x="709" y="0" type="line" smooth="yes"/>
      <point x="974" y="0"/>
      <point x="1159" y="142"/>
      <point x="1159" y="401" type="curve" smooth="yes"/>
      <point x="1159" y="579"/>
      <point x="1018" y="732"/>
      <point x="834" y="754" type="curve"/>
      <point x="830" y="773" type="line"/>
      <point x="485" y="773" type="line"/>
      <point x="483" y="719" type="line"/>
      <point x="719" y="719" type="line" smooth="yes"/>
      <point x="977" y="719"/>
      <point x="1105" y="566"/>
      <point x="1105" y="399" type="curve" smooth="yes"/>
      <point x="1105" y="182"/>
      <point x="954" y="54"/>
      <point x="709" y="54" type="curve" smooth="yes"/>
      <point x="282" y="54" type="line"/>
      <point x="265" y="0" type="line"/>
    </contour>
    <contour>
      <point x="234" y="1456" type="line"/>
      <point x="71" y="1456" type="line"/>
      <point x="71" y="1402" type="line"/>
      <point x="234" y="1402" type="line"/>
    </contour>
    <contour>
      <point x="234" y="0" type="line"/>
      <point x="234" y="54" type="line"/>
      <point x="71" y="54" type="line"/>
      <point x="71" y="0" type="line"/>
    </contour>
  </outline>
</glyph>
<glyph name="E" format="1">
  <advance width="1270"/>
  <unicode hex="0045"/>
  <outline>
    <contour>
      <point x="1120" y="54" type="line"/>
      <point x="253" y="54" type="line"/>
      <point x="253" y="0" type="line"/>
      <point x="1120" y="0" type="line"/>
    </contour>
    <contour>
      <point x="288" y="1456" type="line"/>
      <point x="234" y="1456" type="line"/>
      <point x="234" y="0" type="line"/>
      <point x="288" y="0" type="line"/>
    </contour>
    <contour>
      <point x="918" y="786" type="line"/>
      <point x="253" y="786" type="line"/>
      <point x="253" y="732" type="line"/>
      <point x="918" y="732" type="line"/>
    </contour>
    <contour>
      <point x="1120" y="1456" type="line"/>
      <point x="253" y="1456" type="line"/>
      <point x="253" y="1402" type="line"/>
      <point x="1120" y="1402" type="line"/>
    </contour>
    <contour>
      <point x="1120" y="1456" type="line"/>
      <point x="1066" y="1456" type="line"/>
      <point x="1066" y="1163" type="line"/>
      <point x="1120" y="1163" type="line"/>
    </contour>
    <contour>
      <point x="234" y="0" type="line"/>
      <point x="234" y="54" type="line"/>
      <point x="71" y="54" type="line"/>
      <point x="71" y="0" type="line"/>
    </contour>
    <contour>
      <point x="234" y="1456" type="line"/>
      <point x="71" y="1456" type="line"/>
      <point x="71" y="1402" type="line"/>
      <point x="234" y="1402" type="line"/>
    </contour>
    <contour>
      <point x="1120" y="0" type="line"/>
      <point x="1120" y="293" type="line"/>
      <point x="1066" y="293" type="line"/>
      <point x="1066" y="0" type="line"/>
    </contour>
  </outline>
</glyph>
<glyph name="F" format="1">
  <advance width="1246"/>
  <unicode hex="0046"/>
  <outline>
    <contour>
      <point x="288" y="1456" type="line"/>
      <point x="234" y="1456" type="line"/>
      <point x="234" y="0" type="line"/>
      <point x="288" y="0" type="line"/>
    </contour>
    <contour>
      <point x="934" y="772" type="line"/>
      <point x="249" y="772" type="line"/>
      <point x="249" y="716" type="line"/>
      <point x="934" y="716" type="line"/>
    </contour>
    <contour>
      <point x="1136" y="1456" type="line"/>
      <point x="249" y="1456" type="line"/>
      <point x="249" y="1402" type="line"/>
      <point x="1136" y="1402" type="line"/>
    </contour>
    <contour>
      <point x="1136" y="1456" type="line"/>
      <point x="1082" y="1456" type="line"/>
      <point x="1082" y="1163" type="line"/>
      <point x="1136" y="1163" type="line"/>
    </contour>
    <contour>
      <point x="234" y="0" type="line"/>
      <point x="234" y="54" type="line"/>
      <point x="71" y="54" type="line"/>
      <point x="71" y="0" type="line"/>
    </contour>
    <contour>
      <point x="288" y="0" type="line"/>
      <point x="451" y="0" type="line"/>
      <point x="451" y="54" type="line"/>
      <point x="288" y="54" type="line"/>
    </contour>
    <contour>
      <point x="234" y="1456" type="line"/>
      <point x="71" y="1456" type="line"/>
      <point x="71" y="1402" type="line"/>
      <point x="234" y="1402" type="line"/>
    </contour>
  </outline>
</glyph>
<glyph name="K" format="1">
  <advance width="1388"/>
  <unicode hex="004B"/>
  <outline>
    <contour>
      <point x="288" y="1456" type="line"/>
      <point x="234" y="1456" type="line"/>
      <point x="234" y="0" type="line"/>
      <point x="288" y="0" type="line"/>
    </contour>
    <contour>
      <point x="1215" y="1456" type="line"/>
      <point x="1144" y="1456" type="line"/>
      <point x="526" y="764" type="line"/>
      <point x="274" y="764" type="line"/>
      <point x="266" y="711" type="line"/>
      <point x="554" y="711" type="line"/>
    </contour>
    <contour>
      <point x="1190" y="0" type="line"/>
      <point x="1261" y="0" type="line"/>
      <point x="542" y="761" type="line"/>
      <point x="508" y="714" type="line"/>
    </contour>
    <contour>
      <point x="1190" y="0" type="line"/>
      <point x="1190" y="54" type="line"/>
      <point x="967" y="54" type="line"/>
      <point x="967" y="0" type="line"/>
    </contour>
    <contour>
      <point x="1261" y="0" type="line"/>
      <point x="1328" y="0" type="line"/>
      <point x="1328" y="54" type="line"/>
      <point x="1197" y="54" type="line"/>
    </contour>
    <contour>
      <point x="1144" y="1456" type="line"/>
      <point x="921" y="1456" type="line"/>
      <point x="921" y="1402" type="line"/>
      <point x="1144" y="1402" type="line"/>
    </contour>
    <contour>
      <point x="1215" y="1456" type="line"/>
      <point x="1151" y="1402" type="line"/>
      <point x="1282" y="1402" type="line"/>
      <point x="1282" y="1456" type="line"/>
    </contour>
    <contour>
      <point x="234" y="0" type="line"/>
      <point x="234" y="54" type="line"/>
      <point x="71" y="54" type="line"/>
      <point x="71" y="0" type="line"/>
    </contour>
    <contour>
      <point x="288" y="0" type="line"/>
      <point x="451" y="0" type="line"/>
      <point x="451" y="54" type="line"/>
      <point x="288" y="54" type="line"/>
    </contour>
    <contour>
      <point x="288" y="1456" type="line"/>
      <point x="288" y="1402" type="line"/>
      <point x="451" y="1402" type="line"/>
      <point x="451" y="1456" type="line"/>
    </contour>
    <contour>
      <point x="234" y="1456" type="line"/>
      <point x="71" y="1456" type="line"/>
      <point x="71" y="1402" type="line"/>
      <point x="234" y="1402" type="line"/>
    </contour>
  </outline>
</glyph>
<glyph name="L" format="1">
  <advance width="1161"/>
  <unicode hex="004C"/>
  <outline>
    <contour>
      <point x="1036" y="54" type="line"/>
      <point x="254" y="54" type="line"/>
      <point x="254" y="0" type="line"/>
      <point x="1036" y="0" type="line"/>
    </contour>
    <contour>
      <point x="289" y="1456" type="line"/>
      <point x="234" y="1456" type="line"/>
      <point x="234" y="0" type="line"/>
      <point x="289" y="0" type="line"/>
    </contour>
    <contour>
      <point x="289" y="1456" type="line"/>
      <point x="289" y="1402" type="line"/>
      <point x="452" y="1402" type="line"/>
      <point x="452" y="1456" type="line"/>
    </contour>
    <contour>
      <point x="234" y="0" type="line"/>
      <point x="234" y="54" type="line"/>
      <point x="71" y="54" type="line"/>
      <point x="71" y="0" type="line"/>
    </contour>
    <contour>
      <point x="234" y="1456" type="line"/>
      <point x="71" y="1456" type="line"/>
      <point x="71" y="1402" type="line"/>
      <point x="234" y="1402" type="line"/>
    </contour>
    <contour>
      <point x="1036" y="0" type="line"/>
      <point x="1036" y="293" type="line"/>
      <point x="982" y="293" type="line"/>
      <point x="982" y="0" type="line"/>
    </contour>
  </outline>
</glyph>
<glyph name="N" format="1">
  <advance width="1517"/>
  <unicode hex="004E"/>
  <outline>
    <contour>
      <point x="1271" y="34" type="line"/>
      <point x="289" y="1456" type="line"/>
      <point x="249" y="1422" type="line"/>
      <point x="1229" y="0" type="line"/>
    </contour>
    <contour>
      <point x="289" y="1456" type="line"/>
      <point x="234" y="1456" type="line"/>
      <point x="234" y="0" type="line"/>
      <point x="289" y="0" type="line"/>
    </contour>
    <contour>
      <point x="1283" y="1456" type="line"/>
      <point x="1229" y="1456" type="line"/>
      <point x="1229" y="0" type="line"/>
      <point x="1283" y="0" type="line"/>
    </contour>
    <contour>
      <point x="1283" y="1456" type="line"/>
      <point x="1283" y="1402" type="line"/>
      <point x="1446" y="1402" type="line"/>
      <point x="1446" y="1456" type="line"/>
    </contour>
    <contour>
      <point x="1229" y="1456" type="line"/>
      <point x="1066" y="1456" type="line"/>
      <point x="1066" y="1402" type="line"/>
      <point x="1229" y="1402" type="line"/>
    </contour>
    <contour>
      <point x="289" y="0" type="line"/>
      <point x="452" y="0" type="line"/>
      <point x="452" y="54" type="line"/>
      <point x="289" y="54" type="line"/>
    </contour>
    <contour>
      <point x="234" y="0" type="line"/>
      <point x="234" y="54" type="line"/>
      <point x="71" y="54" type="line"/>
      <point x="71" y="0" type="line"/>
    </contour>
    <contour>
      <point x="234" y="1456" type="line"/>
      <point x="71" y="1456" type="line"/>
      <point x="71" y="1402" type="line"/>
      <point x="234" y="1402" type="line"/>
    </contour>
  </outline>
</glyph>
<glyph name="Q" format="1">
  <advance width="1478"/>
  <unicode hex="0051"/>
  <outline>
    <contour>
      <point x="996" y="83" type="line"/>
      <point x="955" y="45" type="line"/>
      <point x="1304" y="-203" type="line"/>
      <point x="1343" y="-165" type="line"/>
    </contour>
    <contour>
      <point x="1348" y="737" type="line" smooth="yes"/>
      <point x="1348" y="1187"/>
      <point x="1098" y="1477"/>
      <point x="738" y="1477" type="curve" smooth="yes"/>
      <point x="379" y="1477"/>
      <point x="130" y="1187"/>
      <point x="130" y="737" type="curve" smooth="yes"/>
      <point x="130" y="719" type="line" smooth="yes"/>
      <point x="130" y="269"/>
      <point x="381" y="-21"/>
      <point x="740" y="-21" type="curve" smooth="yes"/>
      <point x="1100" y="-21"/>
      <point x="1348" y="269"/>
      <point x="1348" y="719" type="curve" smooth="yes"/>
    </contour>
    <contour>
      <point x="1294" y="719" type="line" smooth="yes"/>
      <point x="1294" y="306"/>
      <point x="1079" y="33"/>
      <point x="740" y="33" type="curve" smooth="yes"/>
      <point x="403" y="33"/>
      <point x="185" y="306"/>
      <point x="185" y="719" type="curve" smooth="yes"/>
      <point x="185" y="739" type="line" smooth="yes"/>
      <point x="185" y="1150"/>
      <point x="401" y="1423"/>
      <point x="738" y="1423" type="curve" smooth="yes"/>
      <point x="1077" y="1423"/>
      <point x="1294" y="1150"/>
      <point x="1294" y="739" type="curve" smooth="yes"/>
    </contour>
  </outline>
</glyph>
<glyph name="T" format="1">
  <advance width="1277"/>
  <unicode hex="0054"/>
  <outline>
    <contour>
      <point x="664" y="1456" type="line"/>
      <point x="610" y="1456" type="line"/>
      <point x="610" y="0" type="line"/>
      <point x="664" y="0" type="line"/>
    </contour>
    <contour>
      <point x="1194" y="1456" type="line"/>
      <point x="80" y="1456" type="line"/>
      <point x="80" y="1402" type="line"/>
      <point x="1194" y="1402" type="line"/>
    </contour>
    <contour>
      <point x="80" y="1456" type="line"/>
      <point x="80" y="1163" type="line"/>
      <point x="134" y="1163" type="line"/>
      <point x="134" y="1456" type="line"/>
    </contour>
    <contour>
      <point x="1194" y="1456" type="line"/>
      <point x="1140" y="1456" type="line"/>
      <point x="1140" y="1163" type="line"/>
      <point x="1194" y="1163" type="line"/>
    </contour>
    <contour>
      <point x="610" y="0" type="line"/>
      <point x="610" y="54" type="line"/>
      <point x="447" y="54" type="line"/>
      <point x="447" y="0" type="line"/>
    </contour>
    <contour>
      <point x="664" y="0" type="line"/>
      <point x="827" y="0" type="line"/>
      <point x="827" y="54" type="line"/>
      <point x="664" y="54" type="line"/>
    </contour>
  </outline>
</glyph>
<glyph name="W" format="1">
  <advance width="1960"/>
  <unicode hex="0057"/>
  <outline>
    <contour>
      <point x="618" y="330" type="line"/>
      <point x="527" y="0" type="line"/>
      <point x="578" y="0" type="line"/>
      <point x="962" y="1214" type="line"/>
      <point x="1040" y="1456" type="line"/>
      <point x="982" y="1456" type="line"/>
    </contour>
    <contour>
      <point x="204" y="1456" type="line"/>
      <point x="144" y="1456" type="line"/>
      <point x="517" y="0" type="line"/>
      <point x="577" y="0" type="line"/>
      <point x="486" y="330" type="line"/>
    </contour>
    <contour>
      <point x="1537" y="330" type="line"/>
      <point x="1444" y="0" type="line"/>
      <point x="1504" y="0" type="line"/>
      <point x="1876" y="1456" type="line"/>
      <point x="1817" y="1456" type="line"/>
    </contour>
    <contour>
      <point x="1042" y="1456" type="line"/>
      <point x="983" y="1456" type="line"/>
      <point x="1062" y="1214" type="line"/>
      <point x="1443" y="0" type="line"/>
      <point x="1494" y="0" type="line"/>
      <point x="1404" y="330" type="line"/>
    </contour>
    <contour>
      <point x="1876" y="1456" type="line"/>
      <point x="1812" y="1402" type="line"/>
      <point x="1963" y="1402" type="line"/>
      <point x="1963" y="1456" type="line"/>
    </contour>
    <contour>
      <point x="1817" y="1456" type="line"/>
      <point x="1654" y="1456" type="line"/>
      <point x="1654" y="1402" type="line"/>
      <point x="1817" y="1402" type="line"/>
    </contour>
    <contour>
      <point x="144" y="1456" type="line"/>
      <point x="57" y="1456" type="line"/>
      <point x="57" y="1402" type="line"/>
      <point x="208" y="1402" type="line"/>
    </contour>
    <contour>
      <point x="204" y="1456" type="line"/>
      <point x="204" y="1402" type="line"/>
      <point x="367" y="1402" type="line"/>
      <point x="367" y="1456" type="line"/>
    </contour>
  </outline>
</glyph>
<glyph name="Y" format="1">
  <advance width="1429"/>
  <unicode hex="0059"/>
  <outline>
    <contour>
      <point x="742" y="647" type="line"/>
      <point x="691" y="552" type="line"/>
      <point x="743" y="552" type="line"/>
      <point x="1291" y="1456" type="line"/>
      <point x="1225" y="1456" type="line"/>
    </contour>
    <contour>
      <point x="208" y="1456" type="line"/>
      <point x="142" y="1456" type="line"/>
      <point x="690" y="552" type="line"/>
      <point x="740" y="552" type="line"/>
      <point x="689" y="647" type="line"/>
    </contour>
    <contour>
      <point x="744" y="577" type="line"/>
      <point x="689" y="577" type="line"/>
      <point x="689" y="0" type="line"/>
      <point x="744" y="0" type="line"/>
    </contour>
    <contour>
      <point x="689" y="0" type="line"/>
      <point x="689" y="54" type="line"/>
      <point x="526" y="54" type="line"/>
      <point x="526" y="0" type="line"/>
    </contour>
    <contour>
      <point x="744" y="0" type="line"/>
      <point x="907" y="0" type="line"/>
      <point x="907" y="54" type="line"/>
      <point x="744" y="54" type="line"/>
    </contour>
    <contour>
      <point x="142" y="1456" type="line"/>
      <point x="55" y="1456" type="line"/>
      <point x="55" y="1402" type="line"/>
      <point x="206" y="1402" type="line"/>
    </contour>
    <contour>
      <point x="208" y="1456" type="line"/>
      <point x="208" y="1402" type="line"/>
      <point x="371" y="1402" type="line"/>
      <point x="371" y="1456" type="line"/>
    </contour>
    <contour>
      <point x="1225" y="1456" type="line"/>
      <point x="1062" y="1456" type="line"/>
      <point x="1062" y="1402" type="line"/>
      <point x="1225" y="1402" type="line"/>
    </contour>
    <contour>
      <point x="1291" y="1456" type="line"/>
      <point x="1227" y="1402" type="line"/>
      <point x="1378" y="1402" type="line"/>
      <point x="1378" y="1456" type="line"/>
    </contour>
  </outline>
</glyph>
<glyph name="Z" format="1">
  <advance width="1220"/>
  <unicode hex="005A"/>
  <outline>
    <contour>
      <point x="1128" y="54" type="line"/>
      <point x="109" y="54" type="line"/>
      <point x="109" y="0" type="line"/>
      <point x="1128" y="0" type="line"/>
    </contour>
    <contour>
      <point x="1096" y="1418" type="line"/>
      <point x="1096" y="1456" type="line"/>
      <point x="1057" y="1456" type="line"/>
      <point x="92" y="44" type="line"/>
      <point x="92" y="0" type="line"/>
      <point x="129" y="0" type="line"/>
    </contour>
    <contour>
      <point x="1070" y="1456" type="line"/>
      <point x="132" y="1456" type="line"/>
      <point x="132" y="1403" type="line"/>
      <point x="1070" y="1403" type="line"/>
    </contour>
    <contour>
      <point x="132" y="1456" type="line"/>
      <point x="132" y="1163" type="line"/>
      <point x="186" y="1163" type="line"/>
      <point x="186" y="1456" type="line"/>
    </contour>
    <contour>
      <point x="1128" y="0" type="line"/>
      <point x="1128" y="293" type="line"/>
      <point x="1074" y="293" type="line"/>
      <point x="1074" y="0" type="line"/>
    </contour>
  </outline>
</glyph>
<glyph name="backslash" format="1">
  <advance width="784"/>
  <unicode hex="005C"/>
  <outline>
    <contour>
      <point x="644" y="-125" type="line"/>
      <point x="702" y="-125" type="line"/>
      <point x="94" y="1456" type="line"/>
      <point x="36" y="1456" type="line"/>
    </contour>
  </outline>
</glyph>
<glyph name="b" format="1">
  <advance width="1088"/>
  <unicode hex="0062"/>
  <outline>
    <contour>
      <point x="155" y="1560" type="line"/>
      <point x="155" y="0" type="line"/>
      <point x="200" y="0" type="line"/>
      <point x="209" y="210" type="line"/>
      <point x="209" y="1560" type="line"/>
    </contour>
    <contour>
      <point x="984" y="542" type="line" smooth="yes"/>
      <point x="984" y="883"/>
      <point x="833" y="1102"/>
      <point x="576" y="1102" type="curve" smooth="yes"/>
      <point x="341" y="1102"/>
      <point x="204" y="948"/>
      <point x="157" y="745" type="curve"/>
      <point x="157" y="304" type="line"/>
      <point x="191" y="133"/>
      <point x="334" y="-21"/>
      <point x="578" y="-21" type="curve" smooth="yes"/>
      <point x="834" y="-21"/>
      <point x="984" y="191"/>
      <point x="984" y="521" type="curve" smooth="yes"/>
    </contour>
    <contour>
      <point x="928" y="521" type="line" smooth="yes"/>
      <point x="928" y="233"/>
      <point x="815" y="33"/>
      <point x="579" y="33" type="curve" smooth="yes"/>
      <point x="352" y="33"/>
      <point x="229" y="166"/>
      <point x="193" y="329" type="curve"/>
      <point x="193" y="709" type="line"/>
      <point x="222" y="843"/>
      <point x="305" y="1048"/>
      <point x="577" y="1048" type="curve" smooth="yes"/>
      <point x="815" y="1048"/>
      <point x="928" y="829"/>
      <point x="928" y="542" type="curve" smooth="yes"/>
    </contour>
    <contour>
      <point x="155" y="1560" type="line"/>
      <point x="-8" y="1560" type="line"/>
      <point x="-8" y="1506" type="line"/>
      <point x="155" y="1506" type="line"/>
    </contour>
  </outline>
</glyph>
<glyph name="j" format="1">
  <advance width="555"/>
  <unicode hex="006A"/>
  <outline>
    <contour>
      <point x="330" y="1082" type="line"/>
      <point x="330" y="-89" type="line" smooth="yes"/>
      <point x="330" y="-276"/>
      <point x="247" y="-383"/>
      <point x="99" y="-383" type="curve" smooth="yes"/>
      <point x="62" y="-383"/>
      <point x="21" y="-373"/>
      <point x="0" y="-365" type="curve"/>
      <point x="-13" y="-417" type="line"/>
      <point x="26" y="-430"/>
      <point x="58" y="-437"/>
      <point x="99" y="-437" type="curve" smooth="yes"/>
      <point x="278" y="-437"/>
      <point x="384" y="-314"/>
      <point x="384" y="-89" type="curve" smooth="yes"/>
      <point x="384" y="1082" type="line"/>
    </contour>
    <contour>
      <point x="378" y="1560" type="line"/>
      <point x="324" y="1560" type="line"/>
      <point x="324" y="1426" type="line"/>
      <point x="378" y="1426" type="line"/>
    </contour>
    <contour>
      <point x="330" y="1082" type="line"/>
      <point x="167" y="1082" type="line"/>
      <point x="167" y="1028" type="line"/>
      <point x="330" y="1028" type="line"/>
    </contour>
  </outline>
</glyph>
<glyph name="n" format="1">
  <advance width="1320"/>
  <unicode hex="006E"/>
  <outline>
    <contour>
      <point x="306" y="851" type="line"/>
      <point x="298" y="1082" type="line"/>
      <point x="252" y="1082" type="line"/>
      <point x="252" y="0" type="line"/>
      <point x="306" y="0" type="line"/>
    </contour>
    <contour>
      <point x="298" y="554" type="line"/>
      <point x="298" y="785"/>
      <point x="377" y="1048"/>
      <point x="681" y="1048" type="curve" smooth="yes"/>
      <point x="847" y="1048"/>
      <point x="980" y="962"/>
      <point x="980" y="639" type="curve" smooth="yes"/>
      <point x="980" y="0" type="line"/>
      <point x="1034" y="0" type="line"/>
      <point x="1034" y="637" type="line" smooth="yes"/>
      <point x="1034" y="966"/>
      <point x="912" y="1102"/>
      <point x="680" y="1102" type="curve" smooth="yes"/>
      <point x="384" y="1102"/>
      <point x="252" y="875"/>
      <point x="252" y="554" type="curve"/>
    </contour>
    <contour>
      <point x="252" y="1082" type="line"/>
      <point x="89" y="1082" type="line"/>
      <point x="89" y="1028" type="line"/>
      <point x="252" y="1028" type="line"/>
    </contour>
    <contour>
      <point x="306" y="0" type="line"/>
      <point x="469" y="0" type="line"/>
      <point x="469" y="54" type="line"/>
      <point x="306" y="54" type="line"/>
    </contour>
    <contour>
      <point x="1034" y="0" type="line"/>
      <point x="1197" y="0" type="line"/>
      <point x="1197" y="54" type="line"/>
      <point x="1034" y="54" type="line"/>
    </contour>
    <contour>
      <point x="980" y="0" type="line"/>
      <point x="980" y="54" type="line"/>
      <point x="817" y="54" type="line"/>
      <point x="817" y="0" type="line"/>
    </contour>
    <contour>
      <point x="252" y="0" type="line"/>
      <point x="252" y="54" type="line"/>
      <point x="89" y="54" type="line"/>
      <point x="89" y="0" type="line"/>
    </contour>
  </outline>
</glyph>
<glyph name="u" format="1">
  <advance width="1222"/>
  <unicode hex="0075"/>
  <outline>
    <contour>
      <point x="916" y="250" type="line"/>
      <point x="926" y="0" type="line"/>
      <point x="971" y="0" type="line"/>
      <point x="971" y="1082" type="line"/>
      <point x="916" y="1082" type="line"/>
    </contour>
    <contour>
      <point x="925" y="443" type="line"/>
      <point x="925" y="236"/>
      <point x="833" y="33"/>
      <point x="541" y="33" type="curve" smooth="yes"/>
      <point x="368" y="33"/>
      <point x="241" y="156"/>
      <point x="241" y="463" type="curve" smooth="yes"/>
      <point x="241" y="1082" type="line"/>
      <point x="187" y="1082" type="line"/>
      <point x="187" y="465" type="line" smooth="yes"/>
      <point x="187" y="121"/>
      <point x="331" y="-21"/>
      <point x="543" y="-21" type="curve" smooth="yes"/>
      <point x="829" y="-21"/>
      <point x="971" y="177"/>
      <point x="971" y="445" type="curve"/>
    </contour>
    <contour>
      <point x="916" y="1082" type="line"/>
      <point x="753" y="1082" type="line"/>
      <point x="753" y="1028" type="line"/>
      <point x="916" y="1028" type="line"/>
    </contour>
    <contour>
      <point x="187" y="1082" type="line"/>
      <point x="44" y="1082" type="line"/>
      <point x="44" y="1028" type="line"/>
      <point x="187" y="1028" type="line"/>
    </contour>
    <contour>
      <point x="971" y="0" type="line"/>
      <point x="1134" y="0" type="line"/>
      <point x="1134" y="54" type="line"/>
      <point x="971" y="54" type="line"/>
    </contour>
  </outline>
</glyph>
<glyph name="z" format="1">
  <advance width="1077"/>
  <unicode hex="007A"/>
  <outline>
    <contour>
      <point x="963" y="54" type="line"/>
      <point x="135" y="54" type="line"/>
      <point x="135" y="0" type="line"/>
      <point x="963" y="0" type="line"/>
    </contour>
    <contour>
      <point x="904" y="1034" type="line"/>
      <point x="904" y="1082" type="line"/>
      <point x="871" y="1082" type="line"/>
      <point x="120" y="44" type="line"/>
      <point x="120" y="0" type="line"/>
      <point x="154" y="0" type="line"/>
    </contour>
    <contour>
      <point x="879" y="1082" type="line"/>
      <point x="121" y="1082" type="line"/>
      <point x="121" y="1027" type="line"/>
      <point x="879" y="1027" type="line"/>
    </contour>
    <contour>
      <point x="121" y="1082" type="line"/>
      <point x="121" y="789" type="line"/>
      <point x="175" y="789" type="line"/>
      <point x="175" y="1082" type="line"/>
    </contour>
    <contour>
      <point x="963" y="0" type="line"/>
      <point x="963" y="293" type="line"/>
      <point x="909" y="293" type="line"/>
      <point x="909" y="0" type="line"/>
    </contour>
  </outline>
</glyph>
<glyph name="braceright" format="1">
  <advance width="692"/>
  <unicode hex="007D"/>
  <outline>
    <contour>
      <point x="32" y="1552" type="line"/>
      <point x="229" y="1489"/>
      <point x="311" y="1331"/>
      <point x="311" y="1132" type="curve" smooth="yes"/>
      <point x="311" y="885" type="line" smooth="yes"/>
      <point x="311" y="706"/>
      <point x="398" y="566"/>
      <point x="615" y="566" type="curve"/>
      <point x="615" y="609" type="line"/>
      <point x="439" y="609"/>
      <point x="365" y="717"/>
      <point x="365" y="885" type="curve" smooth="yes"/>
      <point x="365" y="1132" type="line" smooth="yes"/>
      <point x="365" y="1342"/>
      <point x="291" y="1520"/>
      <point x="46" y="1597" type="curve"/>
    </contour>
    <contour>
      <point x="46" y="-441" type="line"/>
      <point x="291" y="-364"/>
      <point x="365" y="-190"/>
      <point x="365" y="20" type="curve" smooth="yes"/>
      <point x="365" y="265" type="line" smooth="yes"/>
      <point x="365" y="434"/>
      <point x="439" y="543"/>
      <point x="615" y="543" type="curve"/>
      <point x="615" y="586" type="line"/>
      <point x="398" y="586"/>
      <point x="311" y="444"/>
      <point x="311" y="265" type="curve" smooth="yes"/>
      <point x="311" y="20" type="line" smooth="yes"/>
      <point x="311" y="-181"/>
      <point x="222" y="-329"/>
      <point x="27" y="-395" type="curve"/>
    </contour>
  </outline>
</glyph>
<glyph name="brokenbar" format="1">
  <advance width="432"/>
  <unicode hex="00A6"/>
  <outline>
    <contour>
      <point x="204" y="-270" type="line"/>
      <point x="204" y="482" type="line"/>
      <point x="150" y="482" type="line"/>
      <point x="150" y="-270" type="line"/>
    </contour>
    <contour>
      <point x="204" y="1456" type="line"/>
      <point x="150" y="1456" type="line"/>
      <point x="150" y="698" type="line"/>
      <point x="204" y="698" type="line"/>
    </contour>
  </outline>
</glyph>
<glyph name="degree" format="1">
  <advance width="739"/>
  <unicode hex="00B0"/>
  <outline>
    <contour>
      <point x="124" y="1237" type="curve" smooth="yes"/>
      <point x="124" y="1104"/>
      <point x="230" y="1000"/>
      <point x="360" y="1000" type="curve" smooth="yes"/>
      <point x="487" y="1000"/>
      <point x="592" y="1104"/>
      <point x="592" y="1237" type="curve" smooth="yes"/>
      <point x="592" y="1368"/>
      <point x="487" y="1477"/>
      <point x="360" y="1477" type="curve" smooth="yes"/>
      <point x="230" y="1477"/>
      <point x="124" y="1368"/>
    </contour>
    <contour>
      <point x="179" y="1237" type="curve" smooth="yes"/>
      <point x="179" y="1344"/>
      <point x="257" y="1422"/>
      <point x="360" y="1422" type="curve" smooth="yes"/>
      <point x="462" y="1422"/>
      <point x="536" y="1344"/>
      <point x="536" y="1237" type="curve" smooth="yes"/>
      <point x="536" y="1132"/>
      <point x="462" y="1056"/>
      <point x="360" y="1056" type="curve" smooth="yes"/>
      <point x="257" y="1056"/>
      <point x="179" y="1132"/>
    </contour>
  </outline>
</glyph>
<glyph name="threesuperior" format="1">
  <advance width="831"/>
  <unicode hex="00B3"/>
  <outline>
    <contour>
      <point x="378" y="1056" type="line" smooth="yes"/>
      <point x="544" y="1056"/>
      <point x="639" y="1146"/>
      <point x="639" y="1257" type="curve" smooth="yes"/>
      <point x="639" y="1401"/>
      <point x="536" y="1478"/>
      <point x="375" y="1478" type="curve" smooth="yes"/>
      <point x="229" y="1478"/>
      <point x="106" y="1394"/>
      <point x="106" y="1258" type="curve"/>
      <point x="161" y="1258" type="line"/>
      <point x="161" y="1359"/>
      <point x="256" y="1423"/>
      <point x="375" y="1423" type="curve" smooth="yes"/>
      <point x="521" y="1423"/>
      <point x="584" y="1353"/>
      <point x="584" y="1260" type="curve" smooth="yes"/>
      <point x="584" y="1164"/>
      <point x="524" y="1103"/>
      <point x="376" y="1103" type="curve" smooth="yes"/>
      <point x="262" y="1103" type="line"/>
      <point x="262" y="1056" type="line"/>
    </contour>
    <contour>
      <point x="262" y="1091" type="line"/>
      <point x="262" y="1047" type="line"/>
      <point x="376" y="1047" type="line" smooth="yes"/>
      <point x="521" y="1047"/>
      <point x="597" y="998"/>
      <point x="597" y="881" type="curve" smooth="yes"/>
      <point x="597" y="776"/>
      <point x="518" y="710"/>
      <point x="375" y="710" type="curve" smooth="yes"/>
      <point x="239" y="710"/>
      <point x="149" y="786"/>
      <point x="149" y="888" type="curve"/>
      <point x="92" y="888" type="line"/>
      <point x="92" y="726"/>
      <point x="237" y="655"/>
      <point x="375" y="655" type="curve" smooth="yes"/>
      <point x="536" y="655"/>
      <point x="653" y="738"/>
      <point x="653" y="883" type="curve" smooth="yes"/>
      <point x="653" y="1018"/>
      <point x="561" y="1091"/>
      <point x="378" y="1091" type="curve" smooth="yes"/>
    </contour>
  </outline>
</glyph>
<glyph name="mu" format="1">
  <advance width="1282"/>
  <unicode hex="00B5"/>
  <outline>
    <contour>
      <point x="957" y="1082" type="line"/>
      <point x="957" y="250" type="line"/>
      <point x="970" y="0" type="line"/>
      <point x="1011" y="0" type="line"/>
      <point x="1011" y="1082" type="line"/>
    </contour>
    <contour>
      <point x="962" y="503" type="line"/>
      <point x="962" y="242"/>
      <point x="895" y="33"/>
      <point x="587" y="33" type="curve" smooth="yes"/>
      <point x="430" y="33"/>
      <point x="281" y="118"/>
      <point x="281" y="440" type="curve"/>
      <point x="232" y="372" type="line"/>
      <point x="257" y="70"/>
      <point x="426" y="-21"/>
      <point x="596" y="-21" type="curve" smooth="yes"/>
      <point x="894" y="-21"/>
      <point x="1013" y="202"/>
      <point x="1013" y="505" type="curve"/>
    </contour>
    <contour>
      <point x="229" y="1082" type="line"/>
      <point x="229" y="-416" type="line"/>
      <point x="281" y="-416" type="line"/>
      <point x="281" y="1082" type="line"/>
    </contour>
    <contour>
      <point x="229" y="1082" type="line"/>
      <point x="66" y="1082" type="line"/>
      <point x="66" y="1028" type="line"/>
      <point x="229" y="1028" type="line"/>
    </contour>
    <contour>
      <point x="1011" y="0" type="line"/>
      <point x="1174" y="0" type="line"/>
      <point x="1174" y="54" type="line"/>
      <point x="1011" y="54" type="line"/>
    </contour>
    <contour>
      <point x="957" y="1082" type="line"/>
      <point x="794" y="1082" type="line"/>
      <point x="794" y="1028" type="line"/>
      <point x="957" y="1028" type="line"/>
    </contour>
  </outline>
</glyph>
<glyph name="paragraph" format="1">
  <advance width="1044"/>
  <unicode hex="00B6"/>
  <outline>
    <contour>
      <point x="749" y="0" type="line"/>
      <point x="749" y="1456" type="line"/>
      <point x="570" y="1456" type="line" smooth="yes"/>
      <point x="251" y="1456"/>
      <point x="78" y="1256"/>
      <point x="78" y="988" type="curve" smooth="yes"/>
      <point x="78" y="718"/>
      <point x="251" y="520"/>
      <point x="570" y="520" type="curve" smooth="yes"/>
      <point x="695" y="520" type="line"/>
      <point x="695" y="0" type="line"/>
    </contour>
    <contour>
      <point x="695" y="0" type="line"/>
      <point x="695" y="54" type="line"/>
      <point x="532" y="54" type="line"/>
      <point x="532" y="0" type="line"/>
    </contour>
    <contour>
      <point x="749" y="0" type="line"/>
      <point x="912" y="0" type="line"/>
      <point x="912" y="54" type="line"/>
      <point x="749" y="54" type="line"/>
    </contour>
    <contour>
      <point x="749" y="1456" type="line"/>
      <point x="749" y="1402" type="line"/>
      <point x="912" y="1402" type="line"/>
      <point x="912" y="1456" type="line"/>
    </contour>
  </outline>
</glyph>
<glyph name="cedilla" format="1">
  <advance width="470"/>
  <unicode hex="00B8"/>
  <outline>
    <contour>
      <point x="176" y="0" type="line"/>
      <point x="151" y="-121" type="line"/>
      <point x="303" y="-134"/>
      <point x="360" y="-157"/>
      <point x="360" y="-245" type="curve" smooth="yes"/>
      <point x="360" y="-344"/>
      <point x="229" y="-386"/>
      <point x="103" y="-386" type="curve"/>
      <point x="110" y="-435" type="line"/>
      <point x="311" y="-435"/>
      <point x="415" y="-359"/>
      <point x="415" y="-245" type="curve" smooth="yes"/>
      <point x="415" y="-124"/>
      <point x="328" y="-85"/>
      <point x="218" y="-76" type="curve"/>
      <point x="229" y="0" type="line"/>
    </contour>
  </outline>
</glyph>
<glyph name="guillemotright" format="1">
  <advance width="897"/>
  <unicode hex="00BB"/>
  <outline>
    <contour>
      <point x="105" y="171" type="line"/>
      <point x="175" y="171" type="line"/>
      <point x="469" y="541" type="line"/>
      <point x="469" y="554" type="line"/>
      <point x="402" y="555" type="line"/>
    </contour>
    <contour>
      <point x="105" y="940" type="line"/>
      <point x="402" y="546" type="line"/>
      <point x="469" y="547" type="line"/>
      <point x="469" y="560" type="line"/>
      <point x="175" y="940" type="line"/>
    </contour>
    <contour>
      <point x="395" y="171" type="line"/>
      <point x="465" y="171" type="line"/>
      <point x="759" y="541" type="line"/>
      <point x="759" y="554" type="line"/>
      <point x="692" y="555" type="line"/>
    </contour>
    <contour>
      <point x="395" y="940" type="line"/>
      <point x="692" y="546" type="line"/>
      <point x="759" y="547" type="line"/>
      <point x="759" y="560" type="line"/>
      <point x="465" y="940" type="line"/>
    </contour>
  </outline>
</glyph>
<glyph name="onequarter" format="1">
  <advance width="1533"/>
  <unicode hex="00BC"/>
  <outline>
    <contour>
      <point x="370" y="1476" type="line"/>
      <point x="150" y="1453" type="line"/>
      <point x="150" y="1397" type="line"/>
      <point x="316" y="1411" type="line"/>
      <point x="316" y="664" type="line"/>
      <point x="370" y="664" type="line"/>
    </contour>
    <contour>
      <point x="1049" y="1277" type="line"/>
      <point x="1004" y="1308" type="line"/>
      <point x="293" y="170" type="line"/>
      <point x="338" y="139" type="line"/>
    </contour>
    <contour>
      <point x="1421" y="241" type="line"/>
      <point x="831" y="241" type="line"/>
      <point x="1148" y="664" type="line"/>
      <point x="1231" y="801" type="line"/>
      <point x="1183" y="801" type="line"/>
      <point x="748" y="222" type="line"/>
      <point x="748" y="186" type="line"/>
      <point x="1421" y="186" type="line"/>
    </contour>
    <contour>
      <point x="1245" y="801" type="line"/>
      <point x="1190" y="801" type="line"/>
      <point x="1190" y="0" type="line"/>
      <point x="1245" y="0" type="line"/>
    </contour>
  </outline>
</glyph>
<glyph name="threequarters" format="1">
  <advance width="1653"/>
  <unicode hex="00BE"/>
  <outline>
    <contour>
      <point x="1276" y="1277" type="line"/>
      <point x="1231" y="1308" type="line"/>
      <point x="520" y="170" type="line"/>
      <point x="565" y="139" type="line"/>
    </contour>
    <contour>
      <point x="1646" y="241" type="line"/>
      <point x="1056" y="241" type="line"/>
      <point x="1373" y="664" type="line"/>
      <point x="1456" y="801" type="line"/>
      <point x="1408" y="801" type="line"/>
      <point x="973" y="222" type="line"/>
      <point x="973" y="186" type="line"/>
      <point x="1646" y="186" type="line"/>
    </contour>
    <contour>
      <point x="1470" y="801" type="line"/>
      <point x="1415" y="801" type="line"/>
      <point x="1415" y="0" type="line"/>
      <point x="1470" y="0" type="line"/>
    </contour>
    <contour>
      <point x="410" y="1057" type="line" smooth="yes"/>
      <point x="576" y="1057"/>
      <point x="671" y="1147"/>
      <point x="671" y="1258" type="curve" smooth="yes"/>
      <point x="671" y="1402"/>
      <point x="568" y="1479"/>
      <point x="407" y="1479" type="curve" smooth="yes"/>
      <point x="261" y="1479"/>
      <point x="138" y="1395"/>
      <point x="138" y="1259" type="curve"/>
      <point x="193" y="1259" type="line"/>
      <point x="193" y="1360"/>
      <point x="288" y="1424"/>
      <point x="407" y="1424" type="curve" smooth="yes"/>
      <point x="553" y="1424"/>
      <point x="616" y="1354"/>
      <point x="616" y="1261" type="curve" smooth="yes"/>
      <point x="616" y="1165"/>
      <point x="556" y="1104"/>
      <point x="408" y="1104" type="curve" smooth="yes"/>
      <point x="294" y="1104" type="line"/>
      <point x="294" y="1057" type="line"/>
    </contour>
    <contour>
      <point x="294" y="1092" type="line"/>
      <point x="294" y="1048" type="line"/>
      <point x="408" y="1048" type="line" smooth="yes"/>
      <point x="553" y="1048"/>
      <point x="629" y="999"/>
      <point x="629" y="882" type="curve" smooth="yes"/>
      <point x="629" y="777"/>
      <point x="550" y="711"/>
      <point x="407" y="711" type="curve" smooth="yes"/>
      <point x="271" y="711"/>
      <point x="181" y="787"/>
      <point x="181" y="889" type="curve"/>
      <point x="124" y="889" type="line"/>
      <point x="124" y="727"/>
      <point x="269" y="656"/>
      <point x="407" y="656" type="curve" smooth="yes"/>
      <point x="568" y="656"/>
      <point x="685" y="739"/>
      <point x="685" y="884" type="curve" smooth="yes"/>
      <point x="685" y="1019"/>
      <point x="593" y="1092"/>
      <point x="410" y="1092" type="curve" smooth="yes"/>
    </contour>
  </outline>
</glyph>
<glyph name="AE" format="1">
  <advance width="2026"/>
  <unicode hex="00C6"/>
  <outline>
    <contour>
      <point x="983" y="1298" type="line"/>
      <point x="1068" y="1456" type="line"/>
      <point x="1019" y="1456" type="line"/>
      <point x="138" y="0" type="line"/>
      <point x="203" y="0" type="line"/>
    </contour>
    <contour>
      <point x="1091" y="478" type="line"/>
      <point x="442" y="478" type="line"/>
      <point x="442" y="425" type="line"/>
      <point x="1091" y="425" type="line"/>
    </contour>
    <contour>
      <point x="1856" y="54" type="line"/>
      <point x="1123" y="54" type="line"/>
      <point x="1123" y="0" type="line"/>
      <point x="1856" y="0" type="line"/>
    </contour>
    <contour>
      <point x="1097" y="1456" type="line"/>
      <point x="1043" y="1456" type="line"/>
      <point x="1104" y="0" type="line"/>
      <point x="1158" y="0" type="line"/>
    </contour>
    <contour>
      <point x="1713" y="786" type="line"/>
      <point x="1083" y="786" type="line"/>
      <point x="1083" y="732" type="line"/>
      <point x="1713" y="732" type="line"/>
    </contour>
    <contour>
      <point x="1795" y="1456" type="line"/>
      <point x="1062" y="1456" type="line"/>
      <point x="1062" y="1402" type="line"/>
      <point x="1795" y="1402" type="line"/>
    </contour>
    <contour>
      <point x="1104" y="0" type="line"/>
      <point x="1104" y="54" type="line"/>
      <point x="941" y="54" type="line"/>
      <point x="941" y="0" type="line"/>
    </contour>
    <contour>
      <point x="203" y="0" type="line"/>
      <point x="366" y="0" type="line"/>
      <point x="366" y="54" type="line"/>
      <point x="203" y="54" type="line"/>
    </contour>
    <contour>
      <point x="1795" y="1456" type="line"/>
      <point x="1741" y="1456" type="line"/>
      <point x="1741" y="1163" type="line"/>
      <point x="1795" y="1163" type="line"/>
    </contour>
    <contour>
      <point x="1856" y="0" type="line"/>
      <point x="1856" y="293" type="line"/>
      <point x="1802" y="293" type="line"/>
      <point x="1802" y="0" type="line"/>
    </contour>
    <contour>
      <point x="138" y="0" type="line"/>
      <point x="202" y="54" type="line"/>
      <point x="51" y="54" type="line"/>
      <point x="51" y="0" type="line"/>
    </contour>
  </outline>
</glyph>
<glyph name="Oslash" format="1">
  <advance width="1411"/>
  <unicode hex="00D8"/>
  <outline>
    <contour>
      <point x="1251" y="1495" type="line"/>
      <point x="1185" y="1495" type="line"/>
      <point x="188" y="-75" type="line"/>
      <point x="254" y="-75" type="line"/>
    </contour>
    <contour>
      <point x="1338" y="737" type="line" smooth="yes"/>
      <point x="1338" y="1187"/>
      <point x="1088" y="1477"/>
      <point x="728" y="1477" type="curve" smooth="yes"/>
      <point x="369" y="1477"/>
      <point x="120" y="1187"/>
      <point x="120" y="737" type="curve" smooth="yes"/>
      <point x="120" y="719" type="line" smooth="yes"/>
      <point x="120" y="269"/>
      <point x="371" y="-21"/>
      <point x="730" y="-21" type="curve" smooth="yes"/>
      <point x="1090" y="-21"/>
      <point x="1338" y="269"/>
      <point x="1338" y="719" type="curve" smooth="yes"/>
    </contour>
    <contour>
      <point x="1284" y="719" type="line" smooth="yes"/>
      <point x="1284" y="306"/>
      <point x="1069" y="33"/>
      <point x="730" y="33" type="curve" smooth="yes"/>
      <point x="393" y="33"/>
      <point x="175" y="306"/>
      <point x="175" y="719" type="curve" smooth="yes"/>
      <point x="175" y="739" type="line" smooth="yes"/>
      <point x="175" y="1150"/>
      <point x="391" y="1423"/>
      <point x="728" y="1423" type="curve" smooth="yes"/>
      <point x="1067" y="1423"/>
      <point x="1284" y="1150"/>
      <point x="1284" y="739" type="curve" smooth="yes"/>
    </contour>
  </outline>
</glyph>
<glyph name="germandbls" format="1">
  <advance width="1243"/>
  <unicode hex="00DF"/>
  <outline>
    <contour>
      <point x="272" y="1082" type="line" smooth="yes"/>
      <point x="272" y="1307"/>
      <point x="395" y="1420"/>
      <point x="567" y="1420" type="curve" smooth="yes"/>
      <point x="680" y="1420"/>
      <point x="789" y="1333"/>
      <point x="789" y="1208" type="curve" smooth="yes"/>
      <point x="789" y="1029"/>
      <point x="676" y="1007"/>
      <point x="676" y="802" type="curve" smooth="yes"/>
      <point x="676" y="556"/>
      <point x="1062" y="516"/>
      <point x="1062" y="286" type="curve" smooth="yes"/>
      <point x="1062" y="139"/>
      <point x="929" y="32"/>
      <point x="741" y="32" type="curve" smooth="yes"/>
      <point x="635" y="32"/>
      <point x="515" y="75"/>
      <point x="462" y="117" type="curve"/>
      <point x="437" y="68" type="line"/>
      <point x="491" y="20"/>
      <point x="633" y="-21"/>
      <point x="749" y="-21" type="curve" smooth="yes"/>
      <point x="913" y="-21"/>
      <point x="1116" y="75"/>
      <point x="1116" y="277" type="curve" smooth="yes"/>
      <point x="1116" y="558"/>
      <point x="730" y="601"/>
      <point x="730" y="800" type="curve" smooth="yes"/>
      <point x="730" y="997"/>
      <point x="849" y="1006"/>
      <point x="849" y="1206" type="curve" smooth="yes"/>
      <point x="849" y="1374"/>
      <point x="715" y="1474"/>
      <point x="557" y="1474" type="curve" smooth="yes"/>
      <point x="345" y="1474"/>
      <point x="218" y="1335"/>
      <point x="218" y="1082" type="curve" smooth="yes"/>
      <point x="218" y="0" type="line"/>
      <point x="272" y="0" type="line"/>
    </contour>
    <contour>
      <point x="218" y="0" type="line"/>
      <point x="218" y="54" type="line"/>
      <point x="55" y="54" type="line"/>
      <point x="55" y="0" type="line"/>
    </contour>
  </outline>
</glyph>
<glyph name="Hbar" format="1">
  <advance width="1451"/>
  <unicode hex="0126"/>
  <outline>
    <contour>
      <point x="1381" y="1081" type="line"/>
      <point x="49" y="1081" type="line"/>
      <point x="49" y="1028" type="line"/>
      <point x="1381" y="1028" type="line"/>
    </contour>
    <contour>
      <point x="1215" y="749" type="line"/>
      <point x="235" y="749" type="line"/>
      <point x="235" y="695" type="line"/>
      <point x="1215" y="695" type="line"/>
    </contour>
    <contour>
      <point x="262" y="1456" type="line"/>
      <point x="208" y="1456" type="line"/>
      <point x="208" y="0" type="line"/>
      <point x="262" y="0" type="line"/>
    </contour>
    <contour>
      <point x="1246" y="1456" type="line"/>
      <point x="1192" y="1456" type="line"/>
      <point x="1192" y="0" type="line"/>
      <point x="1246" y="0" type="line"/>
    </contour>
    <contour>
      <point x="1246" y="1456" type="line"/>
      <point x="1246" y="1402" type="line"/>
      <point x="1409" y="1402" type="line"/>
      <point x="1409" y="1456" type="line"/>
    </contour>
    <contour>
      <point x="1192" y="1456" type="line"/>
      <point x="1029" y="1456" type="line"/>
      <point x="1029" y="1402" type="line"/>
      <point x="1192" y="1402" type="line"/>
    </contour>
    <contour>
      <point x="1192" y="0" type="line"/>
      <point x="1192" y="54" type="line"/>
      <point x="1029" y="54" type="line"/>
      <point x="1029" y="0" type="line"/>
    </contour>
    <contour>
      <point x="1246" y="0" type="line"/>
      <point x="1409" y="0" type="line"/>
      <point x="1409" y="54" type="line"/>
      <point x="1246" y="54" type="line"/>
    </contour>
    <contour>
      <point x="262" y="0" type="line"/>
      <point x="425" y="0" type="line"/>
      <point x="425" y="54" type="line"/>
      <point x="262" y="54" type="line"/>
    </contour>
    <contour>
      <point x="208" y="0" type="line"/>
      <point x="208" y="54" type="line"/>
      <point x="45" y="54" type="line"/>
      <point x="45" y="0" type="line"/>
    </contour>
    <contour>
      <point x="208" y="1456" type="line"/>
      <point x="45" y="1456" type="line"/>
      <point x="45" y="1402" type="line"/>
      <point x="208" y="1402" type="line"/>
    </contour>
    <contour>
      <point x="262" y="1456" type="line"/>
      <point x="262" y="1402" type="line"/>
      <point x="425" y="1402" type="line"/>
      <point x="425" y="1456" type="line"/>
    </contour>
  </outline>
</glyph>
<glyph name="lslash" format="1">
  <advance width="524"/>
  <unicode hex="0142"/>
  <outline>
    <contour>
      <point x="497" y="930" type="line"/>
      <point x="37" y="743" type="line"/>
      <point x="37" y="684" type="line"/>
      <point x="497" y="871" type="line"/>
    </contour>
    <contour>
      <point x="279" y="1560" type="line"/>
      <point x="225" y="1560" type="line"/>
      <point x="225" y="0" type="line"/>
      <point x="279" y="0" type="line"/>
    </contour>
    <contour>
      <point x="225" y="0" type="line"/>
      <point x="225" y="54" type="line"/>
      <point x="62" y="54" type="line"/>
      <point x="62" y="0" type="line"/>
    </contour>
    <contour>
      <point x="279" y="0" type="line"/>
      <point x="442" y="0" type="line"/>
      <point x="442" y="54" type="line"/>
      <point x="279" y="54" type="line"/>
    </contour>
    <contour>
      <point x="225" y="1560" type="line"/>
      <point x="62" y="1560" type="line"/>
      <point x="62" y="1506" type="line"/>
      <point x="225" y="1506" type="line"/>
    </contour>
  </outline>
</glyph>
<glyph name="oe" format="1">
  <advance width="1932"/>
  <unicode hex="0153"/>
  <outline>
    <contour>
      <point x="1456" y="-21" type="curve" smooth="yes"/>
      <point x="1627" y="-21"/>
      <point x="1745" y="32"/>
      <point x="1827" y="123" type="curve"/>
      <point x="1798" y="165" type="line"/>
      <point x="1725" y="81"/>
      <point x="1624" y="33"/>
      <point x="1456" y="33" type="curve" smooth="yes"/>
      <point x="1229" y="33"/>
      <point x="1056" y="241"/>
      <point x="1056" y="500" type="curve" smooth="yes"/>
      <point x="1056" y="564" type="line" smooth="yes"/>
      <point x="1056" y="832"/>
      <point x="1214" y="1048"/>
      <point x="1453" y="1048" type="curve" smooth="yes"/>
      <point x="1670" y="1048"/>
      <point x="1813" y="881"/>
      <point x="1813" y="664" type="curve" smooth="yes"/>
      <point x="1813" y="631" type="line"/>
      <point x="1037" y="631" type="line"/>
      <point x="1037" y="577" type="line"/>
      <point x="1867" y="577" type="line"/>
      <point x="1867" y="660" type="line" smooth="yes"/>
      <point x="1867" y="935"/>
      <point x="1693" y="1102"/>
      <point x="1453" y="1102" type="curve" smooth="yes"/>
      <point x="1203" y="1102"/>
      <point x="1002" y="880"/>
      <point x="1002" y="564" type="curve" smooth="yes"/>
      <point x="1002" y="500" type="line" smooth="yes"/>
      <point x="1002" y="198"/>
      <point x="1216" y="-21"/>
    </contour>
    <contour>
      <point x="104" y="520" type="line" smooth="yes"/>
      <point x="104" y="203"/>
      <point x="297" y="-21"/>
      <point x="579" y="-21" type="curve" smooth="yes"/>
      <point x="860" y="-21"/>
      <point x="1051" y="203"/>
      <point x="1051" y="520" type="curve" smooth="yes"/>
      <point x="1051" y="562" type="line" smooth="yes"/>
      <point x="1051" y="879"/>
      <point x="860" y="1102"/>
      <point x="577" y="1102" type="curve" smooth="yes"/>
      <point x="297" y="1102"/>
      <point x="104" y="879"/>
      <point x="104" y="562" type="curve" smooth="yes"/>
    </contour>
    <contour>
      <point x="158" y="562" type="line" smooth="yes"/>
      <point x="158" y="815"/>
      <point x="313" y="1048"/>
      <point x="577" y="1048" type="curve" smooth="yes"/>
      <point x="842" y="1048"/>
      <point x="997" y="815"/>
      <point x="997" y="562" type="curve" smooth="yes"/>
      <point x="997" y="520" type="line" smooth="yes"/>
      <point x="997" y="261"/>
      <point x="842" y="33"/>
      <point x="579" y="33" type="curve" smooth="yes"/>
      <point x="313" y="33"/>
      <point x="158" y="261"/>
      <point x="158" y="520" type="curve" smooth="yes"/>
    </contour>
  </outline>
</glyph>
<glyph name="florin" format="1">
  <advance width="780"/>
  <unicode hex="0192"/>
  <outline>
    <contour>
      <point x="680" y="1082" type="line"/>
      <point x="394" y="1082" type="line"/>
      <point x="394" y="1260" type="line" smooth="yes"/>
      <point x="394" y="1429"/>
      <point x="482" y="1527"/>
      <point x="624" y="1527" type="curve" smooth="yes"/>
      <point x="678" y="1527"/>
      <point x="705" y="1522"/>
      <point x="743" y="1512" type="curve"/>
      <point x="751" y="1564" type="line"/>
      <point x="709" y="1577"/>
      <point x="664" y="1581"/>
      <point x="623" y="1581" type="curve" smooth="yes"/>
      <point x="447" y="1581"/>
      <point x="340" y="1467"/>
      <point x="340" y="1260" type="curve" smooth="yes"/>
      <point x="340" y="1082" type="line"/>
      <point x="152" y="1082" type="line"/>
      <point x="152" y="1027" type="line"/>
      <point x="340" y="1027" type="line"/>
      <point x="340" y="-89" type="line" smooth="yes"/>
      <point x="340" y="-277"/>
      <point x="257" y="-383"/>
      <point x="109" y="-383" type="curve" smooth="yes"/>
      <point x="72" y="-383"/>
      <point x="31" y="-373"/>
      <point x="10" y="-365" type="curve"/>
      <point x="-3" y="-417" type="line"/>
      <point x="36" y="-430"/>
      <point x="68" y="-437"/>
      <point x="109" y="-437" type="curve" smooth="yes"/>
      <point x="288" y="-437"/>
      <point x="394" y="-314"/>
      <point x="394" y="-89" type="curve" smooth="yes"/>
      <point x="394" y="1027" type="line"/>
      <point x="680" y="1027" type="line"/>
    </contour>
  </outline>
</glyph>
<glyph name="ohorn" format="1">
  <advance width="1241"/>
  <unicode hex="01A1"/>
  <outline>
    <contour>
      <point x="1115" y="1196" type="line"/>
      <point x="1115" y="1041"/>
      <point x="1081" y="953"/>
      <point x="897" y="953" type="curve"/>
      <point x="897" y="899" type="line"/>
      <point x="1104" y="899"/>
      <point x="1170" y="1003"/>
      <point x="1170" y="1196" type="curve"/>
    </contour>
    <contour>
      <point x="104" y="520" type="line" smooth="yes"/>
      <point x="104" y="203"/>
      <point x="297" y="-21"/>
      <point x="579" y="-21" type="curve" smooth="yes"/>
      <point x="860" y="-21"/>
      <point x="1051" y="203"/>
      <point x="1051" y="520" type="curve" smooth="yes"/>
      <point x="1051" y="562" type="line" smooth="yes"/>
      <point x="1051" y="879"/>
      <point x="860" y="1102"/>
      <point x="577" y="1102" type="curve" smooth="yes"/>
      <point x="297" y="1102"/>
      <point x="104" y="879"/>
      <point x="104" y="562" type="curve" smooth="yes"/>
    </contour>
    <contour>
      <point x="158" y="562" type="line" smooth="yes"/>
      <point x="158" y="815"/>
      <point x="313" y="1048"/>
      <point x="577" y="1048" type="curve" smooth="yes"/>
      <point x="842" y="1048"/>
      <point x="997" y="815"/>
      <point x="997" y="562" type="curve" smooth="yes"/>
      <point x="997" y="520" type="line" smooth="yes"/>
      <point x="997" y="261"/>
      <point x="842" y="33"/>
      <point x="579" y="33" type="curve" smooth="yes"/>
      <point x="313" y="33"/>
      <point x="158" y="261"/>
      <point x="158" y="520" type="curve" smooth="yes"/>
    </contour>
  </outline>
</glyph>
<glyph name="uhorn" format="1">
  <advance width="1319"/>
  <unicode hex="01B0"/>
  <outline>
    <contour>
      <point x="1201" y="1179" type="line"/>
      <point x="1201" y="1023"/>
      <point x="1167" y="935"/>
      <point x="982" y="935" type="curve"/>
      <point x="982" y="881" type="line"/>
      <point x="1190" y="881"/>
      <point x="1256" y="986"/>
      <point x="1256" y="1179" type="curve"/>
    </contour>
    <contour>
      <point x="944" y="250" type="line"/>
      <point x="954" y="0" type="line"/>
      <point x="999" y="0" type="line"/>
      <point x="999" y="1082" type="line"/>
      <point x="944" y="1082" type="line"/>
    </contour>
    <contour>
      <point x="953" y="443" type="line"/>
      <point x="953" y="236"/>
      <point x="861" y="33"/>
      <point x="569" y="33" type="curve" smooth="yes"/>
      <point x="396" y="33"/>
      <point x="269" y="156"/>
      <point x="269" y="463" type="curve" smooth="yes"/>
      <point x="269" y="1082" type="line"/>
      <point x="215" y="1082" type="line"/>
      <point x="215" y="465" type="line" smooth="yes"/>
      <point x="215" y="121"/>
      <point x="359" y="-21"/>
      <point x="571" y="-21" type="curve" smooth="yes"/>
      <point x="857" y="-21"/>
      <point x="999" y="177"/>
      <point x="999" y="445" type="curve"/>
    </contour>
    <contour>
      <point x="944" y="1082" type="line"/>
      <point x="781" y="1082" type="line"/>
      <point x="781" y="1028" type="line"/>
      <point x="944" y="1028" type="line"/>
    </contour>
    <contour>
      <point x="215" y="1082" type="line"/>
      <point x="72" y="1082" type="line"/>
      <point x="72" y="1028" type="line"/>
      <point x="215" y="1028" type="line"/>
    </contour>
    <contour>
      <point x="999" y="0" type="line"/>
      <point x="1162" y="0" type="line"/>
      <point x="1162" y="54" type="line"/>
      <point x="999" y="54" type="line"/>
    </contour>
  </outline>
</glyph>
<glyph name="circumflex" format="1">
  <advance width="779"/>
  <unicode hex="02C6"/>
  <outline>
    <contour>
      <point x="394" y="1475" type="line"/>
      <point x="314" y="1475" type="line"/>
      <point x="104" y="1269" type="line"/>
      <point x="104" y="1252" type="line"/>
      <point x="170" y="1252" type="line"/>
      <point x="353" y="1438" type="line"/>
      <point x="538" y="1252" type="line"/>
      <point x="608" y="1252" type="line"/>
      <point x="608" y="1265" type="line"/>
    </contour>
  </outline>
</glyph>
<glyph name="caron" format="1">
  <advance width="754"/>
  <unicode hex="02C7"/>
  <outline>
    <contour>
      <point x="161" y="1475" type="line"/>
      <point x="90" y="1475" type="line"/>
      <point x="90" y="1461" type="line"/>
      <point x="304" y="1252" type="line"/>
      <point x="383" y="1252" type="line"/>
      <point x="595" y="1459" type="line"/>
      <point x="595" y="1475" type="line"/>
      <point x="528" y="1475" type="line"/>
      <point x="344" y="1288" type="line"/>
    </contour>
  </outline>
</glyph>
<glyph name="breve" format="1">
  <advance width="819"/>
  <unicode hex="02D8"/>
  <outline>
    <contour>
      <point x="622" y="1456" type="line"/>
      <point x="622" y="1353"/>
      <point x="557" y="1264"/>
      <point x="398" y="1264" type="curve" smooth="yes"/>
      <point x="233" y="1264"/>
      <point x="173" y="1351"/>
      <point x="173" y="1456" type="curve"/>
      <point x="119" y="1456" type="line"/>
      <point x="119" y="1310"/>
      <point x="224" y="1208"/>
      <point x="398" y="1208" type="curve" smooth="yes"/>
      <point x="572" y="1208"/>
      <point x="676" y="1310"/>
      <point x="676" y="1456" type="curve"/>
    </contour>
  </outline>
</glyph>
<glyph name="hungarumlaut" format="1">
  <advance width="866"/>
  <unicode hex="02DD"/>
  <outline>
    <contour>
      <point x="329" y="1252" type="line"/>
      <point x="402" y="1252" type="line"/>
      <point x="700" y="1518" type="line"/>
      <point x="620" y="1518" type="line"/>
    </contour>
    <contour>
      <point x="104" y="1252" type="line"/>
      <point x="173" y="1252" type="line"/>
      <point x="426" y="1518" type="line"/>
      <point x="350" y="1518" type="line"/>
    </contour>
  </outline>
</glyph>
<glyph name="uni02F3" format="1">
  <advance width="429"/>
  <unicode hex="02F3"/>
  <outline>
    <contour>
      <point x="72" y="-239" type="curve" smooth="yes"/>
      <point x="72" y="-304"/>
      <point x="135" y="-365"/>
      <point x="209" y="-365" type="curve" smooth="yes"/>
      <point x="282" y="-365"/>
      <point x="342" y="-304"/>
      <point x="342" y="-239" type="curve" smooth="yes"/>
      <point x="342" y="-174"/>
      <point x="282" y="-109"/>
      <point x="209" y="-109" type="curve" smooth="yes"/>
      <point x="135" y="-109"/>
      <point x="72" y="-174"/>
    </contour>
    <contour>
      <point x="130" y="-239" type="curve" smooth="yes"/>
      <point x="130" y="-203"/>
      <point x="166" y="-167"/>
      <point x="209" y="-167" type="curve" smooth="yes"/>
      <point x="252" y="-167"/>
      <point x="285" y="-203"/>
      <point x="285" y="-239" type="curve" smooth="yes"/>
      <point x="285" y="-274"/>
      <point x="252" y="-309"/>
      <point x="209" y="-309" type="curve" smooth="yes"/>
      <point x="166" y="-309"/>
      <point x="130" y="-274"/>
    </contour>
  </outline>
</glyph>
<glyph name="acutecomb" format="1">
  <advance width="466"/>
  <unicode hex="0301"/>
  <outline>
    <contour>
      <point x="118" y="1220" type="line"/>
      <point x="179" y="1220" type="line"/>
      <point x="338" y="1511" type="line"/>
      <point x="271" y="1511" type="line"/>
    </contour>
  </outline>
</glyph>
<glyph name="uni030F" format="1">
  <advance width="866"/>
  <unicode hex="030F"/>
  <outline>
    <contour>
      <point x="160" y="1518" type="line"/>
      <point x="80" y="1518" type="line"/>
      <point x="378" y="1252" type="line"/>
      <point x="451" y="1252" type="line"/>
    </contour>
    <contour>
      <point x="430" y="1518" type="line"/>
      <point x="354" y="1518" type="line"/>
      <point x="607" y="1252" type="line"/>
      <point x="676" y="1252" type="line"/>
    </contour>
  </outline>
</glyph>
<glyph name="dotbelow" format="1">
  <advance width="333"/>
  <unicode hex="0323"/>
  <outline>
    <contour>
      <point x="212" y="-157" type="line"/>
      <point x="117" y="-157" type="line"/>
      <point x="117" y="-295" type="line"/>
      <point x="212" y="-295" type="line"/>
    </contour>
  </outline>
</glyph>
<glyph name="Gamma" format="1">
  <advance width="1203"/>
  <unicode hex="0393"/>
  <outline>
    <contour>
      <point x="1102" y="1456" type="line"/>
      <point x="240" y="1456" type="line"/>
      <point x="240" y="0" type="line"/>
      <point x="294" y="0" type="line"/>
      <point x="294" y="1402" type="line"/>
      <point x="1102" y="1402" type="line"/>
    </contour>
    <contour>
      <point x="240" y="0" type="line"/>
      <point x="240" y="54" type="line"/>
      <point x="77" y="54" type="line"/>
      <point x="77" y="0" type="line"/>
    </contour>
    <contour>
      <point x="294" y="0" type="line"/>
      <point x="457" y="0" type="line"/>
      <point x="457" y="54" type="line"/>
      <point x="294" y="54" type="line"/>
    </contour>
    <contour>
      <point x="1102" y="1456" type="line"/>
      <point x="1048" y="1456" type="line"/>
      <point x="1048" y="1163" type="line"/>
      <point x="1102" y="1163" type="line"/>
    </contour>
    <contour>
      <point x="240" y="1456" type="line"/>
      <point x="77" y="1456" type="line"/>
      <point x="77" y="1402" type="line"/>
      <point x="240" y="1402" type="line"/>
    </contour>
  </outline>
</glyph>
<glyph name="Delta" format="1">
  <advance width="1404"/>
  <unicode hex="0394"/>
  <outline>
    <contour>
      <point x="649" y="1325" type="line"/>
      <point x="698" y="1456" type="line"/>
      <point x="647" y="1456" type="line"/>
      <point x="31" y="0" type="line"/>
      <point x="90" y="0" type="line"/>
    </contour>
    <contour>
      <point x="1269" y="0" type="line"/>
      <point x="1329" y="0" type="line"/>
      <point x="712" y="1456" type="line"/>
      <point x="660" y="1456" type="line"/>
      <point x="709" y="1325" type="line"/>
    </contour>
    <contour>
      <point x="1277" y="54" type="line"/>
      <point x="72" y="54" type="line"/>
      <point x="72" y="0" type="line"/>
      <point x="1277" y="0" type="line"/>
    </contour>
  </outline>
</glyph>
<glyph name="Lambda" format="1">
  <advance width="1435"/>
  <unicode hex="039B"/>
  <outline>
    <contour>
      <point x="675" y="1304" type="line"/>
      <point x="724" y="1456" type="line"/>
      <point x="673" y="1456" type="line"/>
      <point x="139" y="0" type="line"/>
      <point x="198" y="0" type="line"/>
    </contour>
    <contour>
      <point x="1214" y="0" type="line"/>
      <point x="1273" y="0" type="line"/>
      <point x="738" y="1456" type="line"/>
      <point x="686" y="1456" type="line"/>
      <point x="735" y="1304" type="line"/>
    </contour>
    <contour>
      <point x="198" y="0" type="line"/>
      <point x="361" y="0" type="line"/>
      <point x="361" y="54" type="line"/>
      <point x="198" y="54" type="line"/>
    </contour>
    <contour>
      <point x="139" y="0" type="line"/>
      <point x="203" y="54" type="line"/>
      <point x="52" y="54" type="line"/>
      <point x="52" y="0" type="line"/>
    </contour>
    <contour>
      <point x="1273" y="0" type="line"/>
      <point x="1360" y="0" type="line"/>
      <point x="1360" y="54" type="line"/>
      <point x="1209" y="54" type="line"/>
    </contour>
    <contour>
      <point x="1214" y="0" type="line"/>
      <point x="1214" y="54" type="line"/>
      <point x="1051" y="54" type="line"/>
      <point x="1051" y="0" type="line"/>
    </contour>
  </outline>
</glyph>
<glyph name="Xi" format="1">
  <advance width="1208"/>
  <unicode hex="039E"/>
  <outline>
    <contour>
      <point x="93" y="0" type="line"/>
      <point x="1118" y="0" type="line"/>
      <point x="1118" y="54" type="line"/>
      <point x="93" y="54" type="line"/>
    </contour>
    <contour>
      <point x="301" y="687" type="line"/>
      <point x="902" y="687" type="line"/>
      <point x="902" y="741" type="line"/>
      <point x="301" y="741" type="line"/>
    </contour>
    <contour>
      <point x="114" y="1403" type="line"/>
      <point x="1079" y="1403" type="line"/>
      <point x="1079" y="1456" type="line"/>
      <point x="114" y="1456" type="line"/>
    </contour>
    <contour>
      <point x="1079" y="1456" type="line"/>
      <point x="1025" y="1456" type="line"/>
      <point x="1025" y="1163" type="line"/>
      <point x="1079" y="1163" type="line"/>
    </contour>
    <contour>
      <point x="114" y="1456" type="line"/>
      <point x="114" y="1163" type="line"/>
      <point x="168" y="1163" type="line"/>
      <point x="168" y="1456" type="line"/>
    </contour>
    <contour>
      <point x="93" y="0" type="line"/>
      <point x="147" y="0" type="line"/>
      <point x="147" y="293" type="line"/>
      <point x="93" y="293" type="line"/>
    </contour>
    <contour>
      <point x="1118" y="0" type="line"/>
      <point x="1118" y="293" type="line"/>
      <point x="1064" y="293" type="line"/>
      <point x="1064" y="0" type="line"/>
    </contour>
  </outline>
</glyph>
<glyph name="Sigma" format="1">
  <advance width="1167"/>
  <unicode hex="03A3"/>
  <outline>
    <contour>
      <point x="1071" y="54" type="line"/>
      <point x="95" y="54" type="line"/>
      <point x="95" y="0" type="line"/>
      <point x="1071" y="0" type="line"/>
    </contour>
    <contour>
      <point x="1011" y="1456" type="line"/>
      <point x="118" y="1456" type="line"/>
      <point x="118" y="1403" type="line"/>
      <point x="1011" y="1403" type="line"/>
    </contour>
    <contour>
      <point x="678" y="815" type="line"/>
      <point x="116" y="1456" type="line"/>
      <point x="79" y="1456" type="line"/>
      <point x="79" y="1412" type="line"/>
      <point x="626" y="787" type="line"/>
      <point x="79" y="44" type="line"/>
      <point x="79" y="0" type="line"/>
      <point x="116" y="0" type="line"/>
      <point x="678" y="768" type="line"/>
    </contour>
    <contour>
      <point x="1071" y="0" type="line"/>
      <point x="1071" y="293" type="line"/>
      <point x="1017" y="293" type="line"/>
      <point x="1017" y="0" type="line"/>
    </contour>
    <contour>
      <point x="1011" y="1456" type="line"/>
      <point x="957" y="1456" type="line"/>
      <point x="957" y="1163" type="line"/>
      <point x="1011" y="1163" type="line"/>
    </contour>
  </outline>
</glyph>
<glyph name="alpha" format="1">
  <advance width="1201"/>
  <unicode hex="03B1"/>
  <outline>
    <contour>
      <point x="104" y="521" type="line" smooth="yes"/>
      <point x="104" y="191"/>
      <point x="254" y="-21"/>
      <point x="510" y="-21" type="curve" smooth="yes"/>
      <point x="753" y="-21"/>
      <point x="890" y="160"/>
      <point x="924" y="364" type="curve"/>
      <point x="924" y="685" type="line"/>
      <point x="876" y="921"/>
      <point x="747" y="1102"/>
      <point x="512" y="1102" type="curve" smooth="yes"/>
      <point x="255" y="1102"/>
      <point x="104" y="883"/>
      <point x="104" y="542" type="curve" smooth="yes"/>
    </contour>
    <contour>
      <point x="160" y="542" type="line" smooth="yes"/>
      <point x="160" y="829"/>
      <point x="273" y="1048"/>
      <point x="511" y="1048" type="curve" smooth="yes"/>
      <point x="756" y="1048"/>
      <point x="859" y="807"/>
      <point x="888" y="649" type="curve"/>
      <point x="888" y="389" type="line"/>
      <point x="852" y="193"/>
      <point x="736" y="33"/>
      <point x="509" y="33" type="curve" smooth="yes"/>
      <point x="273" y="33"/>
      <point x="160" y="233"/>
      <point x="160" y="521" type="curve" smooth="yes"/>
    </contour>
    <contour>
      <point x="884" y="1082" type="line"/>
      <point x="878" y="854" type="line"/>
      <point x="878" y="255" type="line" smooth="yes"/>
      <point x="878" y="56"/>
      <point x="936" y="-21"/>
      <point x="1058" y="-21" type="curve" smooth="yes"/>
      <point x="1082" y="-21"/>
      <point x="1107" y="-19"/>
      <point x="1131" y="-7" type="curve"/>
      <point x="1120" y="42" type="line"/>
      <point x="1098" y="37"/>
      <point x="1080" y="32"/>
      <point x="1055" y="32" type="curve" smooth="yes"/>
      <point x="983" y="32"/>
      <point x="932" y="83"/>
      <point x="932" y="255" type="curve" smooth="yes"/>
      <point x="932" y="1082" type="line"/>
    </contour>
  </outline>
</glyph>
<glyph name="beta" format="1">
  <advance width="1146"/>
  <unicode hex="03B2"/>
  <outline>
    <contour>
      <point x="426" y="784" type="line"/>
      <point x="426" y="735" type="line"/>
      <point x="569" y="735" type="line" smooth="yes"/>
      <point x="832" y="735"/>
      <point x="974" y="601"/>
      <point x="974" y="381" type="curve" smooth="yes"/>
      <point x="974" y="164"/>
      <point x="840" y="33"/>
      <point x="584" y="33" type="curve" smooth="yes"/>
      <point x="369" y="33"/>
      <point x="180" y="162"/>
      <point x="180" y="338" type="curve"/>
      <point x="143" y="318" type="line"/>
      <point x="143" y="87"/>
      <point x="396" y="-21"/>
      <point x="584" y="-21" type="curve" smooth="yes"/>
      <point x="848" y="-21"/>
      <point x="1029" y="127"/>
      <point x="1029" y="385" type="curve" smooth="yes"/>
      <point x="1029" y="608"/>
      <point x="882" y="784"/>
      <point x="573" y="784" type="curve" smooth="yes"/>
    </contour>
    <contour>
      <point x="533" y="1477" type="curve" smooth="yes"/>
      <point x="322" y="1477"/>
      <point x="145" y="1302"/>
      <point x="145" y="1054" type="curve" smooth="yes"/>
      <point x="145" y="-413" type="line"/>
      <point x="199" y="-413" type="line"/>
      <point x="199" y="1054" type="line" smooth="yes"/>
      <point x="199" y="1269"/>
      <point x="347" y="1423"/>
      <point x="533" y="1423" type="curve" smooth="yes"/>
      <point x="767" y="1423"/>
      <point x="870" y="1264"/>
      <point x="870" y="1108" type="curve" smooth="yes"/>
      <point x="870" y="913"/>
      <point x="771" y="791"/>
      <point x="529" y="791" type="curve" smooth="yes"/>
      <point x="426" y="791" type="line"/>
      <point x="426" y="738" type="line"/>
      <point x="533" y="738" type="line" smooth="yes"/>
      <point x="786" y="738"/>
      <point x="924" y="903"/>
      <point x="924" y="1103" type="curve" smooth="yes"/>
      <point x="924" y="1321"/>
      <point x="771" y="1477"/>
    </contour>
  </outline>
</glyph>
<glyph name="gamma" format="1">
  <advance width="1084"/>
  <unicode hex="03B3"/>
  <outline>
    <contour>
      <point x="586" y="69" type="line"/>
      <point x="532" y="69" type="line"/>
      <point x="532" y="-415" type="line"/>
      <point x="586" y="-415" type="line"/>
    </contour>
    <contour>
      <point x="614" y="229" type="line"/>
      <point x="533" y="0" type="line"/>
      <point x="584" y="0" type="line"/>
      <point x="1005" y="1082" type="line"/>
      <point x="947" y="1082" type="line"/>
    </contour>
    <contour>
      <point x="271" y="904" type="line" smooth="yes"/>
      <point x="224" y="1043"/>
      <point x="169" y="1091"/>
      <point x="69" y="1091" type="curve" smooth="yes"/>
      <point x="26" y="1091"/>
      <point x="-8" y="1076"/>
      <point x="-30" y="1063" type="curve"/>
      <point x="-11" y="1022" type="line"/>
      <point x="2" y="1030"/>
      <point x="34" y="1044"/>
      <point x="73" y="1044" type="curve" smooth="yes"/>
      <point x="127" y="1044"/>
      <point x="173" y="1035"/>
      <point x="227" y="879" type="curve" smooth="yes"/>
      <point x="532" y="0" type="line"/>
      <point x="584" y="0" type="line"/>
      <point x="508" y="229" type="line"/>
    </contour>
    <contour>
      <point x="947" y="1082" type="line"/>
      <point x="784" y="1082" type="line"/>
      <point x="784" y="1028" type="line"/>
      <point x="947" y="1028" type="line"/>
    </contour>
    <contour>
      <point x="1005" y="1082" type="line"/>
      <point x="941" y="1028" type="line"/>
      <point x="1092" y="1028" type="line"/>
      <point x="1092" y="1082" type="line"/>
    </contour>
  </outline>
</glyph>
<glyph name="theta" format="1">
  <advance width="1143"/>
  <unicode hex="03B8"/>
  <outline>
    <contour>
      <point x="999" y="749" type="line"/>
      <point x="171" y="749" type="line"/>
      <point x="171" y="695" type="line"/>
      <point x="999" y="695" type="line"/>
    </contour>
    <contour>
      <point x="1015" y="882" type="line" smooth="yes"/>
      <point x="1015" y="1262"/>
      <point x="852" y="1477"/>
      <point x="571" y="1477" type="curve" smooth="yes"/>
      <point x="291" y="1477"/>
      <point x="128" y="1262"/>
      <point x="128" y="882" type="curve" smooth="yes"/>
      <point x="128" y="574" type="line" smooth="yes"/>
      <point x="128" y="194"/>
      <point x="294" y="-21"/>
      <point x="573" y="-21" type="curve" smooth="yes"/>
      <point x="855" y="-21"/>
      <point x="1015" y="194"/>
      <point x="1015" y="574" type="curve" smooth="yes"/>
    </contour>
    <contour>
      <point x="961" y="576" type="line" smooth="yes"/>
      <point x="961" y="248"/>
      <point x="831" y="33"/>
      <point x="573" y="33" type="curve" smooth="yes"/>
      <point x="316" y="33"/>
      <point x="182" y="248"/>
      <point x="182" y="576" type="curve" smooth="yes"/>
      <point x="182" y="882" type="line" smooth="yes"/>
      <point x="182" y="1216"/>
      <point x="314" y="1423"/>
      <point x="571" y="1423" type="curve" smooth="yes"/>
      <point x="829" y="1423"/>
      <point x="961" y="1216"/>
      <point x="961" y="882" type="curve" smooth="yes"/>
    </contour>
  </outline>
</glyph>
<glyph name="lambda" format="1">
  <advance width="1135"/>
  <unicode hex="03BB"/>
  <outline>
    <contour>
      <point x="459" y="887" type="line"/>
      <point x="531" y="1071" type="line"/>
      <point x="487" y="1102" type="line"/>
      <point x="35" y="0" type="line"/>
      <point x="94" y="0" type="line"/>
    </contour>
    <contour>
      <point x="217" y="1518" type="curve" smooth="yes"/>
      <point x="202" y="1518"/>
      <point x="173" y="1514"/>
      <point x="161" y="1508" type="curve"/>
      <point x="170" y="1458" type="line"/>
      <point x="181" y="1461"/>
      <point x="209" y="1464"/>
      <point x="218" y="1464" type="curve" smooth="yes"/>
      <point x="330" y="1464"/>
      <point x="374" y="1375"/>
      <point x="411" y="1252" type="curve"/>
      <point x="512" y="978" type="line"/>
      <point x="776" y="252" type="line" smooth="yes"/>
      <point x="809" y="165"/>
      <point x="860" y="-6"/>
      <point x="1003" y="-6" type="curve" smooth="yes"/>
      <point x="1019" y="-6"/>
      <point x="1048" y="-2"/>
      <point x="1060" y="4" type="curve"/>
      <point x="1051" y="55" type="line"/>
      <point x="1040" y="51"/>
      <point x="1012" y="48"/>
      <point x="1003" y="48" type="curve" smooth="yes"/>
      <point x="920" y="48"/>
      <point x="871" y="160"/>
      <point x="826" y="278" type="curve" smooth="yes"/>
      <point x="465" y="1260" type="line" smooth="yes"/>
      <point x="435" y="1353"/>
      <point x="387" y="1518"/>
    </contour>
  </outline>
</glyph>
<glyph name="xi" format="1">
  <advance width="1006"/>
  <unicode hex="03BE"/>
  <outline>
    <contour>
      <point x="929" y="1426" type="line"/>
      <point x="859" y="1458"/>
      <point x="775" y="1475"/>
      <point x="694" y="1475" type="curve" smooth="yes"/>
      <point x="406" y="1475"/>
      <point x="219" y="1364"/>
      <point x="219" y="1144" type="curve" smooth="yes"/>
      <point x="219" y="976"/>
      <point x="379" y="838"/>
      <point x="673" y="838" type="curve" smooth="yes"/>
      <point x="799" y="838" type="line"/>
      <point x="799" y="891" type="line"/>
      <point x="677" y="891" type="line" smooth="yes"/>
      <point x="391" y="891"/>
      <point x="274" y="989"/>
      <point x="274" y="1148" type="curve" smooth="yes"/>
      <point x="274" y="1305"/>
      <point x="401" y="1422"/>
      <point x="692" y="1422" type="curve" smooth="yes"/>
      <point x="772" y="1422"/>
      <point x="851" y="1406"/>
      <point x="923" y="1376" type="curve"/>
    </contour>
    <contour>
      <point x="673" y="884" type="line" smooth="yes"/>
      <point x="364" y="884"/>
      <point x="137" y="731"/>
      <point x="137" y="449" type="curve" smooth="yes"/>
      <point x="137" y="165"/>
      <point x="368" y="54"/>
      <point x="638" y="-15" type="curve" smooth="yes"/>
      <point x="680" y="-25" type="line" smooth="yes"/>
      <point x="798" y="-53"/>
      <point x="857" y="-82"/>
      <point x="857" y="-149" type="curve" smooth="yes"/>
      <point x="857" y="-248"/>
      <point x="762" y="-315"/>
      <point x="725" y="-337" type="curve"/>
      <point x="758" y="-370" type="line"/>
      <point x="803" y="-347"/>
      <point x="910" y="-267"/>
      <point x="910" y="-150" type="curve" smooth="yes"/>
      <point x="910" y="-60"/>
      <point x="838" y="-7"/>
      <point x="687" y="28" type="curve" smooth="yes"/>
      <point x="645" y="38" type="line" smooth="yes"/>
      <point x="382" y="107"/>
      <point x="192" y="203"/>
      <point x="192" y="445" type="curve" smooth="yes"/>
      <point x="192" y="725"/>
      <point x="418" y="835"/>
      <point x="677" y="835" type="curve" smooth="yes"/>
      <point x="799" y="835" type="line"/>
      <point x="799" y="884" type="line"/>
    </contour>
  </outline>
</glyph>
<glyph name="pi" format="1">
  <advance width="1266"/>
  <unicode hex="03C0"/>
  <outline>
    <contour>
      <point x="1103" y="1082" type="line"/>
      <point x="75" y="1082" type="line"/>
      <point x="75" y="1027" type="line"/>
      <point x="1103" y="1027" type="line"/>
    </contour>
    <contour>
      <point x="294" y="1082" type="line"/>
      <point x="240" y="1082" type="line"/>
      <point x="240" y="0" type="line"/>
      <point x="294" y="0" type="line"/>
    </contour>
    <contour>
      <point x="850" y="1082" type="line"/>
      <point x="850" y="279" type="line" smooth="yes"/>
      <point x="850" y="62"/>
      <point x="929" y="-21"/>
      <point x="1093" y="-21" type="curve" smooth="yes"/>
      <point x="1130" y="-21"/>
      <point x="1171" y="-19"/>
      <point x="1206" y="-8" type="curve"/>
      <point x="1197" y="42" type="line"/>
      <point x="1159" y="37"/>
      <point x="1131" y="33"/>
      <point x="1090" y="33" type="curve" smooth="yes"/>
      <point x="981" y="33"/>
      <point x="905" y="89"/>
      <point x="905" y="279" type="curve" smooth="yes"/>
      <point x="905" y="1082" type="line"/>
    </contour>
    <contour>
      <point x="850" y="1082" type="line"/>
      <point x="687" y="1082" type="line"/>
      <point x="687" y="1028" type="line"/>
      <point x="850" y="1028" type="line"/>
    </contour>
  </outline>
</glyph>
<glyph name="uni03D2" format="1">
  <advance width="1279"/>
  <unicode hex="03D2"/>
  <outline>
    <contour>
      <point x="699" y="665" type="line"/>
      <point x="644" y="665" type="line"/>
      <point x="644" y="0" type="line"/>
      <point x="699" y="0" type="line"/>
    </contour>
    <contour>
      <point x="723" y="796" type="line"/>
      <point x="655" y="630" type="line"/>
      <point x="698" y="615" type="line"/>
      <point x="965" y="1215" type="line" smooth="yes"/>
      <point x="1046" y="1401"/>
      <point x="1115" y="1420"/>
      <point x="1180" y="1420" type="curve" smooth="yes"/>
      <point x="1220" y="1420"/>
      <point x="1250" y="1406"/>
      <point x="1263" y="1398" type="curve"/>
      <point x="1286" y="1439" type="line"/>
      <point x="1265" y="1452"/>
      <point x="1227" y="1467"/>
      <point x="1184" y="1467" type="curve" smooth="yes"/>
      <point x="1064" y="1467"/>
      <point x="991" y="1405"/>
      <point x="921" y="1239" type="curve" smooth="yes"/>
    </contour>
    <contour>
      <point x="417" y="1239" type="line" smooth="yes"/>
      <point x="348" y="1405"/>
      <point x="275" y="1467"/>
      <point x="155" y="1467" type="curve" smooth="yes"/>
      <point x="112" y="1467"/>
      <point x="74" y="1452"/>
      <point x="52" y="1439" type="curve"/>
      <point x="75" y="1398" type="line"/>
      <point x="88" y="1406"/>
      <point x="119" y="1420"/>
      <point x="159" y="1420" type="curve" smooth="yes"/>
      <point x="224" y="1420"/>
      <point x="290" y="1401"/>
      <point x="373" y="1215" type="curve" smooth="yes"/>
      <point x="648" y="615" type="line"/>
      <point x="684" y="630" type="line"/>
      <point x="616" y="796" type="line"/>
    </contour>
  </outline>
</glyph>
<glyph name="uni03D6" format="1">
  <advance width="1700"/>
  <unicode hex="03D6"/>
  <outline>
    <contour>
      <point x="1650" y="1083" type="line"/>
      <point x="105" y="1083" type="line"/>
      <point x="105" y="1028" type="line"/>
      <point x="1650" y="1028" type="line"/>
    </contour>
    <contour>
      <point x="1361" y="1082" type="line"/>
      <point x="1446" y="920"/>
      <point x="1513" y="727"/>
      <point x="1513" y="500" type="curve" smooth="yes"/>
      <point x="1513" y="264"/>
      <point x="1419" y="33"/>
      <point x="1199" y="33" type="curve" smooth="yes"/>
      <point x="1026" y="33"/>
      <point x="899" y="162"/>
      <point x="899" y="485" type="curve" smooth="yes"/>
      <point x="899" y="772" type="line"/>
      <point x="844" y="772" type="line"/>
      <point x="844" y="487" type="line" smooth="yes"/>
      <point x="844" y="127"/>
      <point x="989" y="-21"/>
      <point x="1201" y="-21" type="curve" smooth="yes"/>
      <point x="1438" y="-21"/>
      <point x="1566" y="200"/>
      <point x="1566" y="503" type="curve" smooth="yes"/>
      <point x="1566" y="784"/>
      <point x="1493" y="940"/>
      <point x="1428" y="1082" type="curve"/>
    </contour>
    <contour>
      <point x="317" y="1082" type="line"/>
      <point x="252" y="940"/>
      <point x="178" y="784"/>
      <point x="178" y="503" type="curve" smooth="yes"/>
      <point x="178" y="200"/>
      <point x="307" y="-21"/>
      <point x="543" y="-21" type="curve" smooth="yes"/>
      <point x="755" y="-21"/>
      <point x="900" y="127"/>
      <point x="900" y="487" type="curve" smooth="yes"/>
      <point x="900" y="772" type="line"/>
      <point x="844" y="772" type="line"/>
      <point x="844" y="485" type="line" smooth="yes"/>
      <point x="844" y="162"/>
      <point x="719" y="33"/>
      <point x="545" y="33" type="curve" smooth="yes"/>
      <point x="325" y="33"/>
      <point x="231" y="264"/>
      <point x="231" y="500" type="curve" smooth="yes"/>
      <point x="231" y="727"/>
      <point x="299" y="920"/>
      <point x="383" y="1082" type="curve"/>
    </contour>
  </outline>
</glyph>
<glyph name="uni0404" format="1">
  <advance width="1266"/>
  <unicode hex="0404"/>
  <outline>
    <contour>
      <point x="812" y="766" type="line"/>
      <point x="152" y="766" type="line"/>
      <point x="152" y="712" type="line"/>
      <point x="812" y="712" type="line"/>
    </contour>
    <contour>
      <point x="1244" y="1247" type="line"/>
      <point x="1148" y="1388"/>
      <point x="970" y="1478"/>
      <point x="755" y="1478" type="curve" smooth="yes"/>
      <point x="375" y="1478"/>
      <point x="118" y="1178"/>
      <point x="118" y="738" type="curve" smooth="yes"/>
      <point x="118" y="720" type="line" smooth="yes"/>
      <point x="118" y="280"/>
      <point x="377" y="-20"/>
      <point x="745" y="-20" type="curve" smooth="yes"/>
      <point x="960" y="-20"/>
      <point x="1148" y="70"/>
      <point x="1244" y="211" type="curve"/>
      <point x="1244" y="465" type="line"/>
      <point x="1189" y="465" type="line"/>
      <point x="1189" y="231" type="line"/>
      <point x="1104" y="115"/>
      <point x="942" y="34"/>
      <point x="745" y="34" type="curve" smooth="yes"/>
      <point x="414" y="34"/>
      <point x="172" y="307"/>
      <point x="172" y="720" type="curve" smooth="yes"/>
      <point x="172" y="740" type="line" smooth="yes"/>
      <point x="172" y="1151"/>
      <point x="412" y="1424"/>
      <point x="755" y="1424" type="curve" smooth="yes"/>
      <point x="952" y="1424"/>
      <point x="1104" y="1343"/>
      <point x="1189" y="1227" type="curve"/>
      <point x="1189" y="993" type="line"/>
      <point x="1244" y="993" type="line"/>
    </contour>
  </outline>
</glyph>
<glyph name="uni040A" format="1">
  <advance width="2233"/>
  <unicode hex="040A"/>
  <outline>
    <contour>
      <point x="1247" y="748" type="line"/>
      <point x="267" y="748" type="line"/>
      <point x="267" y="694" type="line"/>
      <point x="1247" y="694" type="line"/>
    </contour>
    <contour>
      <point x="294" y="1456" type="line"/>
      <point x="240" y="1456" type="line"/>
      <point x="240" y="0" type="line"/>
      <point x="294" y="0" type="line"/>
    </contour>
    <contour>
      <point x="1237" y="810" type="line"/>
      <point x="1237" y="756" type="line"/>
      <point x="1647" y="756" type="line" smooth="yes"/>
      <point x="1943" y="756"/>
      <point x="2065" y="583"/>
      <point x="2065" y="407" type="curve" smooth="yes"/>
      <point x="2065" y="222"/>
      <point x="1943" y="53"/>
      <point x="1647" y="53" type="curve" smooth="yes"/>
      <point x="1278" y="53" type="line"/>
      <point x="1278" y="1456" type="line"/>
      <point x="1224" y="1456" type="line"/>
      <point x="1224" y="0" type="line"/>
      <point x="1647" y="0" type="line" smooth="yes"/>
      <point x="1959" y="0"/>
      <point x="2119" y="173"/>
      <point x="2119" y="405" type="curve" smooth="yes"/>
      <point x="2119" y="638"/>
      <point x="1960" y="810"/>
      <point x="1647" y="810" type="curve" smooth="yes"/>
    </contour>
    <contour>
      <point x="1278" y="1456" type="line"/>
      <point x="1278" y="1402" type="line"/>
      <point x="1441" y="1402" type="line"/>
      <point x="1441" y="1456" type="line"/>
    </contour>
    <contour>
      <point x="1224" y="1456" type="line"/>
      <point x="1061" y="1456" type="line"/>
      <point x="1061" y="1402" type="line"/>
      <point x="1224" y="1402" type="line"/>
    </contour>
    <contour>
      <point x="294" y="0" type="line"/>
      <point x="457" y="0" type="line"/>
      <point x="457" y="54" type="line"/>
      <point x="294" y="54" type="line"/>
    </contour>
    <contour>
      <point x="240" y="0" type="line"/>
      <point x="240" y="54" type="line"/>
      <point x="77" y="54" type="line"/>
      <point x="77" y="0" type="line"/>
    </contour>
    <contour>
      <point x="240" y="1456" type="line"/>
      <point x="77" y="1456" type="line"/>
      <point x="77" y="1402" type="line"/>
      <point x="240" y="1402" type="line"/>
    </contour>
    <contour>
      <point x="294" y="1456" type="line"/>
      <point x="294" y="1402" type="line"/>
      <point x="457" y="1402" type="line"/>
      <point x="457" y="1456" type="line"/>
    </contour>
    <contour>
      <point x="1224" y="54" type="line"/>
      <point x="1061" y="54" type="line"/>
      <point x="1061" y="0" type="line"/>
      <point x="1224" y="0" type="line"/>
    </contour>
  </outline>
</glyph>
<glyph name="uni0411" format="1">
  <advance width="1280"/>
  <unicode hex="0411"/>
  <outline>
    <contour>
      <point x="1095" y="1456" type="line"/>
      <point x="233" y="1456" type="line"/>
      <point x="233" y="0" type="line"/>
      <point x="287" y="0" type="line"/>
      <point x="287" y="1402" type="line"/>
      <point x="1095" y="1402" type="line"/>
    </contour>
    <contour>
      <point x="233" y="0" type="line"/>
      <point x="233" y="54" type="line"/>
      <point x="70" y="54" type="line"/>
      <point x="70" y="0" type="line"/>
    </contour>
    <contour>
      <point x="287" y="0" type="line"/>
      <point x="450" y="0" type="line"/>
      <point x="450" y="54" type="line"/>
      <point x="287" y="54" type="line"/>
    </contour>
    <contour>
      <point x="1095" y="1456" type="line"/>
      <point x="1041" y="1456" type="line"/>
      <point x="1041" y="1163" type="line"/>
      <point x="1095" y="1163" type="line"/>
    </contour>
    <contour>
      <point x="233" y="1456" type="line"/>
      <point x="70" y="1456" type="line"/>
      <point x="70" y="1402" type="line"/>
      <point x="233" y="1402" type="line"/>
    </contour>
    <contour>
      <point x="246" y="788" type="line"/>
      <point x="246" y="734" type="line"/>
      <point x="656" y="734" type="line" smooth="yes"/>
      <point x="952" y="734"/>
      <point x="1072" y="572"/>
      <point x="1072" y="396" type="curve" smooth="yes"/>
      <point x="1072" y="212"/>
      <point x="952" y="54"/>
      <point x="656" y="54" type="curve" smooth="yes"/>
      <point x="287" y="54" type="line"/>
      <point x="287" y="1456" type="line"/>
      <point x="233" y="1456" type="line"/>
      <point x="233" y="0" type="line"/>
      <point x="656" y="0" type="line" smooth="yes"/>
      <point x="967" y="0"/>
      <point x="1127" y="162"/>
      <point x="1127" y="394" type="curve" smooth="yes"/>
      <point x="1127" y="626"/>
      <point x="968" y="788"/>
      <point x="656" y="788" type="curve" smooth="yes"/>
    </contour>
    <contour>
      <point x="287" y="1456" type="line"/>
      <point x="287" y="1402" type="line"/>
      <point x="450" y="1402" type="line"/>
      <point x="450" y="1456" type="line"/>
    </contour>
    <contour>
      <point x="233" y="1456" type="line"/>
      <point x="70" y="1456" type="line"/>
      <point x="70" y="1402" type="line"/>
      <point x="233" y="1402" type="line"/>
    </contour>
    <contour>
      <point x="233" y="0" type="line"/>
      <point x="233" y="54" type="line"/>
      <point x="70" y="54" type="line"/>
      <point x="70" y="0" type="line"/>
    </contour>
  </outline>
</glyph>
<glyph name="uni0418" format="1">
  <advance width="1552"/>
  <unicode hex="0418"/>
  <outline>
    <contour>
      <point x="294" y="194" type="line"/>
      <point x="1275" y="1231" type="line"/>
      <point x="1235" y="1265" type="line"/>
      <point x="252" y="228" type="line"/>
    </contour>
    <contour>
      <point x="1235" y="0" type="line"/>
      <point x="1289" y="0" type="line"/>
      <point x="1289" y="1456" type="line"/>
      <point x="1235" y="1456" type="line"/>
    </contour>
    <contour>
      <point x="240" y="0" type="line"/>
      <point x="294" y="0" type="line"/>
      <point x="294" y="1456" type="line"/>
      <point x="240" y="1456" type="line"/>
    </contour>
    <contour>
      <point x="240" y="1456" type="line"/>
      <point x="77" y="1456" type="line"/>
      <point x="77" y="1402" type="line"/>
      <point x="240" y="1402" type="line"/>
    </contour>
    <contour>
      <point x="294" y="1456" type="line"/>
      <point x="294" y="1402" type="line"/>
      <point x="457" y="1402" type="line"/>
      <point x="457" y="1456" type="line"/>
    </contour>
    <contour>
      <point x="240" y="0" type="line"/>
      <point x="240" y="54" type="line"/>
      <point x="77" y="54" type="line"/>
      <point x="77" y="0" type="line"/>
    </contour>
    <contour>
      <point x="1235" y="0" type="line"/>
      <point x="1235" y="54" type="line"/>
      <point x="1072" y="54" type="line"/>
      <point x="1072" y="0" type="line"/>
    </contour>
    <contour>
      <point x="1289" y="0" type="line"/>
      <point x="1452" y="0" type="line"/>
      <point x="1452" y="54" type="line"/>
      <point x="1289" y="54" type="line"/>
    </contour>
    <contour>
      <point x="1289" y="1456" type="line"/>
      <point x="1289" y="1402" type="line"/>
      <point x="1452" y="1402" type="line"/>
      <point x="1452" y="1456" type="line"/>
    </contour>
    <contour>
      <point x="294" y="0" type="line"/>
      <point x="457" y="0" type="line"/>
      <point x="457" y="54" type="line"/>
      <point x="294" y="54" type="line"/>
    </contour>
    <contour>
      <point x="1235" y="1456" type="line"/>
      <point x="1072" y="1456" type="line"/>
      <point x="1072" y="1402" type="line"/>
      <point x="1235" y="1402" type="line"/>
    </contour>
  </outline>
</glyph>
<glyph name="uni041A" format="1">
  <advance width="1378"/>
  <unicode hex="041A"/>
  <outline>
    <contour>
      <point x="288" y="1456" type="line"/>
      <point x="234" y="1456" type="line"/>
      <point x="234" y="0" type="line"/>
      <point x="288" y="0" type="line"/>
    </contour>
    <contour>
      <point x="1190" y="0" type="line"/>
      <point x="1261" y="0" type="line"/>
      <point x="542" y="761" type="line"/>
      <point x="508" y="714" type="line"/>
    </contour>
    <contour>
      <point x="1190" y="0" type="line"/>
      <point x="1190" y="54" type="line"/>
      <point x="967" y="54" type="line"/>
      <point x="967" y="0" type="line"/>
    </contour>
    <contour>
      <point x="1261" y="0" type="line"/>
      <point x="1328" y="0" type="line"/>
      <point x="1328" y="54" type="line"/>
      <point x="1197" y="54" type="line"/>
    </contour>
    <contour>
      <point x="234" y="0" type="line"/>
      <point x="234" y="54" type="line"/>
      <point x="71" y="54" type="line"/>
      <point x="71" y="0" type="line"/>
    </contour>
    <contour>
      <point x="288" y="0" type="line"/>
      <point x="451" y="0" type="line"/>
      <point x="451" y="54" type="line"/>
      <point x="288" y="54" type="line"/>
    </contour>
    <contour>
      <point x="288" y="1456" type="line"/>
      <point x="288" y="1402" type="line"/>
      <point x="451" y="1402" type="line"/>
      <point x="451" y="1456" type="line"/>
    </contour>
    <contour>
      <point x="234" y="1456" type="line"/>
      <point x="71" y="1456" type="line"/>
      <point x="71" y="1402" type="line"/>
      <point x="234" y="1402" type="line"/>
    </contour>
    <contour>
      <point x="1268" y="1441" type="line"/>
      <point x="1242" y="1459"/>
      <point x="1208" y="1467"/>
      <point x="1182" y="1467" type="curve" smooth="yes"/>
      <point x="1112" y="1467"/>
      <point x="1053" y="1452"/>
      <point x="954" y="1323" type="curve" smooth="yes"/>
      <point x="522" y="763" type="line"/>
      <point x="275" y="763" type="line"/>
      <point x="272" y="710" type="line"/>
      <point x="549" y="710" type="line"/>
      <point x="994" y="1288" type="line" smooth="yes"/>
      <point x="1080" y="1400"/>
      <point x="1118" y="1413"/>
      <point x="1182" y="1413" type="curve" smooth="yes"/>
      <point x="1207" y="1413"/>
      <point x="1228" y="1406"/>
      <point x="1244" y="1395" type="curve"/>
    </contour>
  </outline>
</glyph>
<glyph name="uni042E" format="1">
  <advance width="1896"/>
  <unicode hex="042E"/>
  <outline>
    <contour>
      <point x="283" y="1456" type="line"/>
      <point x="229" y="1456" type="line"/>
      <point x="229" y="0" type="line"/>
      <point x="283" y="0" type="line"/>
    </contour>
    <contour>
      <point x="229" y="0" type="line"/>
      <point x="229" y="54" type="line"/>
      <point x="66" y="54" type="line"/>
      <point x="66" y="0" type="line"/>
    </contour>
    <contour>
      <point x="283" y="0" type="line"/>
      <point x="446" y="0" type="line"/>
      <point x="446" y="54" type="line"/>
      <point x="283" y="54" type="line"/>
    </contour>
    <contour>
      <point x="283" y="1456" type="line"/>
      <point x="283" y="1402" type="line"/>
      <point x="446" y="1402" type="line"/>
      <point x="446" y="1456" type="line"/>
    </contour>
    <contour>
      <point x="229" y="1456" type="line"/>
      <point x="66" y="1456" type="line"/>
      <point x="66" y="1402" type="line"/>
      <point x="229" y="1402" type="line"/>
    </contour>
    <contour>
      <point x="640" y="747" type="line"/>
      <point x="264" y="747" type="line"/>
      <point x="264" y="693" type="line"/>
      <point x="640" y="693" type="line"/>
    </contour>
    <contour>
      <point x="1822" y="737" type="line" smooth="yes"/>
      <point x="1822" y="1187"/>
      <point x="1572" y="1477"/>
      <point x="1212" y="1477" type="curve" smooth="yes"/>
      <point x="853" y="1477"/>
      <point x="604" y="1187"/>
      <point x="604" y="737" type="curve" smooth="yes"/>
      <point x="604" y="719" type="line" smooth="yes"/>
      <point x="604" y="269"/>
      <point x="855" y="-21"/>
      <point x="1214" y="-21" type="curve" smooth="yes"/>
      <point x="1574" y="-21"/>
      <point x="1822" y="269"/>
      <point x="1822" y="719" type="curve" smooth="yes"/>
    </contour>
    <contour>
      <point x="1768" y="719" type="line" smooth="yes"/>
      <point x="1768" y="306"/>
      <point x="1553" y="33"/>
      <point x="1214" y="33" type="curve" smooth="yes"/>
      <point x="877" y="33"/>
      <point x="659" y="306"/>
      <point x="659" y="719" type="curve" smooth="yes"/>
      <point x="659" y="739" type="line" smooth="yes"/>
      <point x="659" y="1150"/>
      <point x="875" y="1423"/>
      <point x="1212" y="1423" type="curve" smooth="yes"/>
      <point x="1551" y="1423"/>
      <point x="1768" y="1150"/>
      <point x="1768" y="739" type="curve" smooth="yes"/>
    </contour>
  </outline>
</glyph>
<glyph name="uni0431" format="1">
  <advance width="1158"/>
  <unicode hex="0431"/>
  <outline>
    <contour>
      <point x="892" y="1553" type="line"/>
      <point x="892" y="1464"/>
      <point x="831" y="1406"/>
      <point x="584" y="1370" type="curve" smooth="yes"/>
      <point x="287" y="1335"/>
      <point x="106" y="1063"/>
      <point x="106" y="652" type="curve" smooth="yes"/>
      <point x="106" y="497" type="line"/>
      <point x="160" y="497" type="line"/>
      <point x="160" y="652" type="line" smooth="yes"/>
      <point x="161" y="1029"/>
      <point x="331" y="1292"/>
      <point x="599" y="1316" type="curve" smooth="yes"/>
      <point x="823" y="1340"/>
      <point x="946" y="1412"/>
      <point x="946" y="1553" type="curve"/>
    </contour>
    <contour>
      <point x="579" y="1002" type="curve" smooth="yes"/>
      <point x="299" y="1002"/>
      <point x="106" y="806"/>
      <point x="106" y="522" type="curve" smooth="yes"/>
      <point x="106" y="480" type="line" smooth="yes"/>
      <point x="106" y="187"/>
      <point x="300" y="-21"/>
      <point x="581" y="-21" type="curve" smooth="yes"/>
      <point x="862" y="-21"/>
      <point x="1054" y="187"/>
      <point x="1054" y="480" type="curve" smooth="yes"/>
      <point x="1054" y="522" type="line" smooth="yes"/>
      <point x="1054" y="803"/>
      <point x="862" y="1002"/>
    </contour>
    <contour>
      <point x="579" y="948" type="curve" smooth="yes"/>
      <point x="844" y="948"/>
      <point x="999" y="747"/>
      <point x="999" y="522" type="curve" smooth="yes"/>
      <point x="999" y="480" type="line" smooth="yes"/>
      <point x="999" y="243"/>
      <point x="844" y="33"/>
      <point x="581" y="33" type="curve" smooth="yes"/>
      <point x="315" y="33"/>
      <point x="160" y="243"/>
      <point x="160" y="480" type="curve" smooth="yes"/>
      <point x="160" y="522" type="line" smooth="yes"/>
      <point x="160" y="745"/>
      <point x="315" y="948"/>
    </contour>
  </outline>
</glyph>
<glyph name="uni0434" format="1">
  <advance width="1255"/>
  <unicode hex="0434"/>
  <outline>
    <contour>
      <point x="368" y="1082" type="line"/>
      <point x="348" y="706" type="line" smooth="yes"/>
      <point x="338" y="282"/>
      <point x="201" y="139"/>
      <point x="138" y="54" type="curve"/>
      <point x="115" y="54" type="line"/>
      <point x="115" y="0" type="line"/>
      <point x="155" y="0" type="line"/>
      <point x="255" y="98"/>
      <point x="392" y="286"/>
      <point x="402" y="706" type="curve" smooth="yes"/>
      <point x="422" y="1082" type="line"/>
    </contour>
    <contour>
      <point x="400" y="1082" type="line"/>
      <point x="400" y="1028" type="line"/>
      <point x="895" y="1028" type="line"/>
      <point x="895" y="0" type="line"/>
      <point x="949" y="0" type="line"/>
      <point x="949" y="1082" type="line"/>
    </contour>
    <contour>
      <point x="66" y="54" type="line"/>
      <point x="66" y="-318" type="line"/>
      <point x="110" y="-318" type="line"/>
      <point x="110" y="0" type="line"/>
      <point x="981" y="0" type="line"/>
      <point x="981" y="-318" type="line"/>
      <point x="1035" y="-318" type="line"/>
      <point x="1035" y="54" type="line"/>
    </contour>
    <contour>
      <point x="949" y="1082" type="line"/>
      <point x="949" y="1028" type="line"/>
      <point x="1112" y="1028" type="line"/>
      <point x="1112" y="1082" type="line"/>
    </contour>
    <contour>
      <point x="368" y="1082" type="line"/>
      <point x="205" y="1082" type="line"/>
      <point x="205" y="1028" type="line"/>
      <point x="368" y="1028" type="line"/>
    </contour>
  </outline>
</glyph>
<glyph name="uni043A" format="1">
  <advance width="1230"/>
  <unicode hex="043A"/>
  <outline>
    <contour>
      <point x="315" y="1082" type="line"/>
      <point x="260" y="1082" type="line"/>
      <point x="260" y="0" type="line"/>
      <point x="315" y="0" type="line"/>
    </contour>
    <contour>
      <point x="1012" y="0" type="line"/>
      <point x="1093" y="0" type="line"/>
      <point x="541" y="584" type="line"/>
      <point x="509" y="533" type="line"/>
    </contour>
    <contour>
      <point x="1093" y="0" type="line"/>
      <point x="1180" y="0" type="line"/>
      <point x="1180" y="54" type="line"/>
      <point x="1029" y="54" type="line"/>
    </contour>
    <contour>
      <point x="260" y="0" type="line"/>
      <point x="260" y="54" type="line"/>
      <point x="97" y="54" type="line"/>
      <point x="97" y="0" type="line"/>
    </contour>
    <contour>
      <point x="315" y="0" type="line"/>
      <point x="478" y="0" type="line"/>
      <point x="478" y="54" type="line"/>
      <point x="315" y="54" type="line"/>
    </contour>
    <contour>
      <point x="315" y="1082" type="line"/>
      <point x="315" y="1028" type="line"/>
      <point x="478" y="1028" type="line"/>
      <point x="478" y="1082" type="line"/>
    </contour>
    <contour>
      <point x="260" y="1082" type="line"/>
      <point x="97" y="1082" type="line"/>
      <point x="97" y="1028" type="line"/>
      <point x="260" y="1028" type="line"/>
    </contour>
    <contour>
      <point x="1134" y="1067" type="line"/>
      <point x="1108" y="1085"/>
      <point x="1074" y="1093"/>
      <point x="1048" y="1093" type="curve" smooth="yes"/>
      <point x="978" y="1093"/>
      <point x="922" y="1075"/>
      <point x="820" y="949" type="curve" smooth="yes"/>
      <point x="523" y="582" type="line"/>
      <point x="296" y="582" type="line"/>
      <point x="293" y="529" type="line"/>
      <point x="550" y="529" type="line"/>
      <point x="860" y="914" type="line" smooth="yes"/>
      <point x="948" y="1024"/>
      <point x="984" y="1039"/>
      <point x="1048" y="1039" type="curve" smooth="yes"/>
      <point x="1073" y="1039"/>
      <point x="1094" y="1032"/>
      <point x="1110" y="1021" type="curve"/>
    </contour>
  </outline>
</glyph>
<glyph name="uni043D" format="1">
  <advance width="1351"/>
  <unicode hex="043D"/>
  <outline>
    <contour>
      <point x="1002" y="583" type="line"/>
      <point x="292" y="583" type="line"/>
      <point x="292" y="529" type="line"/>
      <point x="1002" y="529" type="line"/>
    </contour>
    <contour>
      <point x="314" y="1082" type="line"/>
      <point x="260" y="1082" type="line"/>
      <point x="260" y="0" type="line"/>
      <point x="314" y="0" type="line"/>
    </contour>
    <contour>
      <point x="1038" y="1082" type="line"/>
      <point x="983" y="1082" type="line"/>
      <point x="983" y="0" type="line"/>
      <point x="1038" y="0" type="line"/>
    </contour>
    <contour>
      <point x="1038" y="1082" type="line"/>
      <point x="1038" y="1028" type="line"/>
      <point x="1201" y="1028" type="line"/>
      <point x="1201" y="1082" type="line"/>
    </contour>
    <contour>
      <point x="983" y="1082" type="line"/>
      <point x="820" y="1082" type="line"/>
      <point x="820" y="1028" type="line"/>
      <point x="983" y="1028" type="line"/>
    </contour>
    <contour>
      <point x="983" y="0" type="line"/>
      <point x="983" y="54" type="line"/>
      <point x="820" y="54" type="line"/>
      <point x="820" y="0" type="line"/>
    </contour>
    <contour>
      <point x="1038" y="0" type="line"/>
      <point x="1201" y="0" type="line"/>
      <point x="1201" y="54" type="line"/>
      <point x="1038" y="54" type="line"/>
    </contour>
    <contour>
      <point x="314" y="0" type="line"/>
      <point x="477" y="0" type="line"/>
      <point x="477" y="54" type="line"/>
      <point x="314" y="54" type="line"/>
    </contour>
    <contour>
      <point x="260" y="0" type="line"/>
      <point x="260" y="54" type="line"/>
      <point x="97" y="54" type="line"/>
      <point x="97" y="0" type="line"/>
    </contour>
    <contour>
      <point x="260" y="1082" type="line"/>
      <point x="97" y="1082" type="line"/>
      <point x="97" y="1028" type="line"/>
      <point x="260" y="1028" type="line"/>
    </contour>
    <contour>
      <point x="314" y="1082" type="line"/>
      <point x="314" y="1028" type="line"/>
      <point x="477" y="1028" type="line"/>
      <point x="477" y="1082" type="line"/>
    </contour>
  </outline>
</glyph>
<glyph name="uni043F" format="1">
  <advance width="1352"/>
  <unicode hex="043F"/>
  <outline>
    <contour>
      <point x="1005" y="1082" type="line"/>
      <point x="288" y="1082" type="line"/>
      <point x="288" y="1027" type="line"/>
      <point x="1005" y="1027" type="line"/>
    </contour>
    <contour>
      <point x="314" y="1082" type="line"/>
      <point x="260" y="1082" type="line"/>
      <point x="260" y="0" type="line"/>
      <point x="314" y="0" type="line"/>
    </contour>
    <contour>
      <point x="1038" y="1082" type="line"/>
      <point x="983" y="1082" type="line"/>
      <point x="983" y="0" type="line"/>
      <point x="1038" y="0" type="line"/>
    </contour>
    <contour>
      <point x="1038" y="1082" type="line"/>
      <point x="1038" y="1028" type="line"/>
      <point x="1201" y="1028" type="line"/>
      <point x="1201" y="1082" type="line"/>
    </contour>
    <contour>
      <point x="983" y="0" type="line"/>
      <point x="983" y="54" type="line"/>
      <point x="820" y="54" type="line"/>
      <point x="820" y="0" type="line"/>
    </contour>
    <contour>
      <point x="1038" y="0" type="line"/>
      <point x="1201" y="0" type="line"/>
      <point x="1201" y="54" type="line"/>
      <point x="1038" y="54" type="line"/>
    </contour>
    <contour>
      <point x="314" y="0" type="line"/>
      <point x="477" y="0" type="line"/>
      <point x="477" y="54" type="line"/>
      <point x="314" y="54" type="line"/>
    </contour>
    <contour>
      <point x="260" y="0" type="line"/>
      <point x="260" y="54" type="line"/>
      <point x="97" y="54" type="line"/>
      <point x="97" y="0" type="line"/>
    </contour>
    <contour>
      <point x="260" y="1082" type="line"/>
      <point x="97" y="1082" type="line"/>
      <point x="97" y="1028" type="line"/>
      <point x="260" y="1028" type="line"/>
    </contour>
  </outline>
</glyph>
<glyph name="uni0447" format="1">
  <advance width="1319"/>
  <unicode hex="0447"/>
  <outline>
    <contour>
      <point x="1006" y="1082" type="line"/>
      <point x="952" y="1082" type="line"/>
      <point x="952" y="0" type="line"/>
      <point x="1006" y="0" type="line"/>
    </contour>
    <contour>
      <point x="987" y="596" type="line"/>
      <point x="940" y="554"/>
      <point x="771" y="502"/>
      <point x="637" y="496" type="curve" smooth="yes"/>
      <point x="388" y="496"/>
      <point x="282" y="566"/>
      <point x="282" y="848" type="curve" smooth="yes"/>
      <point x="282" y="1082" type="line"/>
      <point x="228" y="1082" type="line"/>
      <point x="228" y="848" type="line" smooth="yes"/>
      <point x="228" y="521"/>
      <point x="356" y="442"/>
      <point x="637" y="442" type="curve" smooth="yes"/>
      <point x="750" y="442"/>
      <point x="915" y="496"/>
      <point x="987" y="542" type="curve"/>
    </contour>
    <contour>
      <point x="228" y="1082" type="line"/>
      <point x="65" y="1082" type="line"/>
      <point x="65" y="1028" type="line"/>
      <point x="228" y="1028" type="line"/>
    </contour>
    <contour>
      <point x="282" y="1082" type="line"/>
      <point x="282" y="1028" type="line"/>
      <point x="445" y="1028" type="line"/>
      <point x="445" y="1082" type="line"/>
    </contour>
    <contour>
      <point x="952" y="0" type="line"/>
      <point x="952" y="54" type="line"/>
      <point x="789" y="54" type="line"/>
      <point x="789" y="0" type="line"/>
    </contour>
    <contour>
      <point x="1006" y="0" type="line"/>
      <point x="1169" y="0" type="line"/>
      <point x="1169" y="54" type="line"/>
      <point x="1006" y="54" type="line"/>
    </contour>
    <contour>
      <point x="1006" y="1082" type="line"/>
      <point x="1006" y="1028" type="line"/>
      <point x="1169" y="1028" type="line"/>
      <point x="1169" y="1082" type="line"/>
    </contour>
    <contour>
      <point x="952" y="1082" type="line"/>
      <point x="789" y="1082" type="line"/>
      <point x="789" y="1028" type="line"/>
      <point x="952" y="1028" type="line"/>
    </contour>
  </outline>
</glyph>
<glyph name="uni044A" format="1">
  <advance width="1407"/>
  <unicode hex="044A"/>
  <outline>
    <contour>
      <point x="492" y="1082" type="line"/>
      <point x="90" y="1082" type="line"/>
      <point x="90" y="1028" type="line"/>
      <point x="492" y="1028" type="line"/>
    </contour>
    <contour>
      <point x="90" y="1082" type="line"/>
      <point x="90" y="789" type="line"/>
      <point x="144" y="789" type="line"/>
      <point x="144" y="1082" type="line"/>
    </contour>
    <contour>
      <point x="507" y="670" type="line"/>
      <point x="507" y="616" type="line"/>
      <point x="887" y="616" type="line" smooth="yes"/>
      <point x="1123" y="616"/>
      <point x="1220" y="479"/>
      <point x="1220" y="337" type="curve" smooth="yes"/>
      <point x="1220" y="189"/>
      <point x="1123" y="54"/>
      <point x="887" y="54" type="curve" smooth="yes"/>
      <point x="542" y="54" type="line"/>
      <point x="542" y="1082" type="line"/>
      <point x="488" y="1082" type="line"/>
      <point x="488" y="0" type="line"/>
      <point x="887" y="0" type="line" smooth="yes"/>
      <point x="1137" y="0"/>
      <point x="1274" y="141"/>
      <point x="1274" y="335" type="curve" smooth="yes"/>
      <point x="1274" y="527"/>
      <point x="1137" y="670"/>
      <point x="887" y="670" type="curve" smooth="yes"/>
    </contour>
    <contour>
      <point x="542" y="1082" type="line"/>
      <point x="542" y="1028" type="line"/>
      <point x="705" y="1028" type="line"/>
      <point x="705" y="1082" type="line"/>
    </contour>
    <contour>
      <point x="488" y="1082" type="line"/>
      <point x="325" y="1082" type="line"/>
      <point x="325" y="1028" type="line"/>
      <point x="488" y="1028" type="line"/>
    </contour>
    <contour>
      <point x="488" y="0" type="line"/>
      <point x="488" y="54" type="line"/>
      <point x="325" y="54" type="line"/>
      <point x="325" y="0" type="line"/>
    </contour>
  </outline>
</glyph>
<glyph name="uni045B" format="1">
  <advance width="1278"/>
  <unicode hex="045B"/>
  <outline>
    <contour>
      <point x="279" y="1560" type="line"/>
      <point x="225" y="1560" type="line"/>
      <point x="225" y="0" type="line"/>
      <point x="279" y="0" type="line"/>
    </contour>
    <contour>
      <point x="270" y="554" type="line"/>
      <point x="270" y="785"/>
      <point x="360" y="1048"/>
      <point x="664" y="1048" type="curve" smooth="yes"/>
      <point x="819" y="1048"/>
      <point x="952" y="967"/>
      <point x="952" y="660" type="curve" smooth="yes"/>
      <point x="952" y="0" type="line"/>
      <point x="1007" y="0" type="line"/>
      <point x="1007" y="658" type="line" smooth="yes"/>
      <point x="1007" y="973"/>
      <point x="882" y="1102"/>
      <point x="663" y="1102" type="curve" smooth="yes"/>
      <point x="367" y="1102"/>
      <point x="225" y="875"/>
      <point x="225" y="554" type="curve"/>
    </contour>
    <contour>
      <point x="225" y="0" type="line"/>
      <point x="225" y="54" type="line"/>
      <point x="62" y="54" type="line"/>
      <point x="62" y="0" type="line"/>
    </contour>
    <contour>
      <point x="1007" y="0" type="line"/>
      <point x="1170" y="0" type="line"/>
      <point x="1170" y="54" type="line"/>
      <point x="1007" y="54" type="line"/>
    </contour>
    <contour>
      <point x="952" y="0" type="line"/>
      <point x="952" y="54" type="line"/>
      <point x="789" y="54" type="line"/>
      <point x="789" y="0" type="line"/>
    </contour>
    <contour>
      <point x="279" y="0" type="line"/>
      <point x="442" y="0" type="line"/>
      <point x="442" y="54" type="line"/>
      <point x="279" y="54" type="line"/>
    </contour>
    <contour>
      <point x="225" y="1560" type="line"/>
      <point x="62" y="1560" type="line"/>
      <point x="62" y="1506" type="line"/>
      <point x="225" y="1506" type="line"/>
    </contour>
    <contour>
      <point x="604" y="1334" type="line"/>
      <point x="17" y="1334" type="line"/>
      <point x="17" y="1280" type="line"/>
      <point x="604" y="1280" type="line"/>
    </contour>
  </outline>
</glyph>
<glyph name="uni0460" format="1">
  <advance width="1751"/>
  <unicode hex="0460"/>
  <outline>
    <contour>
      <point x="845" y="1456" type="line"/>
      <point x="845" y="429" type="line" smooth="yes"/>
      <point x="845" y="174"/>
      <point x="707" y="33"/>
      <point x="522" y="33" type="curve" smooth="yes"/>
      <point x="336" y="33"/>
      <point x="198" y="174"/>
      <point x="198" y="429" type="curve" smooth="yes"/>
      <point x="198" y="1456" type="line"/>
      <point x="144" y="1456" type="line"/>
      <point x="144" y="429" type="line" smooth="yes"/>
      <point x="144" y="128"/>
      <point x="305" y="-21"/>
      <point x="522" y="-21" type="curve" smooth="yes"/>
      <point x="739" y="-21"/>
      <point x="899" y="128"/>
      <point x="899" y="429" type="curve" smooth="yes"/>
      <point x="899" y="1456" type="line"/>
    </contour>
    <contour>
      <point x="1546" y="1456" type="line"/>
      <point x="1546" y="429" type="line" smooth="yes"/>
      <point x="1546" y="174"/>
      <point x="1408" y="33"/>
      <point x="1223" y="33" type="curve" smooth="yes"/>
      <point x="1036" y="33"/>
      <point x="899" y="174"/>
      <point x="899" y="429" type="curve" smooth="yes"/>
      <point x="899" y="1456" type="line"/>
      <point x="845" y="1456" type="line"/>
      <point x="845" y="429" type="line" smooth="yes"/>
      <point x="845" y="128"/>
      <point x="1006" y="-21"/>
      <point x="1223" y="-21" type="curve" smooth="yes"/>
      <point x="1440" y="-21"/>
      <point x="1600" y="128"/>
      <point x="1600" y="429" type="curve" smooth="yes"/>
      <point x="1600" y="1456" type="line"/>
    </contour>
  </outline>
</glyph>
<glyph name="uni0464" format="1">
  <advance width="1748"/>
  <unicode hex="0464"/>
  <outline>
    <contour>
      <point x="1193" y="794" type="line"/>
      <point x="251" y="794" type="line"/>
      <point x="251" y="740" type="line"/>
      <point x="1193" y="740" type="line"/>
    </contour>
    <contour>
      <point x="1711" y="1247" type="line"/>
      <point x="1615" y="1388"/>
      <point x="1437" y="1478"/>
      <point x="1222" y="1478" type="curve" smooth="yes"/>
      <point x="842" y="1478"/>
      <point x="585" y="1178"/>
      <point x="585" y="738" type="curve" smooth="yes"/>
      <point x="585" y="720" type="line" smooth="yes"/>
      <point x="585" y="280"/>
      <point x="844" y="-20"/>
      <point x="1212" y="-20" type="curve" smooth="yes"/>
      <point x="1427" y="-20"/>
      <point x="1615" y="70"/>
      <point x="1711" y="211" type="curve"/>
      <point x="1711" y="465" type="line"/>
      <point x="1656" y="465" type="line"/>
      <point x="1656" y="231" type="line"/>
      <point x="1571" y="115"/>
      <point x="1409" y="34"/>
      <point x="1212" y="34" type="curve" smooth="yes"/>
      <point x="881" y="34"/>
      <point x="639" y="307"/>
      <point x="639" y="720" type="curve" smooth="yes"/>
      <point x="639" y="740" type="line" smooth="yes"/>
      <point x="639" y="1151"/>
      <point x="879" y="1424"/>
      <point x="1222" y="1424" type="curve" smooth="yes"/>
      <point x="1419" y="1424"/>
      <point x="1571" y="1343"/>
      <point x="1656" y="1227" type="curve"/>
      <point x="1656" y="993" type="line"/>
      <point x="1711" y="993" type="line"/>
    </contour>
    <contour>
      <point x="284" y="1456" type="line"/>
      <point x="230" y="1456" type="line"/>
      <point x="230" y="0" type="line"/>
      <point x="284" y="0" type="line"/>
    </contour>
    <contour>
      <point x="230" y="0" type="line"/>
      <point x="230" y="54" type="line"/>
      <point x="67" y="54" type="line"/>
      <point x="67" y="0" type="line"/>
    </contour>
    <contour>
      <point x="284" y="0" type="line"/>
      <point x="447" y="0" type="line"/>
      <point x="447" y="54" type="line"/>
      <point x="284" y="54" type="line"/>
    </contour>
    <contour>
      <point x="284" y="1456" type="line"/>
      <point x="284" y="1402" type="line"/>
      <point x="447" y="1402" type="line"/>
      <point x="447" y="1456" type="line"/>
    </contour>
    <contour>
      <point x="230" y="1456" type="line"/>
      <point x="67" y="1456" type="line"/>
      <point x="67" y="1402" type="line"/>
      <point x="230" y="1402" type="line"/>
    </contour>
  </outline>
</glyph>
<glyph name="uni046E" format="1">
  <advance width="1029"/>
  <unicode hex="046E"/>
  <outline>
    <contour>
      <point x="899" y="1083" type="curve" smooth="yes"/>
      <point x="899" y="1328"/>
      <point x="730" y="1466"/>
      <point x="466" y="1466" type="curve" smooth="yes"/>
      <point x="301" y="1466"/>
      <point x="155" y="1392"/>
      <point x="73" y="1279" type="curve"/>
      <point x="73" y="1047" type="line"/>
      <point x="127" y="1047" type="line"/>
      <point x="127" y="1259" type="line"/>
      <point x="199" y="1349"/>
      <point x="314" y="1412"/>
      <point x="466" y="1412" type="curve" smooth="yes"/>
      <point x="730" y="1412"/>
      <point x="844" y="1270"/>
      <point x="844" y="1087" type="curve" smooth="yes"/>
      <point x="844" y="893"/>
      <point x="716" y="771"/>
      <point x="402" y="771" type="curve" smooth="yes"/>
      <point x="279" y="771" type="line"/>
      <point x="279" y="718" type="line"/>
      <point x="406" y="718" type="line" smooth="yes"/>
      <point x="726" y="718"/>
      <point x="899" y="883"/>
    </contour>
    <contour>
      <point x="279" y="764" type="line"/>
      <point x="279" y="715" type="line"/>
      <point x="402" y="715" type="line" smooth="yes"/>
      <point x="703" y="715"/>
      <point x="867" y="620"/>
      <point x="867" y="382" type="curve" smooth="yes"/>
      <point x="867" y="178"/>
      <point x="677" y="54"/>
      <point x="394" y="54" type="curve" smooth="yes"/>
      <point x="312" y="54" type="line" smooth="yes"/>
      <point x="132" y="54"/>
      <point x="65" y="-32"/>
      <point x="65" y="-142" type="curve" smooth="yes"/>
      <point x="65" y="-259"/>
      <point x="199" y="-355"/>
      <point x="283" y="-378" type="curve"/>
      <point x="298" y="-326" type="line"/>
      <point x="228" y="-306"/>
      <point x="118" y="-230"/>
      <point x="118" y="-141" type="curve" smooth="yes"/>
      <point x="118" y="-51"/>
      <point x="169" y="1"/>
      <point x="312" y="1" type="curve" smooth="yes"/>
      <point x="394" y="1" type="line" smooth="yes"/>
      <point x="682" y="0"/>
      <point x="922" y="141"/>
      <point x="922" y="386" type="curve" smooth="yes"/>
      <point x="922" y="629"/>
      <point x="757" y="764"/>
      <point x="406" y="764" type="curve" smooth="yes"/>
    </contour>
    <contour>
      <point x="297" y="1866" type="line"/>
      <point x="226" y="1866" type="line"/>
      <point x="226" y="1852" type="line"/>
      <point x="440" y="1643" type="line"/>
      <point x="519" y="1643" type="line"/>
      <point x="731" y="1850" type="line"/>
      <point x="731" y="1866" type="line"/>
      <point x="664" y="1866" type="line"/>
      <point x="480" y="1679" type="line"/>
    </contour>
  </outline>
</glyph>
<glyph name="uni0475" format="1">
  <advance width="1199"/>
  <unicode hex="0475"/>
  <outline>
    <contour>
      <point x="612" y="229" type="line"/>
      <point x="530" y="0" type="line"/>
      <point x="582" y="0" type="line"/>
      <point x="873" y="849" type="line" smooth="yes"/>
      <point x="938" y="1043"/>
      <point x="1012" y="1054"/>
      <point x="1077" y="1054" type="curve" smooth="yes"/>
      <point x="1117" y="1054"/>
      <point x="1148" y="1040"/>
      <point x="1161" y="1032" type="curve"/>
      <point x="1184" y="1073" type="line"/>
      <point x="1162" y="1086"/>
      <point x="1124" y="1101"/>
      <point x="1081" y="1101" type="curve" smooth="yes"/>
      <point x="962" y="1101"/>
      <point x="887" y="1043"/>
      <point x="829" y="874" type="curve" smooth="yes"/>
    </contour>
    <contour>
      <point x="210" y="1082" type="line"/>
      <point x="152" y="1082" type="line"/>
      <point x="531" y="0" type="line"/>
      <point x="582" y="0" type="line"/>
      <point x="502" y="229" type="line"/>
    </contour>
    <contour>
      <point x="152" y="1082" type="line"/>
      <point x="65" y="1082" type="line"/>
      <point x="65" y="1028" type="line"/>
      <point x="216" y="1028" type="line"/>
    </contour>
    <contour>
      <point x="210" y="1082" type="line"/>
      <point x="210" y="1028" type="line"/>
      <point x="373" y="1028" type="line"/>
      <point x="373" y="1082" type="line"/>
    </contour>
  </outline>
</glyph>
<glyph name="uni047B" format="1">
  <advance width="1156"/>
  <unicode hex="047B"/>
  <outline>
    <contour>
      <point x="570" y="1217" type="line"/>
      <point x="516" y="1217" type="line"/>
      <point x="516" y="910" type="line"/>
      <point x="570" y="910" type="line"/>
    </contour>
    <contour>
      <point x="570" y="161" type="line"/>
      <point x="516" y="161" type="line"/>
      <point x="516" y="-146" type="line"/>
      <point x="570" y="-146" type="line"/>
    </contour>
    <contour>
      <point x="104" y="520" type="line" smooth="yes"/>
      <point x="104" y="203"/>
      <point x="297" y="-21"/>
      <point x="579" y="-21" type="curve" smooth="yes"/>
      <point x="860" y="-21"/>
      <point x="1051" y="203"/>
      <point x="1051" y="520" type="curve" smooth="yes"/>
      <point x="1051" y="562" type="line" smooth="yes"/>
      <point x="1051" y="879"/>
      <point x="860" y="1102"/>
      <point x="577" y="1102" type="curve" smooth="yes"/>
      <point x="297" y="1102"/>
      <point x="104" y="879"/>
      <point x="104" y="562" type="curve" smooth="yes"/>
    </contour>
    <contour>
      <point x="158" y="562" type="line" smooth="yes"/>
      <point x="158" y="815"/>
      <point x="313" y="1048"/>
      <point x="577" y="1048" type="curve" smooth="yes"/>
      <point x="842" y="1048"/>
      <point x="997" y="815"/>
      <point x="997" y="562" type="curve" smooth="yes"/>
      <point x="997" y="520" type="line" smooth="yes"/>
      <point x="997" y="261"/>
      <point x="842" y="33"/>
      <point x="579" y="33" type="curve" smooth="yes"/>
      <point x="313" y="33"/>
      <point x="158" y="261"/>
      <point x="158" y="520" type="curve" smooth="yes"/>
    </contour>
  </outline>
</glyph>
<glyph name="uni047D" format="1">
  <advance width="1558"/>
  <unicode hex="047D"/>
  <outline>
    <contour>
      <point x="1249" y="1317" type="line" smooth="yes"/>
      <point x="1041" y="1317"/>
      <point x="982" y="1513"/>
      <point x="801" y="1513" type="curve" smooth="yes"/>
      <point x="653" y="1513"/>
      <point x="565" y="1409"/>
      <point x="565" y="1285" type="curve" smooth="yes"/>
      <point x="565" y="1259" type="line"/>
      <point x="620" y="1259" type="line"/>
      <point x="620" y="1277" type="line" smooth="yes"/>
      <point x="620" y="1371"/>
      <point x="677" y="1460"/>
      <point x="805" y="1460" type="curve" smooth="yes"/>
      <point x="967" y="1460"/>
      <point x="1013" y="1273"/>
      <point x="1246" y="1273" type="curve" smooth="yes"/>
      <point x="1263" y="1273" type="line"/>
      <point x="1263" y="1317" type="line"/>
    </contour>
    <contour>
      <point x="865" y="1193" type="line"/>
      <point x="740" y="1042" type="line"/>
      <point x="704" y="1070" type="line"/>
      <point x="768" y="1196" type="line"/>
      <point x="768" y="1335" type="line"/>
      <point x="865" y="1335" type="line"/>
    </contour>
    <contour>
      <point x="472" y="1097" type="line"/>
      <point x="266" y="1097"/>
      <point x="114" y="955"/>
      <point x="114" y="667" type="curve" smooth="yes"/>
      <point x="114" y="409" type="line" smooth="yes"/>
      <point x="114" y="121"/>
      <point x="266" y="-21"/>
      <point x="472" y="-21" type="curve" smooth="yes"/>
      <point x="677" y="-21"/>
      <point x="829" y="121"/>
      <point x="829" y="409" type="curve" smooth="yes"/>
      <point x="829" y="663" type="line"/>
      <point x="775" y="663" type="line"/>
      <point x="775" y="409" type="line" smooth="yes"/>
      <point x="775" y="167"/>
      <point x="647" y="33"/>
      <point x="472" y="33" type="curve" smooth="yes"/>
      <point x="297" y="33"/>
      <point x="168" y="167"/>
      <point x="168" y="409" type="curve" smooth="yes"/>
      <point x="168" y="667" type="line" smooth="yes"/>
      <point x="168" y="909"/>
      <point x="297" y="1043"/>
      <point x="472" y="1043" type="curve"/>
    </contour>
    <contour>
      <point x="1132" y="1043" type="line"/>
      <point x="1307" y="1043"/>
      <point x="1436" y="909"/>
      <point x="1436" y="667" type="curve" smooth="yes"/>
      <point x="1436" y="409" type="line" smooth="yes"/>
      <point x="1436" y="167"/>
      <point x="1307" y="33"/>
      <point x="1132" y="33" type="curve" smooth="yes"/>
      <point x="957" y="33"/>
      <point x="829" y="167"/>
      <point x="829" y="409" type="curve" smooth="yes"/>
      <point x="829" y="663" type="line"/>
      <point x="775" y="663" type="line"/>
      <point x="775" y="409" type="line" smooth="yes"/>
      <point x="775" y="121"/>
      <point x="927" y="-21"/>
      <point x="1132" y="-21" type="curve" smooth="yes"/>
      <point x="1338" y="-21"/>
      <point x="1490" y="121"/>
      <point x="1490" y="409" type="curve" smooth="yes"/>
      <point x="1490" y="667" type="line" smooth="yes"/>
      <point x="1490" y="955"/>
      <point x="1338" y="1097"/>
      <point x="1132" y="1097" type="curve"/>
    </contour>
  </outline>
</glyph>
<glyph name="uni047E" format="1">
  <advance width="1750"/>
  <unicode hex="047E"/>
  <outline>
    <contour>
      <point x="878" y="1705" type="line"/>
      <point x="878" y="1602" type="line"/>
      <point x="932" y="1602" type="line"/>
      <point x="932" y="1705" type="line"/>
      <point x="1264" y="1705" type="line"/>
      <point x="1262" y="1761" type="line"/>
      <point x="563" y="1761" type="line"/>
      <point x="563" y="1705" type="line"/>
    </contour>
    <contour>
      <point x="845" y="1456" type="line"/>
      <point x="845" y="429" type="line" smooth="yes"/>
      <point x="845" y="174"/>
      <point x="707" y="33"/>
      <point x="522" y="33" type="curve" smooth="yes"/>
      <point x="336" y="33"/>
      <point x="198" y="174"/>
      <point x="198" y="429" type="curve" smooth="yes"/>
      <point x="198" y="1456" type="line"/>
      <point x="144" y="1456" type="line"/>
      <point x="144" y="429" type="line" smooth="yes"/>
      <point x="144" y="128"/>
      <point x="305" y="-21"/>
      <point x="522" y="-21" type="curve" smooth="yes"/>
      <point x="739" y="-21"/>
      <point x="899" y="128"/>
      <point x="899" y="429" type="curve" smooth="yes"/>
      <point x="899" y="1456" type="line"/>
    </contour>
    <contour>
      <point x="1546" y="1456" type="line"/>
      <point x="1546" y="429" type="line" smooth="yes"/>
      <point x="1546" y="174"/>
      <point x="1408" y="33"/>
      <point x="1223" y="33" type="curve" smooth="yes"/>
      <point x="1036" y="33"/>
      <point x="899" y="174"/>
      <point x="899" y="429" type="curve" smooth="yes"/>
      <point x="899" y="1456" type="line"/>
      <point x="845" y="1456" type="line"/>
      <point x="845" y="429" type="line" smooth="yes"/>
      <point x="845" y="128"/>
      <point x="1006" y="-21"/>
      <point x="1223" y="-21" type="curve" smooth="yes"/>
      <point x="1440" y="-21"/>
      <point x="1600" y="128"/>
      <point x="1600" y="429" type="curve" smooth="yes"/>
      <point x="1600" y="1456" type="line"/>
    </contour>
  </outline>
</glyph>
<glyph name="uni0481" format="1">
  <advance width="1037"/>
  <unicode hex="0481"/>
  <outline>
    <contour>
      <point x="557" y="33" type="line"/>
      <point x="291" y="33"/>
      <point x="160" y="249"/>
      <point x="160" y="520" type="curve" smooth="yes"/>
      <point x="160" y="562" type="line" smooth="yes"/>
      <point x="160" y="831"/>
      <point x="291" y="1048"/>
      <point x="555" y="1048" type="curve" smooth="yes"/>
      <point x="734" y="1048"/>
      <point x="894" y="945"/>
      <point x="894" y="720" type="curve"/>
      <point x="948" y="720" type="line"/>
      <point x="948" y="978"/>
      <point x="763" y="1102"/>
      <point x="555" y="1102" type="curve" smooth="yes"/>
      <point x="277" y="1102"/>
      <point x="104" y="879"/>
      <point x="104" y="562" type="curve" smooth="yes"/>
      <point x="104" y="520" type="line" smooth="yes"/>
      <point x="104" y="203"/>
      <point x="277" y="-21"/>
      <point x="557" y="-21" type="curve"/>
    </contour>
    <contour>
      <point x="603" y="33" type="line"/>
      <point x="549" y="33" type="line"/>
      <point x="549" y="-351" type="line"/>
      <point x="603" y="-351" type="line"/>
    </contour>
  </outline>
</glyph>
<glyph name="uni0488" format="1">
  <advance width="2033"/>
  <unicode hex="0488"/>
  <outline>
    <contour>
      <point x="905" y="1267" type="line"/>
      <point x="905" y="1320"/>
      <point x="931" y="1368"/>
      <point x="1002" y="1368" type="curve" smooth="yes"/>
      <point x="1074" y="1368"/>
      <point x="1101" y="1320"/>
      <point x="1101" y="1267" type="curve"/>
      <point x="1213" y="1267" type="line"/>
      <point x="1213" y="1377"/>
      <point x="1132" y="1455"/>
      <point x="1002" y="1455" type="curve" smooth="yes"/>
      <point x="872" y="1455"/>
      <point x="792" y="1377"/>
      <point x="792" y="1267" type="curve"/>
    </contour>
    <contour>
      <point x="1497" y="990" type="line"/>
      <point x="1497" y="1043"/>
      <point x="1523" y="1091"/>
      <point x="1593" y="1091" type="curve" smooth="yes"/>
      <point x="1666" y="1091"/>
      <point x="1692" y="1043"/>
      <point x="1692" y="990" type="curve"/>
      <point x="1805" y="990" type="line"/>
      <point x="1805" y="1100"/>
      <point x="1724" y="1178"/>
      <point x="1593" y="1178" type="curve" smooth="yes"/>
      <point x="1464" y="1178"/>
      <point x="1383" y="1100"/>
      <point x="1383" y="990" type="curve"/>
    </contour>
    <contour>
      <point x="1683" y="487" type="line"/>
      <point x="1683" y="540"/>
      <point x="1710" y="588"/>
      <point x="1780" y="588" type="curve" smooth="yes"/>
      <point x="1853" y="588"/>
      <point x="1879" y="540"/>
      <point x="1879" y="487" type="curve"/>
      <point x="1991" y="487" type="line"/>
      <point x="1991" y="597"/>
      <point x="1911" y="675"/>
      <point x="1780" y="675" type="curve" smooth="yes"/>
      <point x="1651" y="675"/>
      <point x="1570" y="597"/>
      <point x="1570" y="487" type="curve"/>
    </contour>
    <contour>
      <point x="1486" y="-32" type="line"/>
      <point x="1486" y="21"/>
      <point x="1513" y="69"/>
      <point x="1583" y="69" type="curve" smooth="yes"/>
      <point x="1656" y="69"/>
      <point x="1682" y="21"/>
      <point x="1682" y="-32" type="curve"/>
      <point x="1794" y="-32" type="line"/>
      <point x="1794" y="78"/>
      <point x="1714" y="156"/>
      <point x="1583" y="156" type="curve" smooth="yes"/>
      <point x="1454" y="156"/>
      <point x="1373" y="78"/>
      <point x="1373" y="-32" type="curve"/>
    </contour>
    <contour>
      <point x="910" y="-316" type="line"/>
      <point x="910" y="-263"/>
      <point x="937" y="-215"/>
      <point x="1007" y="-215" type="curve" smooth="yes"/>
      <point x="1079" y="-215"/>
      <point x="1106" y="-263"/>
      <point x="1106" y="-316" type="curve"/>
      <point x="1218" y="-316" type="line"/>
      <point x="1218" y="-206"/>
      <point x="1137" y="-128"/>
      <point x="1007" y="-128" type="curve" smooth="yes"/>
      <point x="877" y="-128"/>
      <point x="797" y="-206"/>
      <point x="797" y="-316" type="curve"/>
    </contour>
    <contour>
      <point x="333" y="990" type="line"/>
      <point x="333" y="1043"/>
      <point x="359" y="1091"/>
      <point x="430" y="1091" type="curve" smooth="yes"/>
      <point x="502" y="1091"/>
      <point x="529" y="1043"/>
      <point x="529" y="990" type="curve"/>
      <point x="641" y="990" type="line"/>
      <point x="641" y="1100"/>
      <point x="560" y="1178"/>
      <point x="430" y="1178" type="curve" smooth="yes"/>
      <point x="300" y="1178"/>
      <point x="219" y="1100"/>
      <point x="219" y="990" type="curve"/>
    </contour>
    <contour>
      <point x="156" y="487" type="line"/>
      <point x="156" y="540"/>
      <point x="183" y="588"/>
      <point x="253" y="588" type="curve" smooth="yes"/>
      <point x="326" y="588"/>
      <point x="352" y="540"/>
      <point x="352" y="487" type="curve"/>
      <point x="464" y="487" type="line"/>
      <point x="464" y="597"/>
      <point x="384" y="675"/>
      <point x="253" y="675" type="curve" smooth="yes"/>
      <point x="124" y="675"/>
      <point x="43" y="597"/>
      <point x="43" y="487" type="curve"/>
    </contour>
    <contour>
      <point x="323" y="-32" type="line"/>
      <point x="323" y="21"/>
      <point x="349" y="69"/>
      <point x="419" y="69" type="curve" smooth="yes"/>
      <point x="492" y="69"/>
      <point x="518" y="21"/>
      <point x="518" y="-32" type="curve"/>
      <point x="631" y="-32" type="line"/>
      <point x="631" y="78"/>
      <point x="550" y="156"/>
      <point x="419" y="156" type="curve" smooth="yes"/>
      <point x="290" y="156"/>
      <point x="209" y="78"/>
      <point x="209" y="-32" type="curve"/>
    </contour>
  </outline>
</glyph>
<glyph name="uni048D" format="1">
  <advance width="1080"/>
  <unicode hex="048D"/>
  <outline>
    <contour>
      <point x="200" y="670" type="line"/>
      <point x="200" y="616" type="line"/>
      <point x="580" y="616" type="line" smooth="yes"/>
      <point x="816" y="616"/>
      <point x="913" y="479"/>
      <point x="913" y="337" type="curve" smooth="yes"/>
      <point x="913" y="189"/>
      <point x="816" y="54"/>
      <point x="580" y="54" type="curve" smooth="yes"/>
      <point x="235" y="54" type="line"/>
      <point x="235" y="1622" type="line"/>
      <point x="181" y="1622" type="line"/>
      <point x="181" y="0" type="line"/>
      <point x="580" y="0" type="line" smooth="yes"/>
      <point x="830" y="0"/>
      <point x="967" y="141"/>
      <point x="967" y="335" type="curve" smooth="yes"/>
      <point x="967" y="527"/>
      <point x="830" y="670"/>
      <point x="580" y="670" type="curve" smooth="yes"/>
    </contour>
    <contour>
      <point x="564" y="1456" type="line"/>
      <point x="-23" y="1456" type="line"/>
      <point x="-23" y="1402" type="line"/>
      <point x="564" y="1402" type="line"/>
    </contour>
    <contour>
      <point x="181" y="1622" type="line"/>
      <point x="18" y="1622" type="line"/>
      <point x="18" y="1568" type="line"/>
      <point x="181" y="1568" type="line"/>
    </contour>
    <contour>
      <point x="181" y="0" type="line"/>
      <point x="181" y="54" type="line"/>
      <point x="18" y="54" type="line"/>
      <point x="18" y="0" type="line"/>
    </contour>
  </outline>
</glyph>
<glyph name="uni048E" format="1">
  <advance width="1271"/>
  <unicode hex="048E"/>
  <outline>
    <contour>
      <point x="796" y="894" type="line"/>
      <point x="755" y="859" type="line"/>
      <point x="1056" y="506" type="line"/>
      <point x="1097" y="541" type="line"/>
    </contour>
    <contour>
      <point x="632" y="625" type="line" smooth="yes"/>
      <point x="943" y="625"/>
      <point x="1102" y="796"/>
      <point x="1102" y="1041" type="curve" smooth="yes"/>
      <point x="1102" y="1285"/>
      <point x="942" y="1456"/>
      <point x="632" y="1456" type="curve" smooth="yes"/>
      <point x="227" y="1456" type="line"/>
      <point x="227" y="0" type="line"/>
      <point x="281" y="0" type="line"/>
      <point x="281" y="1402" type="line"/>
      <point x="632" y="1402" type="line" smooth="yes"/>
      <point x="926" y="1402"/>
      <point x="1048" y="1234"/>
      <point x="1048" y="1039" type="curve" smooth="yes"/>
      <point x="1048" y="851"/>
      <point x="926" y="679"/>
      <point x="632" y="679" type="curve" smooth="yes"/>
      <point x="240" y="679" type="line"/>
      <point x="240" y="625" type="line"/>
    </contour>
    <contour>
      <point x="227" y="0" type="line"/>
      <point x="227" y="54" type="line"/>
      <point x="64" y="54" type="line"/>
      <point x="64" y="0" type="line"/>
    </contour>
    <contour>
      <point x="281" y="0" type="line"/>
      <point x="444" y="0" type="line"/>
      <point x="444" y="54" type="line"/>
      <point x="281" y="54" type="line"/>
    </contour>
    <contour>
      <point x="227" y="1456" type="line"/>
      <point x="64" y="1456" type="line"/>
      <point x="64" y="1402" type="line"/>
      <point x="227" y="1402" type="line"/>
    </contour>
  </outline>
</glyph>
<glyph name="uni049C" format="1">
  <advance width="1432"/>
  <unicode hex="049C"/>
  <outline>
    <contour>
      <point x="233" y="1456" type="line"/>
      <point x="233" y="0" type="line"/>
      <point x="287" y="0" type="line"/>
      <point x="287" y="1456" type="line"/>
    </contour>
    <contour>
      <point x="472" y="1081" type="line"/>
      <point x="472" y="397" type="line"/>
      <point x="527" y="397" type="line"/>
      <point x="527" y="1081" type="line"/>
    </contour>
    <contour>
      <point x="627" y="724" type="line"/>
      <point x="1159" y="0" type="line"/>
      <point x="1230" y="0" type="line"/>
      <point x="661" y="771" type="line"/>
    </contour>
    <contour>
      <point x="1230" y="0" type="line"/>
      <point x="1317" y="0" type="line"/>
      <point x="1317" y="54" type="line"/>
      <point x="1166" y="54" type="line"/>
    </contour>
    <contour>
      <point x="287" y="0" type="line"/>
      <point x="450" y="0" type="line"/>
      <point x="450" y="54" type="line"/>
      <point x="287" y="54" type="line"/>
    </contour>
    <contour>
      <point x="287" y="1456" type="line"/>
      <point x="287" y="1402" type="line"/>
      <point x="450" y="1402" type="line"/>
      <point x="450" y="1456" type="line"/>
    </contour>
    <contour>
      <point x="233" y="1456" type="line"/>
      <point x="70" y="1456" type="line"/>
      <point x="70" y="1402" type="line"/>
      <point x="233" y="1402" type="line"/>
    </contour>
    <contour>
      <point x="233" y="0" type="line"/>
      <point x="233" y="54" type="line"/>
      <point x="70" y="54" type="line"/>
      <point x="70" y="0" type="line"/>
    </contour>
    <contour>
      <point x="1323" y="1441" type="line"/>
      <point x="1297" y="1459"/>
      <point x="1263" y="1467"/>
      <point x="1237" y="1467" type="curve" smooth="yes"/>
      <point x="1167" y="1467"/>
      <point x="1108" y="1452"/>
      <point x="1009" y="1323" type="curve" smooth="yes"/>
      <point x="627" y="773" type="line"/>
      <point x="268" y="773" type="line"/>
      <point x="265" y="720" type="line"/>
      <point x="654" y="720" type="line"/>
      <point x="1049" y="1288" type="line" smooth="yes"/>
      <point x="1135" y="1400"/>
      <point x="1173" y="1413"/>
      <point x="1237" y="1413" type="curve" smooth="yes"/>
      <point x="1262" y="1413"/>
      <point x="1283" y="1406"/>
      <point x="1299" y="1395" type="curve"/>
    </contour>
  </outline>
</glyph>
<glyph name="uni049D" format="1">
  <advance width="1296"/>
  <unicode hex="049D"/>
  <outline>
    <contour>
      <point x="253" y="1082" type="line"/>
      <point x="253" y="0" type="line"/>
      <point x="308" y="0" type="line"/>
      <point x="308" y="1082" type="line"/>
    </contour>
    <contour>
      <point x="480" y="850" type="line"/>
      <point x="480" y="250" type="line"/>
      <point x="535" y="250" type="line"/>
      <point x="535" y="850" type="line"/>
    </contour>
    <contour>
      <point x="633" y="533" type="line"/>
      <point x="1024" y="0" type="line"/>
      <point x="1106" y="0" type="line"/>
      <point x="665" y="584" type="line"/>
    </contour>
    <contour>
      <point x="1106" y="0" type="line"/>
      <point x="1183" y="0" type="line"/>
      <point x="1183" y="54" type="line"/>
      <point x="1042" y="54" type="line"/>
    </contour>
    <contour>
      <point x="308" y="0" type="line"/>
      <point x="471" y="0" type="line"/>
      <point x="471" y="54" type="line"/>
      <point x="308" y="54" type="line"/>
    </contour>
    <contour>
      <point x="308" y="1082" type="line"/>
      <point x="308" y="1028" type="line"/>
      <point x="471" y="1028" type="line"/>
      <point x="471" y="1082" type="line"/>
    </contour>
    <contour>
      <point x="253" y="1082" type="line"/>
      <point x="90" y="1082" type="line"/>
      <point x="90" y="1028" type="line"/>
      <point x="253" y="1028" type="line"/>
    </contour>
    <contour>
      <point x="253" y="0" type="line"/>
      <point x="253" y="54" type="line"/>
      <point x="90" y="54" type="line"/>
      <point x="90" y="0" type="line"/>
    </contour>
    <contour>
      <point x="1192" y="1067" type="line"/>
      <point x="1166" y="1085"/>
      <point x="1132" y="1093"/>
      <point x="1106" y="1093" type="curve" smooth="yes"/>
      <point x="1036" y="1093"/>
      <point x="971" y="1082"/>
      <point x="878" y="949" type="curve" smooth="yes"/>
      <point x="621" y="582" type="line"/>
      <point x="296" y="582" type="line"/>
      <point x="293" y="529" type="line"/>
      <point x="648" y="529" type="line"/>
      <point x="918" y="914" type="line" smooth="yes"/>
      <point x="999" y="1029"/>
      <point x="1042" y="1039"/>
      <point x="1106" y="1039" type="curve" smooth="yes"/>
      <point x="1131" y="1039"/>
      <point x="1152" y="1032"/>
      <point x="1168" y="1021" type="curve"/>
    </contour>
  </outline>
</glyph>
<glyph name="uni04A0" format="1">
  <advance width="1786"/>
  <unicode hex="04A0"/>
  <outline>
    <contour>
      <point x="627" y="1456" type="line"/>
      <point x="57" y="1456" type="line"/>
      <point x="57" y="1402" type="line"/>
      <point x="627" y="1402" type="line"/>
    </contour>
    <contour>
      <point x="57" y="1456" type="line"/>
      <point x="57" y="1163" type="line"/>
      <point x="111" y="1163" type="line"/>
      <point x="111" y="1456" type="line"/>
    </contour>
    <contour>
      <point x="683" y="1456" type="line"/>
      <point x="629" y="1456" type="line"/>
      <point x="629" y="0" type="line"/>
      <point x="683" y="0" type="line"/>
    </contour>
    <contour>
      <point x="1585" y="0" type="line"/>
      <point x="1656" y="0" type="line"/>
      <point x="937" y="761" type="line"/>
      <point x="903" y="714" type="line"/>
    </contour>
    <contour>
      <point x="1585" y="0" type="line"/>
      <point x="1585" y="54" type="line"/>
      <point x="1362" y="54" type="line"/>
      <point x="1362" y="0" type="line"/>
    </contour>
    <contour>
      <point x="1656" y="0" type="line"/>
      <point x="1723" y="0" type="line"/>
      <point x="1723" y="54" type="line"/>
      <point x="1592" y="54" type="line"/>
    </contour>
    <contour>
      <point x="629" y="0" type="line"/>
      <point x="629" y="54" type="line"/>
      <point x="466" y="54" type="line"/>
      <point x="466" y="0" type="line"/>
    </contour>
    <contour>
      <point x="683" y="0" type="line"/>
      <point x="846" y="0" type="line"/>
      <point x="846" y="54" type="line"/>
      <point x="683" y="54" type="line"/>
    </contour>
    <contour>
      <point x="683" y="1456" type="line"/>
      <point x="683" y="1402" type="line"/>
      <point x="846" y="1402" type="line"/>
      <point x="846" y="1456" type="line"/>
    </contour>
    <contour>
      <point x="629" y="1456" type="line"/>
      <point x="466" y="1456" type="line"/>
      <point x="466" y="1402" type="line"/>
      <point x="629" y="1402" type="line"/>
    </contour>
    <contour>
      <point x="1663" y="1441" type="line"/>
      <point x="1637" y="1459"/>
      <point x="1603" y="1467"/>
      <point x="1577" y="1467" type="curve" smooth="yes"/>
      <point x="1507" y="1467"/>
      <point x="1448" y="1452"/>
      <point x="1349" y="1323" type="curve" smooth="yes"/>
      <point x="917" y="763" type="line"/>
      <point x="670" y="763" type="line"/>
      <point x="667" y="710" type="line"/>
      <point x="944" y="710" type="line"/>
      <point x="1389" y="1288" type="line" smooth="yes"/>
      <point x="1475" y="1400"/>
      <point x="1513" y="1413"/>
      <point x="1577" y="1413" type="curve" smooth="yes"/>
      <point x="1602" y="1413"/>
      <point x="1623" y="1406"/>
      <point x="1639" y="1395" type="curve"/>
    </contour>
  </outline>
</glyph>
<glyph name="uni04A1" format="1">
  <advance width="1566"/>
  <unicode hex="04A1"/>
  <outline>
    <contour>
      <point x="484" y="1082" type="line"/>
      <point x="82" y="1082" type="line"/>
      <point x="82" y="1028" type="line"/>
      <point x="484" y="1028" type="line"/>
    </contour>
    <contour>
      <point x="82" y="1082" type="line"/>
      <point x="82" y="789" type="line"/>
      <point x="136" y="789" type="line"/>
      <point x="136" y="1082" type="line"/>
    </contour>
    <contour>
      <point x="573" y="1082" type="line"/>
      <point x="518" y="1082" type="line"/>
      <point x="518" y="0" type="line"/>
      <point x="573" y="0" type="line"/>
    </contour>
    <contour>
      <point x="1270" y="0" type="line"/>
      <point x="1351" y="0" type="line"/>
      <point x="799" y="584" type="line"/>
      <point x="767" y="533" type="line"/>
    </contour>
    <contour>
      <point x="1351" y="0" type="line"/>
      <point x="1438" y="0" type="line"/>
      <point x="1438" y="54" type="line"/>
      <point x="1287" y="54" type="line"/>
    </contour>
    <contour>
      <point x="518" y="0" type="line"/>
      <point x="518" y="54" type="line"/>
      <point x="355" y="54" type="line"/>
      <point x="355" y="0" type="line"/>
    </contour>
    <contour>
      <point x="573" y="0" type="line"/>
      <point x="736" y="0" type="line"/>
      <point x="736" y="54" type="line"/>
      <point x="573" y="54" type="line"/>
    </contour>
    <contour>
      <point x="573" y="1082" type="line"/>
      <point x="573" y="1028" type="line"/>
      <point x="736" y="1028" type="line"/>
      <point x="736" y="1082" type="line"/>
    </contour>
    <contour>
      <point x="518" y="1082" type="line"/>
      <point x="355" y="1082" type="line"/>
      <point x="355" y="1028" type="line"/>
      <point x="518" y="1028" type="line"/>
    </contour>
    <contour>
      <point x="1392" y="1067" type="line"/>
      <point x="1366" y="1085"/>
      <point x="1332" y="1093"/>
      <point x="1306" y="1093" type="curve" smooth="yes"/>
      <point x="1236" y="1093"/>
      <point x="1180" y="1075"/>
      <point x="1078" y="949" type="curve" smooth="yes"/>
      <point x="781" y="582" type="line"/>
      <point x="554" y="582" type="line"/>
      <point x="551" y="529" type="line"/>
      <point x="808" y="529" type="line"/>
      <point x="1118" y="914" type="line" smooth="yes"/>
      <point x="1206" y="1024"/>
      <point x="1242" y="1039"/>
      <point x="1306" y="1039" type="curve" smooth="yes"/>
      <point x="1331" y="1039"/>
      <point x="1352" y="1032"/>
      <point x="1368" y="1021" type="curve"/>
    </contour>
  </outline>
</glyph>
<glyph name="uni04A5" format="1">
  <advance width="1505"/>
  <unicode hex="04A5"/>
  <outline>
    <contour>
      <point x="1481" y="1082" type="line"/>
      <point x="961" y="1082" type="line"/>
      <point x="976" y="1027" type="line"/>
      <point x="1481" y="1027" type="line"/>
    </contour>
    <contour>
      <point x="1481" y="1082" type="line"/>
      <point x="1427" y="1082" type="line"/>
      <point x="1427" y="789" type="line"/>
      <point x="1481" y="789" type="line"/>
    </contour>
    <contour>
      <point x="1002" y="583" type="line"/>
      <point x="292" y="583" type="line"/>
      <point x="292" y="529" type="line"/>
      <point x="1002" y="529" type="line"/>
    </contour>
    <contour>
      <point x="314" y="1082" type="line"/>
      <point x="260" y="1082" type="line"/>
      <point x="260" y="0" type="line"/>
      <point x="314" y="0" type="line"/>
    </contour>
    <contour>
      <point x="1038" y="1082" type="line"/>
      <point x="983" y="1082" type="line"/>
      <point x="983" y="0" type="line"/>
      <point x="1038" y="0" type="line"/>
    </contour>
    <contour>
      <point x="1038" y="1082" type="line"/>
      <point x="1038" y="1028" type="line"/>
      <point x="1201" y="1028" type="line"/>
      <point x="1201" y="1082" type="line"/>
    </contour>
    <contour>
      <point x="983" y="1082" type="line"/>
      <point x="820" y="1082" type="line"/>
      <point x="820" y="1028" type="line"/>
      <point x="983" y="1028" type="line"/>
    </contour>
    <contour>
      <point x="983" y="0" type="line"/>
      <point x="983" y="54" type="line"/>
      <point x="820" y="54" type="line"/>
      <point x="820" y="0" type="line"/>
    </contour>
    <contour>
      <point x="1038" y="0" type="line"/>
      <point x="1201" y="0" type="line"/>
      <point x="1201" y="54" type="line"/>
      <point x="1038" y="54" type="line"/>
    </contour>
    <contour>
      <point x="314" y="0" type="line"/>
      <point x="477" y="0" type="line"/>
      <point x="477" y="54" type="line"/>
      <point x="314" y="54" type="line"/>
    </contour>
    <contour>
      <point x="260" y="0" type="line"/>
      <point x="260" y="54" type="line"/>
      <point x="97" y="54" type="line"/>
      <point x="97" y="0" type="line"/>
    </contour>
    <contour>
      <point x="260" y="1082" type="line"/>
      <point x="97" y="1082" type="line"/>
      <point x="97" y="1028" type="line"/>
      <point x="260" y="1028" type="line"/>
    </contour>
    <contour>
      <point x="314" y="1082" type="line"/>
      <point x="314" y="1028" type="line"/>
      <point x="477" y="1028" type="line"/>
      <point x="477" y="1082" type="line"/>
    </contour>
  </outline>
</glyph>
<glyph name="uni04A9" format="1">
  <advance width="1243"/>
  <unicode hex="04A9"/>
  <outline>
    <contour>
      <point x="1110" y="42" type="line"/>
      <point x="773" y="42"/>
      <point x="555" y="245"/>
      <point x="555" y="545" type="curve" smooth="yes"/>
      <point x="555" y="657" type="line" smooth="yes"/>
      <point x="555" y="876"/>
      <point x="637" y="1047"/>
      <point x="789" y="1047" type="curve" smooth="yes"/>
      <point x="930" y="1047"/>
      <point x="1025" y="862"/>
      <point x="1025" y="637" type="curve" smooth="yes"/>
      <point x="1025" y="532" type="line" smooth="yes"/>
      <point x="1025" y="253"/>
      <point x="863" y="33"/>
      <point x="584" y="33" type="curve" smooth="yes"/>
      <point x="320" y="33"/>
      <point x="166" y="253"/>
      <point x="166" y="533" type="curve" smooth="yes"/>
      <point x="166" y="629" type="line" smooth="yes"/>
      <point x="166" y="869"/>
      <point x="298" y="1048"/>
      <point x="444" y="1048" type="curve"/>
      <point x="444" y="1102" type="line"/>
      <point x="245" y="1102"/>
      <point x="112" y="898"/>
      <point x="112" y="627" type="curve" smooth="yes"/>
      <point x="112" y="533" type="line" smooth="yes"/>
      <point x="112" y="219"/>
      <point x="301" y="-21"/>
      <point x="584" y="-21" type="curve" smooth="yes"/>
      <point x="881" y="-21"/>
      <point x="1079" y="218"/>
      <point x="1079" y="532" type="curve" smooth="yes"/>
      <point x="1079" y="634" type="line" smooth="yes"/>
      <point x="1079" y="898"/>
      <point x="962" y="1101"/>
      <point x="789" y="1101" type="curve" smooth="yes"/>
      <point x="616" y="1101"/>
      <point x="501" y="917"/>
      <point x="501" y="655" type="curve" smooth="yes"/>
      <point x="501" y="547" type="line" smooth="yes"/>
      <point x="501" y="215"/>
      <point x="744" y="-12"/>
      <point x="1110" y="-12" type="curve"/>
    </contour>
  </outline>
</glyph>
<glyph name="uni04B4" format="1">
  <advance width="1806"/>
  <unicode hex="04B4"/>
  <outline>
    <contour>
      <point x="1021" y="1455" type="line"/>
      <point x="77" y="1455" type="line"/>
      <point x="77" y="1401" type="line"/>
      <point x="1021" y="1401" type="line"/>
    </contour>
    <contour>
      <point x="1021" y="1455" type="line"/>
      <point x="967" y="1455" type="line"/>
      <point x="967" y="1162" type="line"/>
      <point x="1021" y="1162" type="line"/>
    </contour>
    <contour>
      <point x="77" y="1455" type="line"/>
      <point x="77" y="1162" type="line"/>
      <point x="131" y="1162" type="line"/>
      <point x="131" y="1455" type="line"/>
    </contour>
    <contour>
      <point x="1667" y="54" type="line"/>
      <point x="1469" y="54" type="line"/>
      <point x="1469" y="0" type="line"/>
      <point x="1613" y="0" type="line"/>
      <point x="1613" y="-351" type="line"/>
      <point x="1667" y="-351" type="line"/>
    </contour>
    <contour>
      <point x="496" y="0" type="line"/>
      <point x="1534" y="0" type="line"/>
      <point x="1534" y="1456" type="line"/>
      <point x="1480" y="1456" type="line"/>
      <point x="1480" y="54" type="line"/>
      <point x="550" y="54" type="line"/>
      <point x="550" y="1456" type="line"/>
      <point x="496" y="1456" type="line"/>
    </contour>
    <contour>
      <point x="496" y="1456" type="line"/>
      <point x="333" y="1456" type="line"/>
      <point x="333" y="1402" type="line"/>
      <point x="496" y="1402" type="line"/>
    </contour>
    <contour>
      <point x="550" y="1456" type="line"/>
      <point x="550" y="1402" type="line"/>
      <point x="713" y="1402" type="line"/>
      <point x="713" y="1456" type="line"/>
    </contour>
    <contour>
      <point x="1480" y="1456" type="line"/>
      <point x="1317" y="1456" type="line"/>
      <point x="1317" y="1402" type="line"/>
      <point x="1480" y="1402" type="line"/>
    </contour>
    <contour>
      <point x="1534" y="1456" type="line"/>
      <point x="1534" y="1402" type="line"/>
      <point x="1697" y="1402" type="line"/>
      <point x="1697" y="1456" type="line"/>
    </contour>
    <contour>
      <point x="496" y="0" type="line"/>
      <point x="496" y="54" type="line"/>
      <point x="333" y="54" type="line"/>
      <point x="333" y="0" type="line"/>
    </contour>
  </outline>
</glyph>
<glyph name="uni04B8" format="1">
  <advance width="1461"/>
  <unicode hex="04B8"/>
  <outline>
    <contour>
      <point x="710" y="1083" type="line"/>
      <point x="655" y="1083" type="line"/>
      <point x="655" y="401" type="line"/>
      <point x="710" y="401" type="line"/>
    </contour>
    <contour>
      <point x="222" y="1456" type="line"/>
      <point x="222" y="1105" type="line" smooth="yes"/>
      <point x="222" y="779"/>
      <point x="394" y="658"/>
      <point x="701" y="658" type="curve" smooth="yes"/>
      <point x="850" y="658"/>
      <point x="1002" y="690"/>
      <point x="1135" y="728" type="curve"/>
      <point x="1135" y="782" type="line"/>
      <point x="990" y="737"/>
      <point x="847" y="712"/>
      <point x="701" y="712" type="curve" smooth="yes"/>
      <point x="426" y="712"/>
      <point x="276" y="825"/>
      <point x="276" y="1105" type="curve" smooth="yes"/>
      <point x="276" y="1456" type="line"/>
    </contour>
    <contour>
      <point x="1103" y="1456" type="line"/>
      <point x="1103" y="0" type="line"/>
      <point x="1157" y="0" type="line"/>
      <point x="1157" y="1456" type="line"/>
    </contour>
    <contour>
      <point x="1157" y="1456" type="line"/>
      <point x="1157" y="1402" type="line"/>
      <point x="1320" y="1402" type="line"/>
      <point x="1320" y="1456" type="line"/>
    </contour>
    <contour>
      <point x="1157" y="0" type="line"/>
      <point x="1320" y="0" type="line"/>
      <point x="1320" y="54" type="line"/>
      <point x="1157" y="54" type="line"/>
    </contour>
    <contour>
      <point x="1103" y="0" type="line"/>
      <point x="1103" y="54" type="line"/>
      <point x="940" y="54" type="line"/>
      <point x="940" y="0" type="line"/>
    </contour>
    <contour>
      <point x="1103" y="1456" type="line"/>
      <point x="940" y="1456" type="line"/>
      <point x="940" y="1402" type="line"/>
      <point x="1103" y="1402" type="line"/>
    </contour>
    <contour>
      <point x="276" y="1456" type="line"/>
      <point x="276" y="1402" type="line"/>
      <point x="439" y="1402" type="line"/>
      <point x="439" y="1456" type="line"/>
    </contour>
    <contour>
      <point x="222" y="1456" type="line"/>
      <point x="59" y="1456" type="line"/>
      <point x="59" y="1402" type="line"/>
      <point x="222" y="1402" type="line"/>
    </contour>
  </outline>
</glyph>
<glyph name="uni04BC" format="1">
  <advance width="1525"/>
  <unicode hex="04BC"/>
  <outline>
    <contour>
      <point x="60" y="1074" type="line"/>
      <point x="60" y="871"/>
      <point x="187" y="761"/>
      <point x="403" y="761" type="curve"/>
      <point x="403" y="816" type="line"/>
      <point x="213" y="816"/>
      <point x="115" y="909"/>
      <point x="115" y="1074" type="curve"/>
    </contour>
    <contour>
      <point x="936" y="-23" type="curve" smooth="yes"/>
      <point x="1184" y="-23"/>
      <point x="1311" y="60"/>
      <point x="1402" y="142" type="curve"/>
      <point x="1372" y="185" type="line"/>
      <point x="1269" y="94"/>
      <point x="1124" y="31"/>
      <point x="936" y="31" type="curve" smooth="yes"/>
      <point x="571" y="31"/>
      <point x="413" y="267"/>
      <point x="413" y="559" type="curve" smooth="yes"/>
      <point x="413" y="871" type="line" smooth="yes"/>
      <point x="413" y="1175"/>
      <point x="592" y="1420"/>
      <point x="891" y="1420" type="curve" smooth="yes"/>
      <point x="1201" y="1420"/>
      <point x="1375" y="1177"/>
      <point x="1375" y="869" type="curve" smooth="yes"/>
      <point x="1375" y="818" type="line"/>
      <point x="395" y="818" type="line"/>
      <point x="395" y="763" type="line"/>
      <point x="1429" y="763" type="line"/>
      <point x="1429" y="866" type="line" smooth="yes"/>
      <point x="1429" y="1240"/>
      <point x="1217" y="1475"/>
      <point x="891" y="1475" type="curve" smooth="yes"/>
      <point x="585" y="1475"/>
      <point x="359" y="1226"/>
      <point x="359" y="871" type="curve" smooth="yes"/>
      <point x="359" y="559" type="line" smooth="yes"/>
      <point x="359" y="219"/>
      <point x="563" y="-23"/>
    </contour>
  </outline>
</glyph>
<glyph name="uni04C7" format="1">
  <advance width="1535"/>
  <unicode hex="04C7"/>
  <outline>
    <contour>
      <point x="240" y="1456" type="line"/>
      <point x="240" y="0" type="line"/>
      <point x="294" y="0" type="line"/>
      <point x="294" y="695" type="line"/>
      <point x="1224" y="695" type="line"/>
      <point x="1224" y="-89" type="line" smooth="yes"/>
      <point x="1224" y="-277"/>
      <point x="1140" y="-383"/>
      <point x="994" y="-383" type="curve" smooth="yes"/>
      <point x="957" y="-383"/>
      <point x="915" y="-373"/>
      <point x="895" y="-365" type="curve"/>
      <point x="881" y="-417" type="line"/>
      <point x="920" y="-430"/>
      <point x="953" y="-437"/>
      <point x="994" y="-437" type="curve" smooth="yes"/>
      <point x="1172" y="-437"/>
      <point x="1278" y="-314"/>
      <point x="1278" y="-89" type="curve" smooth="yes"/>
      <point x="1278" y="1456" type="line"/>
      <point x="1224" y="1456" type="line"/>
      <point x="1224" y="749" type="line"/>
      <point x="294" y="749" type="line"/>
      <point x="294" y="1456" type="line"/>
    </contour>
    <contour>
      <point x="1278" y="1456" type="line"/>
      <point x="1278" y="1402" type="line"/>
      <point x="1441" y="1402" type="line"/>
      <point x="1441" y="1456" type="line"/>
    </contour>
    <contour>
      <point x="1224" y="1456" type="line"/>
      <point x="1061" y="1456" type="line"/>
      <point x="1061" y="1402" type="line"/>
      <point x="1224" y="1402" type="line"/>
    </contour>
    <contour>
      <point x="294" y="1456" type="line"/>
      <point x="294" y="1402" type="line"/>
      <point x="457" y="1402" type="line"/>
      <point x="457" y="1456" type="line"/>
    </contour>
    <contour>
      <point x="294" y="0" type="line"/>
      <point x="457" y="0" type="line"/>
      <point x="457" y="54" type="line"/>
      <point x="294" y="54" type="line"/>
    </contour>
    <contour>
      <point x="240" y="1456" type="line"/>
      <point x="77" y="1456" type="line"/>
      <point x="77" y="1402" type="line"/>
      <point x="240" y="1402" type="line"/>
    </contour>
    <contour>
      <point x="240" y="0" type="line"/>
      <point x="240" y="54" type="line"/>
      <point x="77" y="54" type="line"/>
      <point x="77" y="0" type="line"/>
    </contour>
  </outline>
</glyph>
<glyph name="uni04C8" format="1">
  <advance width="1325"/>
  <unicode hex="04C8"/>
  <outline>
    <contour>
      <point x="253" y="1082" type="line"/>
      <point x="253" y="0" type="line"/>
      <point x="307" y="0" type="line"/>
      <point x="307" y="529" type="line"/>
      <point x="976" y="529" type="line"/>
      <point x="976" y="-89" type="line" smooth="yes"/>
      <point x="976" y="-277"/>
      <point x="893" y="-383"/>
      <point x="745" y="-383" type="curve" smooth="yes"/>
      <point x="708" y="-383"/>
      <point x="666" y="-373"/>
      <point x="646" y="-365" type="curve"/>
      <point x="633" y="-417" type="line"/>
      <point x="672" y="-430"/>
      <point x="704" y="-437"/>
      <point x="745" y="-437" type="curve" smooth="yes"/>
      <point x="924" y="-437"/>
      <point x="1031" y="-314"/>
      <point x="1031" y="-89" type="curve" smooth="yes"/>
      <point x="1031" y="1082" type="line"/>
      <point x="976" y="1082" type="line"/>
      <point x="976" y="583" type="line"/>
      <point x="307" y="583" type="line"/>
      <point x="307" y="1082" type="line"/>
    </contour>
    <contour>
      <point x="1031" y="1082" type="line"/>
      <point x="1031" y="1028" type="line"/>
      <point x="1194" y="1028" type="line"/>
      <point x="1194" y="1082" type="line"/>
    </contour>
    <contour>
      <point x="976" y="1082" type="line"/>
      <point x="813" y="1082" type="line"/>
      <point x="813" y="1028" type="line"/>
      <point x="976" y="1028" type="line"/>
    </contour>
    <contour>
      <point x="307" y="1082" type="line"/>
      <point x="307" y="1028" type="line"/>
      <point x="470" y="1028" type="line"/>
      <point x="470" y="1082" type="line"/>
    </contour>
    <contour>
      <point x="307" y="0" type="line"/>
      <point x="470" y="0" type="line"/>
      <point x="470" y="54" type="line"/>
      <point x="307" y="54" type="line"/>
    </contour>
    <contour>
      <point x="253" y="1082" type="line"/>
      <point x="90" y="1082" type="line"/>
      <point x="90" y="1028" type="line"/>
      <point x="253" y="1028" type="line"/>
    </contour>
    <contour>
      <point x="253" y="0" type="line"/>
      <point x="253" y="54" type="line"/>
      <point x="90" y="54" type="line"/>
      <point x="90" y="0" type="line"/>
    </contour>
  </outline>
</glyph>
<glyph name="uni04FA" format="1">
  <advance width="1122"/>
  <unicode hex="04FA"/>
  <outline>
    <contour>
      <point x="1102" y="1456" type="line"/>
      <point x="240" y="1456" type="line"/>
      <point x="240" y="0" type="line"/>
      <point x="294" y="0" type="line"/>
      <point x="294" y="1402" type="line"/>
      <point x="1102" y="1402" type="line"/>
    </contour>
    <contour>
      <point x="240" y="0" type="line"/>
      <point x="240" y="54" type="line"/>
      <point x="77" y="54" type="line"/>
      <point x="77" y="0" type="line"/>
    </contour>
    <contour>
      <point x="294" y="0" type="line"/>
      <point x="457" y="0" type="line"/>
      <point x="457" y="54" type="line"/>
      <point x="294" y="54" type="line"/>
    </contour>
    <contour>
      <point x="1102" y="1456" type="line"/>
      <point x="1048" y="1456" type="line"/>
      <point x="1048" y="1163" type="line"/>
      <point x="1102" y="1163" type="line"/>
    </contour>
    <contour>
      <point x="240" y="1456" type="line"/>
      <point x="77" y="1456" type="line"/>
      <point x="77" y="1402" type="line"/>
      <point x="240" y="1402" type="line"/>
    </contour>
    <contour>
      <point x="625" y="847" type="line"/>
      <point x="38" y="847" type="line"/>
      <point x="38" y="793" type="line"/>
      <point x="625" y="793" type="line"/>
    </contour>
    <contour>
      <point x="403" y="0" type="line"/>
      <point x="403" y="-108" type="line" smooth="yes"/>
      <point x="403" y="-257"/>
      <point x="334" y="-343"/>
      <point x="212" y="-343" type="curve" smooth="yes"/>
      <point x="175" y="-343"/>
      <point x="134" y="-324"/>
      <point x="113" y="-324" type="curve"/>
      <point x="100" y="-376" type="line"/>
      <point x="139" y="-389"/>
      <point x="171" y="-396"/>
      <point x="212" y="-396" type="curve" smooth="yes"/>
      <point x="365" y="-396"/>
      <point x="457" y="-294"/>
      <point x="457" y="-108" type="curve" smooth="yes"/>
      <point x="457" y="0" type="line"/>
    </contour>
  </outline>
</glyph>
<glyph name="uni0502" format="1">
  <advance width="1632"/>
  <unicode hex="0502"/>
  <outline>
    <contour>
      <point x="550" y="808" type="line" smooth="yes"/>
      <point x="238" y="808"/>
      <point x="79" y="636"/>
      <point x="79" y="404" type="curve" smooth="yes"/>
      <point x="79" y="172"/>
      <point x="239" y="0"/>
      <point x="550" y="0" type="curve" smooth="yes"/>
      <point x="974" y="0" type="line"/>
      <point x="974" y="1456" type="line"/>
      <point x="920" y="1456" type="line"/>
      <point x="920" y="54" type="line"/>
      <point x="550" y="54" type="line" smooth="yes"/>
      <point x="255" y="54"/>
      <point x="134" y="222"/>
      <point x="134" y="406" type="curve" smooth="yes"/>
      <point x="134" y="582"/>
      <point x="255" y="754"/>
      <point x="550" y="754" type="curve" smooth="yes"/>
      <point x="961" y="754" type="line"/>
      <point x="961" y="808" type="line"/>
    </contour>
    <contour>
      <point x="1132" y="0" type="line" smooth="yes"/>
      <point x="1310" y="0"/>
      <point x="1468" y="124"/>
      <point x="1473" y="382" type="curve" smooth="yes"/>
      <point x="1476" y="504"/>
      <point x="1443" y="628"/>
      <point x="1408" y="745" type="curve"/>
      <point x="1358" y="745" type="line"/>
      <point x="1398" y="628"/>
      <point x="1421" y="498"/>
      <point x="1419" y="382" type="curve" smooth="yes"/>
      <point x="1414" y="180"/>
      <point x="1315" y="54"/>
      <point x="1132" y="52" type="curve" smooth="yes"/>
      <point x="963" y="51" type="line"/>
      <point x="963" y="0" type="line"/>
    </contour>
    <contour>
      <point x="974" y="1456" type="line"/>
      <point x="974" y="1402" type="line"/>
      <point x="1137" y="1402" type="line"/>
      <point x="1137" y="1456" type="line"/>
    </contour>
    <contour>
      <point x="920" y="1456" type="line"/>
      <point x="757" y="1456" type="line"/>
      <point x="757" y="1402" type="line"/>
      <point x="920" y="1402" type="line"/>
    </contour>
  </outline>
</glyph>
<glyph name="uni0506" format="1">
  <advance width="1106"/>
  <unicode hex="0506"/>
  <outline>
    <contour>
      <point x="523" y="683" type="line"/>
      <point x="550" y="693"/>
      <point x="545" y="693"/>
      <point x="598" y="702" type="curve"/>
      <point x="604" y="702"/>
      <point x="621" y="693"/>
      <point x="627" y="694" type="curve"/>
      <point x="854" y="715"/>
      <point x="978" y="875"/>
      <point x="978" y="1072" type="curve" smooth="yes"/>
      <point x="978" y="1303"/>
      <point x="818" y="1424"/>
      <point x="526" y="1424" type="curve" smooth="yes"/>
      <point x="345" y="1424"/>
      <point x="183" y="1350"/>
      <point x="93" y="1237" type="curve"/>
      <point x="93" y="1005" type="line"/>
      <point x="147" y="1005" type="line"/>
      <point x="147" y="1217" type="line"/>
      <point x="227" y="1307"/>
      <point x="356" y="1370"/>
      <point x="526" y="1370" type="curve" smooth="yes"/>
      <point x="809" y="1370"/>
      <point x="924" y="1254"/>
      <point x="924" y="1074" type="curve" smooth="yes"/>
      <point x="924" y="851"/>
      <point x="786" y="738"/>
      <point x="528" y="738" type="curve" smooth="yes"/>
      <point x="332" y="738" type="line"/>
      <point x="332" y="683" type="line"/>
    </contour>
    <contour>
      <point x="509" y="683" type="line"/>
      <point x="762" y="683"/>
      <point x="899" y="565"/>
      <point x="899" y="369" type="curve" smooth="yes"/>
      <point x="899" y="236" type="line" smooth="yes"/>
      <point x="899" y="136"/>
      <point x="925" y="54"/>
      <point x="972" y="-1" type="curve"/>
      <point x="1025" y="-1" type="line"/>
      <point x="1025" y="24" type="line"/>
      <point x="972" y="73"/>
      <point x="953" y="151"/>
      <point x="953" y="234" type="curve" smooth="yes"/>
      <point x="953" y="371" type="line" smooth="yes"/>
      <point x="953" y="574"/>
      <point x="852" y="722"/>
      <point x="521" y="722" type="curve"/>
    </contour>
    <contour>
      <point x="1068" y="47" type="line"/>
      <point x="1014" y="47" type="line"/>
      <point x="1014" y="-87" type="line" smooth="yes"/>
      <point x="1014" y="-190"/>
      <point x="985" y="-257"/>
      <point x="925" y="-335" type="curve"/>
      <point x="962" y="-367" type="line"/>
      <point x="1025" y="-300"/>
      <point x="1068" y="-208"/>
      <point x="1068" y="-85" type="curve" smooth="yes"/>
    </contour>
  </outline>
</glyph>
<glyph name="uni0507" format="1">
  <advance width="975"/>
  <unicode hex="0507"/>
  <outline>
    <contour>
      <point x="486" y="494" type="line" smooth="yes"/>
      <point x="517" y="493"/>
      <point x="514" y="493"/>
      <point x="559" y="489" type="curve"/>
      <point x="564" y="490"/>
      <point x="569" y="502"/>
      <point x="574" y="503" type="curve" smooth="yes"/>
      <point x="734" y="532"/>
      <point x="821" y="641"/>
      <point x="821" y="766" type="curve" smooth="yes"/>
      <point x="821" y="947"/>
      <point x="685" y="1064"/>
      <point x="451" y="1064" type="curve" smooth="yes"/>
      <point x="228" y="1064"/>
      <point x="41" y="950"/>
      <point x="41" y="762" type="curve"/>
      <point x="95" y="762" type="line"/>
      <point x="95" y="918"/>
      <point x="252" y="1010"/>
      <point x="451" y="1010" type="curve" smooth="yes"/>
      <point x="648" y="1014"/>
      <point x="766" y="902"/>
      <point x="766" y="766" type="curve" smooth="yes"/>
      <point x="766" y="644"/>
      <point x="660" y="545"/>
      <point x="473" y="545" type="curve" smooth="yes"/>
      <point x="248" y="545" type="line"/>
      <point x="250" y="494" type="line"/>
    </contour>
    <contour>
      <point x="474" y="494" type="line"/>
      <point x="662" y="494"/>
      <point x="765" y="409"/>
      <point x="765" y="269" type="curve" smooth="yes"/>
      <point x="765" y="173" type="line" smooth="yes"/>
      <point x="765" y="138"/>
      <point x="765" y="40"/>
      <point x="781" y="0" type="curve"/>
      <point x="840" y="0" type="line"/>
      <point x="840" y="20" type="line"/>
      <point x="822" y="55"/>
      <point x="819" y="110"/>
      <point x="819" y="172" type="curve" smooth="yes"/>
      <point x="819" y="271" type="line" smooth="yes"/>
      <point x="819" y="423"/>
      <point x="742" y="534"/>
      <point x="484" y="534" type="curve"/>
    </contour>
    <contour>
      <point x="870" y="127" type="line"/>
      <point x="816" y="127" type="line"/>
      <point x="816" y="-7" type="line" smooth="yes"/>
      <point x="816" y="-110"/>
      <point x="787" y="-177"/>
      <point x="727" y="-255" type="curve"/>
      <point x="764" y="-287" type="line"/>
      <point x="827" y="-220"/>
      <point x="870" y="-128"/>
      <point x="870" y="-5" type="curve" smooth="yes"/>
    </contour>
  </outline>
</glyph>
<glyph name="uni050A" format="1">
  <advance width="1972"/>
  <unicode hex="050A"/>
  <outline>
    <contour>
      <point x="261" y="747" type="line"/>
      <point x="261" y="693" type="line"/>
      <point x="1115" y="693" type="line"/>
      <point x="1115" y="747" type="line"/>
    </contour>
    <contour>
      <point x="233" y="1456" type="line"/>
      <point x="233" y="0" type="line"/>
      <point x="287" y="0" type="line"/>
      <point x="287" y="1456" type="line"/>
    </contour>
    <contour>
      <point x="1092" y="1456" type="line"/>
      <point x="1092" y="345" type="line" smooth="yes"/>
      <point x="1100" y="83"/>
      <point x="1204" y="-25"/>
      <point x="1374" y="-21" type="curve" smooth="yes"/>
      <point x="1604" y="-21"/>
      <point x="1771" y="158"/>
      <point x="1776" y="529" type="curve" smooth="yes"/>
      <point x="1779" y="666"/>
      <point x="1744" y="802"/>
      <point x="1709" y="932" type="curve"/>
      <point x="1653" y="931" type="line"/>
      <point x="1692" y="798"/>
      <point x="1723" y="662"/>
      <point x="1722" y="529" type="curve" smooth="yes"/>
      <point x="1718" y="227"/>
      <point x="1597" y="36"/>
      <point x="1374" y="33" type="curve" smooth="yes"/>
      <point x="1235" y="33"/>
      <point x="1145" y="130"/>
      <point x="1146" y="345" type="curve" smooth="yes"/>
      <point x="1146" y="1456" type="line"/>
    </contour>
    <contour>
      <point x="1146" y="1456" type="line"/>
      <point x="1146" y="1402" type="line"/>
      <point x="1309" y="1402" type="line"/>
      <point x="1309" y="1456" type="line"/>
    </contour>
    <contour>
      <point x="1092" y="1456" type="line"/>
      <point x="929" y="1456" type="line"/>
      <point x="929" y="1402" type="line"/>
      <point x="1092" y="1402" type="line"/>
    </contour>
    <contour>
      <point x="1653" y="931" type="line"/>
      <point x="1566" y="931" type="line"/>
      <point x="1566" y="877" type="line"/>
      <point x="1717" y="877" type="line"/>
    </contour>
    <contour>
      <point x="287" y="1456" type="line"/>
      <point x="287" y="1402" type="line"/>
      <point x="450" y="1402" type="line"/>
      <point x="450" y="1456" type="line"/>
    </contour>
    <contour>
      <point x="287" y="0" type="line"/>
      <point x="450" y="0" type="line"/>
      <point x="450" y="54" type="line"/>
      <point x="287" y="54" type="line"/>
    </contour>
    <contour>
      <point x="233" y="0" type="line"/>
      <point x="233" y="54" type="line"/>
      <point x="70" y="54" type="line"/>
      <point x="70" y="0" type="line"/>
    </contour>
    <contour>
      <point x="233" y="1456" type="line"/>
      <point x="70" y="1456" type="line"/>
      <point x="70" y="1402" type="line"/>
      <point x="233" y="1402" type="line"/>
    </contour>
  </outline>
</glyph>
<glyph name="uni050B" format="1">
  <advance width="1784"/>
  <unicode hex="050B"/>
  <outline>
    <contour>
      <point x="979" y="572" type="line"/>
      <point x="278" y="572" type="line"/>
      <point x="278" y="519" type="line"/>
      <point x="979" y="519" type="line"/>
    </contour>
    <contour>
      <point x="307" y="1082" type="line"/>
      <point x="253" y="1082" type="line"/>
      <point x="253" y="0" type="line"/>
      <point x="307" y="0" type="line"/>
    </contour>
    <contour>
      <point x="961" y="345" type="line" smooth="yes"/>
      <point x="968" y="83"/>
      <point x="1065" y="-25"/>
      <point x="1222" y="-21" type="curve" smooth="yes"/>
      <point x="1441" y="-21"/>
      <point x="1600" y="130"/>
      <point x="1605" y="444" type="curve" smooth="yes"/>
      <point x="1608" y="573"/>
      <point x="1572" y="701"/>
      <point x="1537" y="826" type="curve"/>
      <point x="1481" y="825" type="line"/>
      <point x="1520" y="699"/>
      <point x="1552" y="570"/>
      <point x="1550" y="444" type="curve" smooth="yes"/>
      <point x="1546" y="193"/>
      <point x="1432" y="36"/>
      <point x="1222" y="33" type="curve" smooth="yes"/>
      <point x="1095" y="33"/>
      <point x="1014" y="130"/>
      <point x="1015" y="345" type="curve" smooth="yes"/>
      <point x="1015" y="1082" type="line"/>
      <point x="961" y="1082" type="line"/>
    </contour>
    <contour>
      <point x="1015" y="1082" type="line"/>
      <point x="1015" y="1028" type="line"/>
      <point x="1178" y="1028" type="line"/>
      <point x="1178" y="1082" type="line"/>
    </contour>
    <contour>
      <point x="961" y="1082" type="line"/>
      <point x="798" y="1082" type="line"/>
      <point x="798" y="1028" type="line"/>
      <point x="961" y="1028" type="line"/>
    </contour>
    <contour>
      <point x="307" y="0" type="line"/>
      <point x="470" y="0" type="line"/>
      <point x="470" y="54" type="line"/>
      <point x="307" y="54" type="line"/>
    </contour>
    <contour>
      <point x="253" y="0" type="line"/>
      <point x="253" y="54" type="line"/>
      <point x="90" y="54" type="line"/>
      <point x="90" y="0" type="line"/>
    </contour>
    <contour>
      <point x="253" y="1082" type="line"/>
      <point x="90" y="1082" type="line"/>
      <point x="90" y="1028" type="line"/>
      <point x="253" y="1028" type="line"/>
    </contour>
    <contour>
      <point x="307" y="1082" type="line"/>
      <point x="307" y="1028" type="line"/>
      <point x="470" y="1028" type="line"/>
      <point x="470" y="1082" type="line"/>
    </contour>
  </outline>
</glyph>
<glyph name="uni050E" format="1">
  <advance width="1444"/>
  <unicode hex="050E"/>
  <outline>
    <contour>
      <point x="1229" y="1456" type="line"/>
      <point x="77" y="1456" type="line"/>
      <point x="77" y="1402" type="line"/>
      <point x="1229" y="1402" type="line"/>
    </contour>
    <contour>
      <point x="628" y="345" type="line" smooth="yes"/>
      <point x="637" y="83"/>
      <point x="742" y="-25"/>
      <point x="911" y="-21" type="curve" smooth="yes"/>
      <point x="1140" y="-21"/>
      <point x="1308" y="158"/>
      <point x="1313" y="529" type="curve" smooth="yes"/>
      <point x="1316" y="666"/>
      <point x="1280" y="802"/>
      <point x="1246" y="932" type="curve"/>
      <point x="1190" y="931" type="line"/>
      <point x="1229" y="798"/>
      <point x="1260" y="662"/>
      <point x="1259" y="529" type="curve" smooth="yes"/>
      <point x="1255" y="227"/>
      <point x="1134" y="36"/>
      <point x="911" y="33" type="curve" smooth="yes"/>
      <point x="771" y="33"/>
      <point x="682" y="130"/>
      <point x="684" y="345" type="curve" smooth="yes"/>
      <point x="684" y="1456" type="line"/>
      <point x="628" y="1456" type="line"/>
    </contour>
    <contour>
      <point x="1190" y="931" type="line"/>
      <point x="1063" y="931" type="line"/>
      <point x="1063" y="877" type="line"/>
      <point x="1254" y="877" type="line"/>
    </contour>
    <contour>
      <point x="1229" y="1456" type="line"/>
      <point x="1175" y="1456" type="line"/>
      <point x="1175" y="1163" type="line"/>
      <point x="1229" y="1163" type="line"/>
    </contour>
    <contour>
      <point x="77" y="1456" type="line"/>
      <point x="77" y="1163" type="line"/>
      <point x="131" y="1163" type="line"/>
      <point x="131" y="1456" type="line"/>
    </contour>
  </outline>
</glyph>
<glyph name="underscoredbl" format="1">
  <advance width="923"/>
  <unicode hex="2017"/>
  <outline>
    <contour>
      <point x="1043" y="-234" type="line"/>
      <point x="197" y="-234" type="line"/>
      <point x="197" y="-288" type="line"/>
      <point x="1043" y="-288" type="line"/>
    </contour>
    <contour>
      <point x="1043" y="0" type="line"/>
      <point x="197" y="0" type="line"/>
      <point x="197" y="-54" type="line"/>
      <point x="1043" y="-54" type="line"/>
    </contour>
  </outline>
</glyph>
<glyph name="quoteleft" format="1">
  <advance width="320"/>
  <unicode hex="2018"/>
  <outline>
    <contour>
      <point x="101" y="1128" type="line"/>
      <point x="155" y="1128" type="line"/>
      <point x="155" y="1298" type="line" smooth="yes"/>
      <point x="155" y="1401"/>
      <point x="184" y="1468"/>
      <point x="244" y="1546" type="curve"/>
      <point x="207" y="1578" type="line"/>
      <point x="144" y="1511"/>
      <point x="101" y="1419"/>
      <point x="101" y="1296" type="curve" smooth="yes"/>
    </contour>
  </outline>
</glyph>
<glyph name="quoteright" format="1">
  <advance width="320"/>
  <unicode hex="2019"/>
  <outline>
    <contour>
      <point x="220" y="1560" type="line"/>
      <point x="166" y="1560" type="line"/>
      <point x="166" y="1391" type="line" smooth="yes"/>
      <point x="166" y="1288"/>
      <point x="137" y="1221"/>
      <point x="77" y="1143" type="curve"/>
      <point x="114" y="1111" type="line"/>
      <point x="177" y="1178"/>
      <point x="220" y="1270"/>
      <point x="220" y="1393" type="curve" smooth="yes"/>
    </contour>
  </outline>
</glyph>
<glyph name="bullet" format="1">
  <advance width="655"/>
  <unicode hex="2022"/>
  <outline>
    <contour>
      <point x="135" y="703" type="line" smooth="yes"/>
      <point x="135" y="612"/>
      <point x="199" y="545"/>
      <point x="302" y="545" type="curve" smooth="yes"/>
      <point x="405" y="545"/>
      <point x="469" y="612"/>
      <point x="469" y="703" type="curve" smooth="yes"/>
      <point x="469" y="773" type="line" smooth="yes"/>
      <point x="469" y="864"/>
      <point x="405" y="933"/>
      <point x="301" y="933" type="curve" smooth="yes"/>
      <point x="199" y="933"/>
      <point x="135" y="865"/>
      <point x="135" y="773" type="curve" smooth="yes"/>
    </contour>
  </outline>
</glyph>
<glyph name="uni2074" format="1">
  <advance width="903"/>
  <unicode hex="2074"/>
  <outline>
    <contour>
      <point x="826" y="820" type="line"/>
      <point x="131" y="820" type="line"/>
      <point x="542" y="1349" type="line"/>
      <point x="611" y="1477" type="line"/>
      <point x="561" y="1477" type="line"/>
      <point x="67" y="821" type="line"/>
      <point x="71" y="764" type="line"/>
      <point x="826" y="764" type="line"/>
    </contour>
    <contour>
      <point x="637" y="1477" type="line"/>
      <point x="582" y="1477" type="line"/>
      <point x="582" y="560" type="line"/>
      <point x="637" y="560" type="line"/>
    </contour>
  </outline>
</glyph>
